<?xml version="1.0" standalone="no"?>
<!DOCTYPE svg PUBLIC "-//W3C//DTD SVG 20010904//EN"
 "http://www.w3.org/TR/2001/REC-SVG-20010904/DTD/svg10.dtd">
<svg version="1.0" xmlns="http://www.w3.org/2000/svg"
 width="350.000000pt" height="350.000000pt" viewBox="0 0 350.000000 350.000000"
 preserveAspectRatio="xMidYMid meet">
<metadata>
Created by potrace 1.14, written by Peter Selinger 2001-2017
</metadata>
<g transform="translate(0.000000,350.000000) scale(0.100000,-0.100000)"
fill="#000000" stroke="none">
<path d="M0 1750 l0 -1750 1750 0 1750 0 0 1750 0 1750 -1750 0 -1750 0 0
-1750z m1972 816 c36 -8 94 -29 129 -46 64 -31 159 -96 159 -109 0 -3 -40 -46
-89 -95 l-88 -88 -43 31 c-145 105 -402 71 -585 -76 -71 -57 -156 -179 -181
-257 -10 -31 -22 -56 -27 -56 -6 0 -7 49 -4 123 5 141 25 210 88 308 89 138
252 246 409 272 56 9 169 6 232 -7z m-70 -410 l73 -23 -92 -28 c-51 -15 -90
-31 -88 -36 3 -4 18 -1 33 7 39 20 54 18 50 -8 -2 -15 -13 -26 -33 -32 -16 -5
-40 -13 -52 -19 -14 -6 -32 -6 -54 2 -45 15 -51 14 -47 -11 2 -17 9 -22 24
-20 11 1 32 -2 47 -7 21 -8 27 -7 30 7 4 13 5 13 6 -3 1 -28 -18 -46 -38 -36
-9 5 -28 11 -43 15 -25 6 -28 4 -28 -19 0 -21 4 -25 18 -21 9 3 32 2 50 -3 25
-8 32 -7 32 5 0 8 4 14 10 14 10 0 3 -27 -12 -47 -7 -9 -18 -8 -48 2 -41 14
-50 12 -50 -16 0 -13 8 -17 28 -17 15 1 37 -2 49 -6 16 -5 23 -2 26 11 3 12 5
9 6 -9 1 -33 -13 -38 -64 -22 -22 6 -61 18 -87 24 -59 15 -64 35 -8 27 31 -4
40 -2 40 9 0 8 -12 19 -26 24 -33 13 -34 13 -35 -7 0 -13 -3 -12 -10 5 -13 33
-4 41 36 32 30 -7 35 -5 35 10 0 20 -51 35 -61 18 -4 -6 -10 -1 -14 11 -10 31
-1 36 40 24 31 -10 35 -9 35 7 0 23 -49 37 -61 18 -10 -14 -10 -12 -13 53 l-1
45 85 26 c92 28 102 28 212 -6z m58 -65 c0 -6 -4 -13 -10 -16 -5 -3 -10 1 -10
9 0 9 5 16 10 16 6 0 10 -4 10 -9z m-40 -17 c0 -8 -4 -12 -10 -9 -5 3 -10 10
-10 16 0 5 5 9 10 9 6 0 10 -7 10 -16z m-28 -106 c-5 -107 -9 -117 -11 -25 0
48 2 87 7 87 4 0 6 -28 4 -62z m-348 -163 c24 -45 91 -107 148 -137 37 -20 57
-23 148 -23 91 0 111 3 150 24 25 13 55 33 68 44 l23 21 92 -93 92 -92 -40
-35 c-51 -44 -162 -99 -240 -119 -86 -22 -202 -20 -269 6 -69 25 -143 91 -181
160 -22 42 -30 70 -33 130 -5 79 3 149 16 149 4 0 16 -16 26 -35z m303 -7 c-3
-7 -5 -2 -5 12 0 14 2 19 5 13 2 -7 2 -19 0 -25z m-749 -517 c8 -5 12 -17 10
-27 -3 -15 -11 -18 -41 -16 -47 4 -67 -11 -67 -53 0 -44 20 -59 70 -51 36 6
40 4 40 -14 0 -47 -97 -51 -140 -5 -41 43 -27 139 24 163 26 13 86 15 104 3z
m237 -13 c51 -45 42 -144 -16 -173 -80 -42 -160 20 -146 113 8 50 46 82 97 82
26 0 47 -7 65 -22z m182 -29 l38 -50 3 50 c3 47 5 51 28 51 24 0 24 -1 24
-100 0 -99 0 -100 -24 -100 -18 0 -34 13 -58 46 l-33 47 -3 -46 c-2 -34 -8
-46 -22 -50 -10 -3 -21 -2 -24 1 -3 3 -6 50 -6 104 0 91 1 98 20 98 12 0 34
-20 57 -51z m321 21 c3 -24 1 -25 -39 -22 -33 3 -46 0 -56 -14 -34 -47 2 -101
62 -91 32 5 35 4 35 -18 0 -25 -17 -35 -56 -35 -60 0 -103 45 -104 108 0 35 6
49 30 73 26 26 36 30 77 27 43 -3 48 -6 51 -28z m212 5 c0 -23 -4 -25 -45 -25
-33 0 -45 -4 -45 -15 0 -11 11 -15 40 -15 36 0 40 -2 40 -25 0 -23 -4 -25 -41
-25 -55 0 -47 -24 10 -28 37 -3 42 -6 39 -25 -3 -23 -5 -23 -125 -18 -10 1
-13 27 -13 94 0 52 3 97 7 100 3 4 35 7 70 7 61 0 63 -1 63 -25z m110 -76 c0
-98 0 -100 -22 -97 -21 3 -23 9 -26 78 -4 94 2 120 28 120 19 0 20 -7 20 -101z
m220 76 c0 -20 -5 -25 -25 -25 -24 0 -25 -2 -25 -75 0 -42 -4 -76 -10 -76 -33
-5 -35 -2 -40 71 -4 65 -8 75 -25 78 -28 5 -39 18 -32 36 5 13 23 16 82 16 73
0 75 -1 75 -25z m210 10 c31 -16 42 -39 42 -91 0 -91 -100 -137 -163 -75 -24
24 -29 38 -29 76 0 85 74 129 150 90z m-1477 -292 c-27 -5 -30 -28 -5 -42 16
-10 16 -10 -1 -11 -10 0 -20 7 -23 15 -10 24 4 45 28 44 l23 -2 -22 -4z m164
-9 c3 -8 -1 -23 -10 -31 -21 -21 -47 -9 -47 22 0 20 5 25 25 25 14 0 28 -7 32
-16z m134 7 c6 10 9 4 9 -20 0 -33 -1 -34 -19 -17 -18 17 -19 17 -24 -1 -3
-10 -5 -3 -6 16 -1 29 1 32 15 20 13 -10 17 -10 25 2z m152 -3 c7 -21 -12 -48
-33 -48 -16 0 -20 7 -20 30 0 25 4 30 24 30 13 0 26 -6 29 -12z m147 -13 c0
-31 -26 -43 -47 -22 -21 21 -9 47 22 47 20 0 25 -5 25 -25z m119 8 c9 -17 10
-17 16 0 11 28 25 19 24 -15 0 -18 -3 -27 -6 -20 -4 9 -9 10 -18 2 -9 -8 -15
-6 -20 7 -7 17 -8 17 -15 -2 -7 -17 -9 -14 -9 13 -1 35 12 42 28 15z m138 -30
c-3 -10 -5 -2 -5 17 0 19 2 27 5 18 2 -10 2 -26 0 -35z m121 35 c10 -10 15
-10 22 2 7 11 10 7 10 -17 0 -36 -13 -43 -29 -15 -6 9 -11 11 -11 5 0 -25 -20
-13 -20 12 0 27 9 32 28 13z m129 -35 c-3 -10 -5 -2 -5 17 0 19 2 27 5 18 2
-10 2 -26 0 -35z m148 17 c0 -18 -6 -26 -23 -28 -13 -2 -25 3 -28 12 -10 26 4
48 28 44 17 -2 23 -10 23 -28z m117 23 c-10 -4 -9 -8 4 -17 20 -15 11 -36 -14
-36 -15 0 -15 2 -2 11 11 8 12 12 3 16 -19 7 -15 33 5 32 11 0 12 -2 4 -6z"/>
<path d="M1620 2095 c0 -16 27 -20 48 -6 10 6 8 10 -10 14 -34 10 -38 9 -38
-8z"/>
<path d="M1701 2074 c0 -11 3 -14 6 -6 3 7 2 16 -1 19 -3 4 -6 -2 -5 -13z"/>
<path d="M1229 1214 c-18 -48 12 -91 55 -80 29 7 43 54 26 85 -17 32 -68 29
-81 -5z"/>
<path d="M2502 1228 c-7 -7 -12 -26 -12 -43 0 -36 15 -55 45 -55 30 0 45 19
45 55 0 36 -15 55 -45 55 -12 0 -26 -5 -33 -12z"/>
<path d="M1232 963 c5 -25 28 -28 28 -4 0 12 -6 21 -16 21 -9 0 -14 -7 -12
-17z"/>
<path d="M1522 964 c4 -21 22 -23 26 -1 2 10 -3 17 -13 17 -10 0 -15 -6 -13
-16z"/>
<path d="M1670 959 c0 -24 23 -21 28 4 2 10 -3 17 -12 17 -10 0 -16 -9 -16
-21z"/>
<path d="M2324 969 c-3 -6 -1 -16 5 -22 9 -9 14 -8 21 3 9 15 4 30 -10 30 -5
0 -12 -5 -16 -11z"/>
</g>
</svg>
