<?xml version="1.0" encoding="UTF-8" standalone="no"?>
<!DOCTYPE svg PUBLIC "-//W3C//DTD SVG 1.1//EN" "http://www.w3.org/Graphics/SVG/1.1/DTD/svg11.dtd">
<svg xmlns="http://www.w3.org/2000/svg" version="1.1" viewBox="0.00 0.00 500.00 500.00">
<g stroke-width="2.00" fill="none" stroke-linecap="butt">
<path stroke="#d29697" vector-effect="non-scaling-stroke" d="
  M 377.47 240.33
  A 127.49 127.49 0.0 0 0 249.98 112.84
  A 127.49 127.49 0.0 0 0 122.49 240.33
  A 127.49 127.49 0.0 0 0 249.98 367.82
  A 127.49 127.49 0.0 0 0 377.47 240.33"
/>
<path stroke="#d29697" vector-effect="non-scaling-stroke" d="
  M 191.71 186.56
  Q 188.59 197.32 189.66 209.63
  C 189.85 211.86 189.79 214.25 190.23 216.37
  Q 190.39 217.15 190.74 216.43
  C 191.86 214.10 192.21 211.61 193.12 209.25
  C 202.88 184.09 225.81 167.74 252.96 167.73
  C 262.46 167.72 270.72 170.95 277.66 177.18
  Q 278.56 177.98 279.40 177.13
  L 297.23 159.18
  A 0.64 0.64 0.0 0 0 297.22 158.27
  C 285.63 147.14 270.33 140.78 254.09 140.70
  Q 243.71 140.64 236.94 142.53
  C 215.26 148.59 198.06 164.61 191.71 186.56"
/>
<path stroke="#824141" vector-effect="non-scaling-stroke" d="
  M 228.71 189.94
  Q 228.58 190.30 228.67 190.42"
/>
<path stroke="#d29697" vector-effect="non-scaling-stroke" d="
  M 228.67 190.42
  Q 227.95 191.13 228.31 192.83"
/>
<path stroke="#824141" vector-effect="non-scaling-stroke" d="
  M 228.31 192.83
  L 228.33 193.85"
/>
<path stroke="#d29697" vector-effect="non-scaling-stroke" d="
  M 228.33 193.85
  Q 227.10 193.63 227.26 195.25
  Q 227.34 196.04 228.26 196.74"
/>
<path stroke="#824141" vector-effect="non-scaling-stroke" d="
  M 228.26 196.74
  Q 228.42 197.14 228.42 197.41"
/>
<path stroke="#d29697" vector-effect="non-scaling-stroke" d="
  M 228.42 197.41
  L 227.40 200.61
  Q 227.25 201.08 227.41 201.54
  Q 228.16 203.67 228.19 205.94
  Q 228.20 206.47 227.76 206.76
  Q 227.47 206.95 227.37 207.28
  Q 227.23 207.74 227.42 208.19
  Q 228.26 210.12 228.45 212.32
  Q 228.50 212.86 228.05 213.17
  Q 227.53 213.52 227.16 214.04
  Q 226.61 214.82 227.54 215.07
  Q 236.47 217.42 245.50 220.24
  Q 246.64 220.59 247.97 219.76"
/>
<path stroke="#824141" vector-effect="non-scaling-stroke" d="
  M 247.97 219.76
  L 248.48 220.75"
/>
<path stroke="#d29697" vector-effect="non-scaling-stroke" d="
  M 248.48 220.75
  L 248.34 226.19
  A 0.32 0.32 0.0 0 0 248.78 226.49
  L 249.17 226.33
  A 0.52 0.50 -11.1 0 0 249.48 225.88
  L 249.60 222.26"
/>
<path stroke="#824141" vector-effect="non-scaling-stroke" d="
  M 249.60 222.26
  Q 249.64 221.65 250.34 221.68
  Q 250.68 221.70 250.87 221.42
  Q 251.31 220.78 253.01 221.63"
/>
<path stroke="#d29697" vector-effect="non-scaling-stroke" d="
  M 253.01 221.63
  L 252.85 224.46
  Q 252.82 225.01 253.37 225.04
  Q 253.59 225.06 253.77 224.96
  Q 254.16 224.76 254.09 224.32
  L 254.01 223.80"
/>
<path stroke="#824141" vector-effect="non-scaling-stroke" d="
  M 254.01 223.80
  Q 259.37 223.90 264.55 221.98
  C 268.69 220.44 268.50 217.04 267.99 213.34
  Q 267.81 212.04 267.46 210.84
  Q 267.08 209.57 267.65 208.35
  A 3.39 3.35 46.6 0 0 267.71 205.63
  Q 266.48 202.64 267.61 199.16
  A 1.37 1.35 -46.7 0 0 267.59 198.31
  Q 267.11 196.95 267.52 195.56
  Q 267.65 195.13 267.37 194.77
  Q 267.03 194.33 267.10 193.73
  Q 267.33 191.68 267.04 187.81"
/>
<path stroke="#d29697" vector-effect="non-scaling-stroke" d="
  M 267.04 187.81
  L 248.86 182.23
  A 5.40 5.36 45.2 0 0 245.78 182.21
  L 227.71 187.47
  A 0.87 0.87 0.0 0 0 227.21 188.76
  Q 227.68 189.53 228.71 189.94"
/>
<path stroke="#afaaa9" vector-effect="non-scaling-stroke" d="
  M 267.04 187.81
  L 247.76 193.45
  Q 246.52 193.81 247.64 194.44
  L 248.07 194.69
  A 1.08 1.08 0.0 0 1 248.61 195.59
  L 248.72 198.99
  A 1.88 1.88 0.0 0 1 246.37 200.86
  L 238.18 198.73
  A 0.85 0.85 0.0 0 0 237.12 199.61
  L 237.39 203.46
  A 0.60 0.60 0.0 0 0 238.31 203.92
  C 240.80 202.30 244.93 204.05 247.60 204.80
  A 0.50 0.50 0.0 0 0 248.22 204.17
  Q 247.78 202.75 248.10 201.45
  Q 248.22 200.95 248.69 201.13
  Q 249.41 201.40 249.43 202.17
  C 249.47 203.40 249.70 204.86 248.97 205.93
  Q 247.69 207.83 245.41 207.15
  Q 241.76 206.06 238.17 205.07
  A 0.70 0.70 0.0 0 0 237.28 205.70
  L 237.05 209.26
  A 0.91 0.90 -8.8 0 0 238.28 210.16
  C 241.27 209.01 244.35 210.30 247.19 211.28
  A 0.79 0.79 0.0 0 0 248.23 210.45
  Q 248.10 209.26 248.37 208.10
  Q 248.65 206.90 249.02 208.07
  Q 250.16 211.65 247.36 213.62
  Q 246.78 214.02 246.11 213.83
  L 238.10 211.55
  A 0.65 0.65 0.0 0 0 237.28 212.18
  L 237.35 215.81
  A 0.95 0.94 77.6 0 0 238.67 216.66
  C 241.28 215.51 244.93 216.98 247.51 217.86
  A 0.60 0.60 0.0 0 0 248.31 217.22
  L 248.03 214.79
  Q 248.01 214.58 248.20 214.49
  L 248.65 214.27
  Q 249.26 213.98 249.24 214.65
  L 249.19 218.05
  Q 249.18 218.68 248.71 219.10
  L 247.97 219.76"
/>
<path stroke="#afaaa9" vector-effect="non-scaling-stroke" d="
  M 228.42 197.41
  L 229.09 199.42
  Q 229.24 199.85 229.69 199.95
  L 235.14 201.09
  Q 236.42 201.35 236.51 200.05
  L 236.54 199.59
  Q 236.61 198.47 235.60 197.99
  Q 231.41 196.00 228.26 196.74"
/>
<path stroke="#afaaa9" vector-effect="non-scaling-stroke" d="
  M 228.33 193.85
  L 235.64 192.29
  Q 236.79 192.04 235.72 191.55
  Q 232.53 190.08 228.71 189.94"
/>
<path stroke="#afaaa9" vector-effect="non-scaling-stroke" d="
  M 254.01 223.80
  L 253.53 219.47
  Q 253.47 218.86 253.07 219.33
  Q 252.58 219.92 253.01 221.63"
/>
<path stroke="#afaaa9" vector-effect="non-scaling-stroke" d="
  M 249.60 222.26
  Q 249.64 221.68 249.48 221.16
  Q 249.38 220.82 249.12 220.73
  Q 248.83 220.62 248.48 220.75"
/>
<path stroke="#afaaa9" vector-effect="non-scaling-stroke" d="
  M 228.31 192.83
  Q 229.73 192.64 229.58 191.25
  Q 229.53 190.77 228.67 190.42"
/>
<path stroke="#d29697" vector-effect="non-scaling-stroke" d="
  M 277.75 230.86
  C 258.46 247.93 230.32 241.32 219.43 218.65
  A 0.46 0.46 0.0 0 0 218.73 218.49
  Q 218.55 218.63 218.48 218.85
  C 212.93 237.30 220.17 255.68 237.47 264.10
  Q 244.85 267.69 254.99 267.43
  C 271.08 267.01 285.46 260.74 297.34 249.79
  A 0.55 0.55 0.0 0 0 297.36 248.99
  L 279.29 230.90
  Q 278.54 230.16 277.75 230.86"
/>
<path stroke="#d29697" vector-effect="non-scaling-stroke" d="
  M 175.20 292.29
  Q 168.35 295.92 165.02 291.86
  Q 162.98 289.36 164.06 285.60
  C 165.29 281.33 170.55 280.53 174.53 282.64
  Q 175.59 283.21 175.58 282.00
  L 175.56 279.00
  Q 175.55 277.88 174.48 277.53
  C 166.12 274.85 157.81 278.77 158.38 288.47
  C 158.92 297.76 167.46 300.61 175.18 297.58
  Q 175.34 297.52 175.36 297.36
  Q 175.72 295.05 175.45 292.43
  A 0.17 0.17 0.0 0 0 175.20 292.29"
/>
<path stroke="#d29697" vector-effect="non-scaling-stroke" d="
  M 192.7891 298.9399
  A 11.20 10.66 89.8 0 0 203.4099 287.7028
  A 11.20 10.66 89.8 0 0 192.7109 276.5401
  A 11.20 10.66 89.8 0 0 182.0901 287.7772
  A 11.20 10.66 89.8 0 0 192.7891 298.9399"
/>
<path stroke="#d29697" vector-effect="non-scaling-stroke" d="
  M 252.16 292.64
  C 240.28 298.57 237.30 282.25 246.95 281.65
  Q 249.80 281.47 252.94 282.89
  Q 253.03 282.93 253.04 282.82
  Q 253.25 280.53 253.17 278.41
  A 0.44 0.43 11.0 0 0 252.91 278.03
  C 243.35 273.69 233.57 280.40 236.37 291.26
  C 238.19 298.35 245.91 299.99 252.14 297.81
  Q 253.23 297.43 253.20 296.28
  L 253.13 293.22
  Q 253.11 292.16 252.16 292.64"
/>
<path stroke="#d29697" vector-effect="non-scaling-stroke" d="
  M 326.5467 298.9392
  A 11.19 10.63 89.3 0 0 337.0392 287.6201
  A 11.19 10.63 89.3 0 0 326.2733 276.5608
  A 11.19 10.63 89.3 0 0 315.7808 287.8799
  A 11.19 10.63 89.3 0 0 326.5467 298.9392"
/>
<path stroke="#d29697" vector-effect="non-scaling-stroke" d="
  M 215.57 288.50
  Q 215.51 286.66 216.58 288.16
  L 223.23 297.47
  A 1.54 1.53 -10.1 0 0 224.13 298.09
  Q 226.03 298.57 228.15 298.25
  Q 228.77 298.15 228.77 297.53
  L 228.77 278.28
  Q 228.77 277.29 227.78 277.24
  L 224.73 277.11
  A 1.14 1.14 0.0 0 0 223.54 278.27
  L 223.67 286.94
  Q 223.70 288.98 222.51 287.32
  L 215.93 278.06
  Q 215.63 277.64 215.14 277.46
  Q 213.01 276.70 210.96 277.10
  A 0.67 0.66 -5.9 0 0 210.42 277.75
  L 210.41 297.61
  Q 210.41 298.57 211.36 298.51
  L 214.80 298.31
  A 1.08 1.08 0.0 0 0 215.82 297.20
  L 215.57 288.50"
/>
<path stroke="#d29697" vector-effect="non-scaling-stroke" d="
  M 265.88 282.58
  A 0.68 0.68 0.0 0 1 266.57 281.90
  L 274.28 282.02
  A 0.68 0.68 0.0 0 0 274.97 281.37
  L 275.10 277.92
  A 0.68 0.68 0.0 0 0 274.43 277.22
  L 261.18 277.14
  A 0.68 0.68 0.0 0 0 260.50 277.82
  L 260.51 297.64
  A 0.68 0.68 0.0 0 0 261.19 298.32
  L 274.54 298.26
  A 0.68 0.68 0.0 0 0 275.22 297.54
  L 275.03 294.23
  A 0.68 0.68 0.0 0 0 274.34 293.59
  L 266.63 293.71
  A 0.68 0.68 0.0 0 1 265.94 293.03
  L 265.94 290.66
  A 0.68 0.68 0.0 0 1 266.63 289.98
  L 273.78 290.07
  A 0.68 0.68 0.0 0 0 274.47 289.39
  L 274.44 286.06
  A 0.68 0.68 0.0 0 0 273.76 285.38
  L 266.58 285.42
  A 0.68 0.68 0.0 0 1 265.90 284.74
  L 265.88 282.58"
/>
<path stroke="#d29697" vector-effect="non-scaling-stroke" d="
  M 304.40 282.72
  A 0.79 0.79 0.0 0 1 305.20 281.93
  L 309.23 281.99
  A 0.79 0.79 0.0 0 0 310.03 281.26
  L 310.27 278.03
  A 0.79 0.79 0.0 0 0 309.49 277.18
  L 294.36 277.11
  A 0.79 0.79 0.0 0 0 293.57 277.90
  L 293.55 281.22
  A 0.79 0.79 0.0 0 0 294.34 282.01
  L 298.45 282.04
  A 0.79 0.79 0.0 0 1 299.24 282.83
  L 299.18 297.50
  A 0.79 0.79 0.0 0 0 299.97 298.29
  L 303.57 298.31
  A 0.79 0.79 0.0 0 0 304.36 297.52
  L 304.40 282.72"
/>
<path stroke="#d29697" vector-effect="non-scaling-stroke" d="
  M 287.28 277.79
  A 0.56 0.56 0.0 0 0 286.72 277.23
  L 282.60 277.23
  A 0.56 0.56 0.0 0 0 282.04 277.79
  L 282.04 297.77
  A 0.56 0.56 0.0 0 0 282.60 298.33
  L 286.72 298.33
  A 0.56 0.56 0.0 0 0 287.28 297.77
  L 287.28 277.79"
/>
<path stroke="#d29697" vector-effect="non-scaling-stroke" d="
  M 267.3405 306.5199
  A 0.49 0.49 0.0 0 0 266.8877 305.9953
  L 266.7880 305.9880
  A 0.49 0.49 0.0 0 0 266.2634 306.4408
  L 265.6995 314.1201
  A 0.49 0.49 0.0 0 0 266.1523 314.6447
  L 266.2520 314.6520
  A 0.49 0.49 0.0 0 0 266.7766 314.1992
  L 267.3405 306.5199"
/>
<path stroke="#d29697" vector-effect="non-scaling-stroke" d="
  M 177.49 313.71
  C 175.72 313.33 172.85 313.54 173.94 310.49
  C 174.47 309.00 176.09 309.11 177.37 309.14
  Q 177.57 309.15 177.61 308.96
  L 177.69 308.64
  Q 177.78 308.26 177.39 308.19
  Q 173.03 307.43 172.65 310.94
  Q 172.17 315.25 177.21 314.75
  Q 177.53 314.72 177.63 314.42
  L 177.73 314.13
  Q 177.85 313.78 177.49 313.71"
/>
<path stroke="#d29697" vector-effect="non-scaling-stroke" d="
  M 191.0178 314.8514
  A 3.50 3.34 79.5 0 0 193.6641 310.8013
  A 3.50 3.34 79.5 0 0 189.7422 307.9686
  A 3.50 3.34 79.5 0 0 187.0959 312.0187
  A 3.50 3.34 79.5 0 0 191.0178 314.8514"
/>
<path stroke="#d29697" vector-effect="non-scaling-stroke" d="
  M 206.98 310.52
  Q 206.52 312.25 205.72 310.64
  Q 204.93 309.03 203.84 308.13
  Q 203.04 307.46 203.02 308.50
  Q 202.96 310.96 202.87 313.53
  Q 202.78 315.91 204.16 314.01
  Q 204.32 313.79 204.30 313.50
  Q 204.21 312.44 204.75 311.58
  A 0.38 0.38 0.0 0 1 205.43 311.66
  Q 206.03 313.34 207.27 314.57
  A 0.74 0.74 0.0 0 0 208.53 314.04
  L 208.45 308.36
  A 0.36 0.36 0.0 0 0 208.00 308.01
  L 207.63 308.10
  Q 207.22 308.21 207.22 308.63
  Q 207.22 309.65 206.98 310.52"
/>
<path stroke="#d29697" vector-effect="non-scaling-stroke" d="
  M 218.06 309.22
  L 218.04 313.58
  A 1.22 1.22 0.0 0 0 219.26 314.80
  L 220.74 314.81
  A 3.24 3.22 0.2 0 0 223.99 311.60
  L 223.99 311.24
  A 3.24 3.22 0.2 0 0 220.76 308.01
  L 219.28 308.00
  A 1.22 1.22 0.0 0 0 218.06 309.22"
/>
<path stroke="#d29697" vector-effect="non-scaling-stroke" d="
  M 239.79 311.45
  A 3.41 3.41 0.0 0 0 236.38 308.04
  A 3.41 3.41 0.0 0 0 232.97 311.45
  A 3.41 3.41 0.0 0 0 236.38 314.86
  A 3.41 3.41 0.0 0 0 239.79 311.45"
/>
<path stroke="#d29697" vector-effect="non-scaling-stroke" d="
  M 254.86 312.54
  L 255.25 314.46
  Q 255.34 314.90 255.74 314.70
  L 256.04 314.55
  Q 256.22 314.45 256.21 314.25
  L 256.09 308.99
  A 1.01 1.01 0.0 0 0 255.25 308.02
  L 254.97 307.98
  A 0.65 0.65 0.0 0 0 254.24 308.41
  L 253.32 311.23
  A 0.80 0.80 0.0 0 1 251.84 311.34
  Q 251.21 310.06 251.14 308.69
  A 0.71 0.70 90.0 0 0 250.47 308.01
  L 249.84 307.98
  A 0.99 0.98 -86.5 0 0 248.80 308.91
  L 248.50 313.95
  Q 248.47 314.47 248.99 314.46
  L 249.33 314.45
  Q 249.94 314.43 249.96 313.82
  Q 250.01 312.59 250.57 311.44
  Q 250.88 310.82 251.13 311.47
  Q 251.52 312.48 251.52 313.54
  Q 251.53 314.16 252.09 314.41
  Q 252.74 314.71 253.37 314.24
  Q 253.76 313.94 253.86 313.46
  Q 253.96 312.95 254.15 312.47
  Q 254.61 311.37 254.86 312.54"
/>
<path stroke="#d29697" vector-effect="non-scaling-stroke" d="
  M 279.08 311.21
  L 279.37 311.36
  Q 279.72 311.53 279.55 311.18
  L 278.33 308.57
  Q 278.12 308.13 277.64 308.01
  Q 277.35 307.94 277.09 308.12
  Q 276.73 308.36 276.70 308.80
  Q 276.50 311.60 276.54 314.28
  A 0.52 0.52 0.0 0 0 277.16 314.78
  L 277.48 314.72
  Q 277.58 314.69 277.60 314.58
  Q 277.84 312.54 278.62 311.33
  Q 278.80 311.07 279.08 311.21"
/>
<path stroke="#d29697" vector-effect="non-scaling-stroke" d="
  M 280.05 313.53
  Q 280.54 314.52 281.57 314.57
  Q 282.28 314.60 282.28 313.89
  L 282.30 308.52
  A 0.40 0.40 0.0 0 0 281.90 308.12
  L 281.54 308.12
  Q 281.13 308.12 281.10 308.54
  Q 280.94 310.53 280.05 312.34
  A 1.37 1.35 45.5 0 0 280.05 313.53"
/>
<path stroke="#d29697" vector-effect="non-scaling-stroke" d="
  M 293.1415 308.6634
  A 0.64 0.64 0.0 0 0 292.5139 308.0112
  L 292.4539 308.0100
  A 0.64 0.64 0.0 0 0 291.8018 308.6376
  L 291.6985 314.0166
  A 0.64 0.64 0.0 0 0 292.3261 314.6688
  L 292.3861 314.6700
  A 0.64 0.64 0.0 0 0 293.0382 314.0424
  L 293.1415 308.6634"
/>
<path stroke="#d29697" vector-effect="non-scaling-stroke" d="
  M 309.10 311.43
  A 3.42 3.42 0.0 0 0 305.68 308.01
  A 3.42 3.42 0.0 0 0 302.26 311.43
  A 3.42 3.42 0.0 0 0 305.68 314.85
  A 3.42 3.42 0.0 0 0 309.10 311.43"
/>
<path stroke="#d29697" vector-effect="non-scaling-stroke" d="
  M 320.03 309.63
  Q 320.56 309.01 321.43 308.88
  Q 321.68 308.84 321.92 308.76
  Q 322.32 308.62 322.26 308.37
  Q 322.18 308.06 321.86 308.03
  Q 320.50 307.92 319.18 308.22
  A 1.05 1.04 0.9 0 0 318.40 308.97
  Q 318.15 309.98 318.46 310.89
  Q 318.65 311.47 319.25 311.53
  Q 320.55 311.66 321.15 312.62
  Q 321.57 313.30 320.81 313.55
  Q 319.76 313.90 318.57 313.69
  A 0.43 0.42 7.4 0 0 318.07 314.07
  Q 318.05 314.40 318.33 314.56
  C 321.71 316.39 324.76 312.15 320.23 310.41
  Q 319.57 310.16 320.03 309.63"
/>
<path stroke="#afaaa9" vector-effect="non-scaling-stroke" d="
  M 238.2149 196.6899
  A 2.48 0.61 97.3 0 0 239.1351 194.3075
  A 2.48 0.61 97.3 0 0 238.8451 191.7701
  A 2.48 0.61 97.3 0 0 237.9249 194.1525
  A 2.48 0.61 97.3 0 0 238.2149 196.6899"
/>
<path stroke="#afaaa9" vector-effect="non-scaling-stroke" d="
  M 229.23 203.44
  L 228.69 205.65
  A 0.66 0.66 0.0 0 0 229.17 206.45
  L 233.76 207.57
  A 2.34 1.18 13.7 0 0 236.31 206.98
  L 236.61 205.77
  A 2.34 1.18 13.7 0 0 234.61 204.07
  L 230.03 202.95
  A 0.66 0.66 0.0 0 0 229.23 203.44"
/>
<path stroke="#afaaa9" vector-effect="non-scaling-stroke" d="
  M 235.40 214.16
  A 1.04 1.04 0.0 0 0 236.56 212.82
  L 236.16 211.57
  A 1.04 1.04 0.0 0 0 235.49 210.90
  L 230.31 209.23
  A 1.04 1.04 0.0 0 0 228.96 210.15
  L 228.82 212.11
  A 1.04 1.04 0.0 0 0 229.68 213.21
  L 235.40 214.16"
/>
<path stroke="#afaaa9" vector-effect="non-scaling-stroke" d="
  M 264.4037 194.0586
  A 1.52 0.88 92.5 0 0 265.3492 192.5784
  A 1.52 0.88 92.5 0 0 264.5363 191.0214
  A 1.52 0.88 92.5 0 0 263.5908 192.5016
  A 1.52 0.88 92.5 0 0 264.4037 194.0586"
/>
<path stroke="#afaaa9" vector-effect="non-scaling-stroke" d="
  M 260.5008 195.2995
  A 1.67 0.92 88.6 0 0 261.3797 193.6075
  A 1.67 0.92 88.6 0 0 260.4192 191.9605
  A 1.67 0.92 88.6 0 0 259.5403 193.6525
  A 1.67 0.92 88.6 0 0 260.5008 195.2995"
/>
<path stroke="#afaaa9" vector-effect="non-scaling-stroke" d="
  M 250.84 193.80
  A 0.75 0.75 0.0 0 0 250.29 194.53
  L 250.36 198.46
  A 0.75 0.75 0.0 0 0 251.37 199.15
  L 256.44 197.30
  A 0.75 0.75 0.0 0 0 256.93 196.59
  L 256.88 193.10
  A 0.75 0.75 0.0 0 0 255.93 192.39
  L 250.84 193.80"
/>
<path stroke="#afaaa9" vector-effect="non-scaling-stroke" d="
  M 265.0679 200.8463
  A 2.00 0.62 93.5 0 0 265.8088 198.8879
  A 2.00 0.62 93.5 0 0 265.3121 196.8537
  A 2.00 0.62 93.5 0 0 264.5712 198.8121
  A 2.00 0.62 93.5 0 0 265.0679 200.8463"
/>
<path stroke="#afaaa9" vector-effect="non-scaling-stroke" d="
  M 258.8777 198.1633
  A 0.27 0.27 0.0 0 0 258.6092 197.8919
  L 257.9492 197.8884
  A 0.27 0.27 0.0 0 0 257.6778 198.1570
  L 257.5823 216.3967
  A 0.27 0.27 0.0 0 0 257.8508 216.6681
  L 258.5108 216.6716
  A 0.27 0.27 0.0 0 0 258.7822 216.4030
  L 258.8777 198.1633"
/>
<path stroke="#afaaa9" vector-effect="non-scaling-stroke" d="
  M 253.13 201.06
  L 252.09 201.04
  A 0.33 0.32 -34.3 0 0 251.97 201.67
  Q 252.75 201.97 253.28 201.49
  A 0.25 0.24 -64.9 0 0 253.13 201.06"
/>
<path stroke="#afaaa9" vector-effect="non-scaling-stroke" d="
  M 255.5316 203.4098
  A 0.88 0.52 91.2 0 0 256.0699 202.5409
  A 0.88 0.52 91.2 0 0 255.5684 201.6502
  A 0.88 0.52 91.2 0 0 255.0301 202.5191
  A 0.88 0.52 91.2 0 0 255.5316 203.4098"
/>
<path stroke="#afaaa9" vector-effect="non-scaling-stroke" d="
  M 262.92 205.85
  Q 262.93 205.41 262.67 205.05
  Q 262.41 204.70 262.31 205.13
  Q 262.22 205.50 262.39 205.82
  Q 262.61 206.25 262.38 206.66
  L 261.83 207.63
  Q 261.61 208.02 262.01 207.81
  Q 262.51 207.55 262.92 207.20
  A 0.93 0.92 -61.5 0 1 263.66 206.98
  Q 264.49 207.10 265.28 206.92
  A 0.68 0.67 -5.7 0 0 265.80 206.29
  Q 265.83 205.41 265.90 204.59
  Q 265.93 204.24 265.73 203.95
  Q 265.55 203.69 265.06 203.87
  A 0.56 0.52 89.6 0 0 264.74 204.22
  Q 264.62 204.64 264.74 205.02
  Q 264.93 205.61 264.46 206.00
  Q 264.07 206.34 263.55 206.41
  Q 262.89 206.51 262.92 205.85"
/>
<path stroke="#afaaa9" vector-effect="non-scaling-stroke" d="
  M 262.48 213.01
  A 1.02 1.02 0.0 0 1 264.41 212.72
  Q 264.70 213.32 265.20 213.53
  Q 265.88 213.82 265.88 213.09
  L 265.88 210.72
  Q 265.88 210.12 265.29 210.26
  Q 264.67 210.40 264.30 210.96
  Q 263.30 212.49 261.95 211.47
  Q 261.53 211.15 261.60 211.67
  Q 261.77 213.04 261.05 214.12
  Q 260.73 214.60 261.28 214.42
  Q 262.32 214.09 262.48 213.01"
/>
<path stroke="#afaaa9" vector-effect="non-scaling-stroke" d="
  M 255.5895 216.5800
  A 1.81 0.69 89.7 0 0 256.2700 214.7664
  A 1.81 0.69 89.7 0 0 255.5705 212.9600
  A 1.81 0.69 89.7 0 0 254.8900 214.7736
  A 1.81 0.69 89.7 0 0 255.5895 216.5800"
/>
<path stroke="#d29697" vector-effect="non-scaling-stroke" d="
  M 197.7177 286.3157
  A 4.50 4.50 0.0 0 0 193.2414 281.7922
  L 192.4414 281.7880
  A 4.50 4.50 0.0 0 0 187.9179 286.2644
  L 187.9023 289.2443
  A 4.50 4.50 0.0 0 0 192.3786 293.7678
  L 193.1786 293.7720
  A 4.50 4.50 0.0 0 0 197.7021 289.2956
  L 197.7177 286.3157"
/>
<path stroke="#d29697" vector-effect="non-scaling-stroke" d="
  M 331.4223 286.3834
  A 4.58 4.58 0.0 0 0 326.8824 281.7636
  L 326.1025 281.7568
  A 4.58 4.58 0.0 0 0 321.4827 286.2967
  L 321.4577 289.1566
  A 4.58 4.58 0.0 0 0 325.9976 293.7764
  L 326.7775 293.7832
  A 4.58 4.58 0.0 0 0 331.3973 289.2433
  L 331.4223 286.3834"
/>
<path stroke="#d29697" vector-effect="non-scaling-stroke" d="
  M 190.5674 313.6421
  A 2.24 1.86 85.2 0 0 192.2335 311.2544
  A 2.24 1.86 85.2 0 0 190.1926 309.1779
  A 2.24 1.86 85.2 0 0 188.5265 311.5656
  A 2.24 1.86 85.2 0 0 190.5674 313.6421"
/>
<path stroke="#d29697" vector-effect="non-scaling-stroke" d="
  M 220.8285 313.7282
  A 2.28 1.67 92.3 0 0 222.5887 311.5170
  A 2.28 1.67 92.3 0 0 221.0115 309.1718
  A 2.28 1.67 92.3 0 0 219.2513 311.3830
  A 2.28 1.67 92.3 0 0 220.8285 313.7282"
/>
<path stroke="#d29697" vector-effect="non-scaling-stroke" d="
  M 236.6166 313.6522
  A 2.23 1.86 85.2 0 0 238.2835 311.2744
  A 2.23 1.86 85.2 0 0 236.2434 309.2078
  A 2.23 1.86 85.2 0 0 234.5765 311.5856
  A 2.23 1.86 85.2 0 0 236.6166 313.6522"
/>
<path stroke="#d29697" vector-effect="non-scaling-stroke" d="
  M 305.4497 313.7787
  A 2.36 1.84 95.6 0 0 307.5112 311.6096
  A 2.36 1.84 95.6 0 0 305.9103 309.0813
  A 2.36 1.84 95.6 0 0 303.8488 311.2504
  A 2.36 1.84 95.6 0 0 305.4497 313.7787"
/>
</g>
<g fill="#ffffff">
<path d="
  M 0.00 0.00
  L 500.00 0.00
  L 500.00 500.00
  L 0.00 500.00
  L 0.00 0.00
  Z
  M 377.47 240.33
  A 127.49 127.49 0.0 0 0 249.98 112.84
  A 127.49 127.49 0.0 0 0 122.49 240.33
  A 127.49 127.49 0.0 0 0 249.98 367.82
  A 127.49 127.49 0.0 0 0 377.47 240.33
  Z"
/>
<path d="
  M 191.71 186.56
  C 198.06 164.61 215.26 148.59 236.94 142.53
  Q 243.71 140.64 254.09 140.70
  C 270.33 140.78 285.63 147.14 297.22 158.27
  A 0.64 0.64 0.0 0 1 297.23 159.18
  L 279.40 177.13
  Q 278.56 177.98 277.66 177.18
  C 270.72 170.95 262.46 167.72 252.96 167.73
  C 225.81 167.74 202.88 184.09 193.12 209.25
  C 192.21 211.61 191.86 214.10 190.74 216.43
  Q 190.39 217.15 190.23 216.37
  C 189.79 214.25 189.85 211.86 189.66 209.63
  Q 188.59 197.32 191.71 186.56
  Z"
/>
<path d="
  M 267.04 187.81
  L 247.76 193.45
  Q 246.52 193.81 247.64 194.44
  L 248.07 194.69
  A 1.08 1.08 0.0 0 1 248.61 195.59
  L 248.72 198.99
  A 1.88 1.88 0.0 0 1 246.37 200.86
  L 238.18 198.73
  A 0.85 0.85 0.0 0 0 237.12 199.61
  L 237.39 203.46
  A 0.60 0.60 0.0 0 0 238.31 203.92
  C 240.80 202.30 244.93 204.05 247.60 204.80
  A 0.50 0.50 0.0 0 0 248.22 204.17
  Q 247.78 202.75 248.10 201.45
  Q 248.22 200.95 248.69 201.13
  Q 249.41 201.40 249.43 202.17
  C 249.47 203.40 249.70 204.86 248.97 205.93
  Q 247.69 207.83 245.41 207.15
  Q 241.76 206.06 238.17 205.07
  A 0.70 0.70 0.0 0 0 237.28 205.70
  L 237.05 209.26
  A 0.91 0.90 -8.8 0 0 238.28 210.16
  C 241.27 209.01 244.35 210.30 247.19 211.28
  A 0.79 0.79 0.0 0 0 248.23 210.45
  Q 248.10 209.26 248.37 208.10
  Q 248.65 206.90 249.02 208.07
  Q 250.16 211.65 247.36 213.62
  Q 246.78 214.02 246.11 213.83
  L 238.10 211.55
  A 0.65 0.65 0.0 0 0 237.28 212.18
  L 237.35 215.81
  A 0.95 0.94 77.6 0 0 238.67 216.66
  C 241.28 215.51 244.93 216.98 247.51 217.86
  A 0.60 0.60 0.0 0 0 248.31 217.22
  L 248.03 214.79
  Q 248.01 214.58 248.20 214.49
  L 248.65 214.27
  Q 249.26 213.98 249.24 214.65
  L 249.19 218.05
  Q 249.18 218.68 248.71 219.10
  L 247.97 219.76
  Q 246.64 220.59 245.50 220.24
  Q 236.47 217.42 227.54 215.07
  Q 226.61 214.82 227.16 214.04
  Q 227.53 213.52 228.05 213.17
  Q 228.50 212.86 228.45 212.32
  Q 228.26 210.12 227.42 208.19
  Q 227.23 207.74 227.37 207.28
  Q 227.47 206.95 227.76 206.76
  Q 228.20 206.47 228.19 205.94
  Q 228.16 203.67 227.41 201.54
  Q 227.25 201.08 227.40 200.61
  L 228.42 197.41
  L 229.09 199.42
  Q 229.24 199.85 229.69 199.95
  L 235.14 201.09
  Q 236.42 201.35 236.51 200.05
  L 236.54 199.59
  Q 236.61 198.47 235.60 197.99
  Q 231.41 196.00 228.26 196.74
  Q 227.34 196.04 227.26 195.25
  Q 227.10 193.63 228.33 193.85
  L 235.64 192.29
  Q 236.79 192.04 235.72 191.55
  Q 232.53 190.08 228.71 189.94
  Q 227.68 189.53 227.21 188.76
  A 0.87 0.87 0.0 0 1 227.71 187.47
  L 245.78 182.21
  A 5.40 5.36 45.2 0 1 248.86 182.23
  L 267.04 187.81
  Z
  M 238.2149 196.6899
  A 2.48 0.61 97.3 0 0 239.1351 194.3075
  A 2.48 0.61 97.3 0 0 238.8451 191.7701
  A 2.48 0.61 97.3 0 0 237.9249 194.1525
  A 2.48 0.61 97.3 0 0 238.2149 196.6899
  Z
  M 229.23 203.44
  L 228.69 205.65
  A 0.66 0.66 0.0 0 0 229.17 206.45
  L 233.76 207.57
  A 2.34 1.18 13.7 0 0 236.31 206.98
  L 236.61 205.77
  A 2.34 1.18 13.7 0 0 234.61 204.07
  L 230.03 202.95
  A 0.66 0.66 0.0 0 0 229.23 203.44
  Z
  M 235.40 214.16
  A 1.04 1.04 0.0 0 0 236.56 212.82
  L 236.16 211.57
  A 1.04 1.04 0.0 0 0 235.49 210.90
  L 230.31 209.23
  A 1.04 1.04 0.0 0 0 228.96 210.15
  L 228.82 212.11
  A 1.04 1.04 0.0 0 0 229.68 213.21
  L 235.40 214.16
  Z"
/>
<path d="
  M 228.67 190.42
  Q 229.53 190.77 229.58 191.25
  Q 229.73 192.64 228.31 192.83
  Q 227.95 191.13 228.67 190.42
  Z"
/>
<ellipse cx="0.00" cy="0.00" transform="translate(264.47,192.54) rotate(92.5)" rx="1.52" ry="0.88"/>
<ellipse cx="0.00" cy="0.00" transform="translate(260.46,193.63) rotate(88.6)" rx="1.67" ry="0.92"/>
<path d="
  M 250.84 193.80
  L 255.93 192.39
  A 0.75 0.75 0.0 0 1 256.88 193.10
  L 256.93 196.59
  A 0.75 0.75 0.0 0 1 256.44 197.30
  L 251.37 199.15
  A 0.75 0.75 0.0 0 1 250.36 198.46
  L 250.29 194.53
  A 0.75 0.75 0.0 0 1 250.84 193.80
  Z"
/>
<ellipse cx="0.00" cy="0.00" transform="translate(265.19,198.85) rotate(93.5)" rx="2.00" ry="0.62"/>
<rect x="-0.60" y="-9.39" transform="translate(258.23,207.28) rotate(0.3)" width="1.20" height="18.78" rx="0.27"/>
<path d="
  M 253.13 201.06
  A 0.25 0.24 -64.9 0 1 253.28 201.49
  Q 252.75 201.97 251.97 201.67
  A 0.33 0.32 -34.3 0 1 252.09 201.04
  L 253.13 201.06
  Z"
/>
<ellipse cx="0.00" cy="0.00" transform="translate(255.55,202.53) rotate(91.2)" rx="0.88" ry="0.52"/>
<path d="
  M 263.55 206.41
  Q 264.07 206.34 264.46 206.00
  Q 264.93 205.61 264.74 205.02
  Q 264.62 204.64 264.74 204.22
  A 0.56 0.52 89.6 0 1 265.06 203.87
  Q 265.55 203.69 265.73 203.95
  Q 265.93 204.24 265.90 204.59
  Q 265.83 205.41 265.80 206.29
  A 0.68 0.67 -5.7 0 1 265.28 206.92
  Q 264.49 207.10 263.66 206.98
  A 0.93 0.92 -61.5 0 0 262.92 207.20
  Q 262.51 207.55 262.01 207.81
  Q 261.61 208.02 261.83 207.63
  L 262.38 206.66
  Q 262.61 206.25 262.39 205.82
  Q 262.22 205.50 262.31 205.13
  Q 262.41 204.70 262.67 205.05
  Q 262.93 205.41 262.92 205.85
  Q 262.89 206.51 263.55 206.41
  Z"
/>
<path d="
  M 262.48 213.01
  Q 262.32 214.09 261.28 214.42
  Q 260.73 214.60 261.05 214.12
  Q 261.77 213.04 261.60 211.67
  Q 261.53 211.15 261.95 211.47
  Q 263.30 212.49 264.30 210.96
  Q 264.67 210.40 265.29 210.26
  Q 265.88 210.12 265.88 210.72
  L 265.88 213.09
  Q 265.88 213.82 265.20 213.53
  Q 264.70 213.32 264.41 212.72
  A 1.02 1.02 0.0 0 0 262.48 213.01
  Z"
/>
<ellipse cx="0.00" cy="0.00" transform="translate(255.58,214.77) rotate(89.7)" rx="1.81" ry="0.69"/>
<path d="
  M 219.43 218.65
  C 230.32 241.32 258.46 247.93 277.75 230.86
  Q 278.54 230.16 279.29 230.90
  L 297.36 248.99
  A 0.55 0.55 0.0 0 1 297.34 249.79
  C 285.46 260.74 271.08 267.01 254.99 267.43
  Q 244.85 267.69 237.47 264.10
  C 220.17 255.68 212.93 237.30 218.48 218.85
  Q 218.55 218.63 218.73 218.49
  A 0.46 0.46 0.0 0 1 219.43 218.65
  Z"
/>
<path d="
  M 254.01 223.80
  L 254.09 224.32
  Q 254.16 224.76 253.77 224.96
  Q 253.59 225.06 253.37 225.04
  Q 252.82 225.01 252.85 224.46
  L 253.01 221.63
  Q 252.58 219.92 253.07 219.33
  Q 253.47 218.86 253.53 219.47
  L 254.01 223.80
  Z"
/>
<path d="
  M 248.48 220.75
  Q 248.83 220.62 249.12 220.73
  Q 249.38 220.82 249.48 221.16
  Q 249.64 221.68 249.60 222.26
  L 249.48 225.88
  A 0.52 0.50 -11.1 0 1 249.17 226.33
  L 248.78 226.49
  A 0.32 0.32 0.0 0 1 248.34 226.19
  L 248.48 220.75
  Z"
/>
<path d="
  M 175.20 292.29
  A 0.17 0.17 0.0 0 1 175.45 292.43
  Q 175.72 295.05 175.36 297.36
  Q 175.34 297.52 175.18 297.58
  C 167.46 300.61 158.92 297.76 158.38 288.47
  C 157.81 278.77 166.12 274.85 174.48 277.53
  Q 175.55 277.88 175.56 279.00
  L 175.58 282.00
  Q 175.59 283.21 174.53 282.64
  C 170.55 280.53 165.29 281.33 164.06 285.60
  Q 162.98 289.36 165.02 291.86
  Q 168.35 295.92 175.20 292.29
  Z"
/>
<path d="
  M 192.7891 298.9399
  A 11.20 10.66 89.8 0 1 182.0901 287.7772
  A 11.20 10.66 89.8 0 1 192.7109 276.5401
  A 11.20 10.66 89.8 0 1 203.4099 287.7028
  A 11.20 10.66 89.8 0 1 192.7891 298.9399
  Z
  M 197.7177 286.3157
  A 4.50 4.50 0.0 0 0 193.2414 281.7922
  L 192.4414 281.7880
  A 4.50 4.50 0.0 0 0 187.9179 286.2644
  L 187.9023 289.2443
  A 4.50 4.50 0.0 0 0 192.3786 293.7678
  L 193.1786 293.7720
  A 4.50 4.50 0.0 0 0 197.7021 289.2956
  L 197.7177 286.3157
  Z"
/>
<path d="
  M 246.95 281.65
  C 237.30 282.25 240.28 298.57 252.16 292.64
  Q 253.11 292.16 253.13 293.22
  L 253.20 296.28
  Q 253.23 297.43 252.14 297.81
  C 245.91 299.99 238.19 298.35 236.37 291.26
  C 233.57 280.40 243.35 273.69 252.91 278.03
  A 0.44 0.43 11.0 0 1 253.17 278.41
  Q 253.25 280.53 253.04 282.82
  Q 253.03 282.93 252.94 282.89
  Q 249.80 281.47 246.95 281.65
  Z"
/>
<path d="
  M 326.5467 298.9392
  A 11.19 10.63 89.3 0 1 315.7808 287.8799
  A 11.19 10.63 89.3 0 1 326.2733 276.5608
  A 11.19 10.63 89.3 0 1 337.0392 287.6201
  A 11.19 10.63 89.3 0 1 326.5467 298.9392
  Z
  M 331.4223 286.3834
  A 4.58 4.58 0.0 0 0 326.8824 281.7636
  L 326.1025 281.7568
  A 4.58 4.58 0.0 0 0 321.4827 286.2967
  L 321.4577 289.1566
  A 4.58 4.58 0.0 0 0 325.9976 293.7764
  L 326.7775 293.7832
  A 4.58 4.58 0.0 0 0 331.3973 289.2433
  L 331.4223 286.3834
  Z"
/>
<path d="
  M 215.57 288.50
  L 215.82 297.20
  A 1.08 1.08 0.0 0 1 214.80 298.31
  L 211.36 298.51
  Q 210.41 298.57 210.41 297.61
  L 210.42 277.75
  A 0.67 0.66 -5.9 0 1 210.96 277.10
  Q 213.01 276.70 215.14 277.46
  Q 215.63 277.64 215.93 278.06
  L 222.51 287.32
  Q 223.70 288.98 223.67 286.94
  L 223.54 278.27
  A 1.14 1.14 0.0 0 1 224.73 277.11
  L 227.78 277.24
  Q 228.77 277.29 228.77 278.28
  L 228.77 297.53
  Q 228.77 298.15 228.15 298.25
  Q 226.03 298.57 224.13 298.09
  A 1.54 1.53 -10.1 0 1 223.23 297.47
  L 216.58 288.16
  Q 215.51 286.66 215.57 288.50
  Z"
/>
<path d="
  M 265.88 282.58
  L 265.90 284.74
  A 0.68 0.68 0.0 0 0 266.58 285.42
  L 273.76 285.38
  A 0.68 0.68 0.0 0 1 274.44 286.06
  L 274.47 289.39
  A 0.68 0.68 0.0 0 1 273.78 290.07
  L 266.63 289.98
  A 0.68 0.68 0.0 0 0 265.94 290.66
  L 265.94 293.03
  A 0.68 0.68 0.0 0 0 266.63 293.71
  L 274.34 293.59
  A 0.68 0.68 0.0 0 1 275.03 294.23
  L 275.22 297.54
  A 0.68 0.68 0.0 0 1 274.54 298.26
  L 261.19 298.32
  A 0.68 0.68 0.0 0 1 260.51 297.64
  L 260.50 277.82
  A 0.68 0.68 0.0 0 1 261.18 277.14
  L 274.43 277.22
  A 0.68 0.68 0.0 0 1 275.10 277.92
  L 274.97 281.37
  A 0.68 0.68 0.0 0 1 274.28 282.02
  L 266.57 281.90
  A 0.68 0.68 0.0 0 0 265.88 282.58
  Z"
/>
<path d="
  M 304.40 282.72
  L 304.36 297.52
  A 0.79 0.79 0.0 0 1 303.57 298.31
  L 299.97 298.29
  A 0.79 0.79 0.0 0 1 299.18 297.50
  L 299.24 282.83
  A 0.79 0.79 0.0 0 0 298.45 282.04
  L 294.34 282.01
  A 0.79 0.79 0.0 0 1 293.55 281.22
  L 293.57 277.90
  A 0.79 0.79 0.0 0 1 294.36 277.11
  L 309.49 277.18
  A 0.79 0.79 0.0 0 1 310.27 278.03
  L 310.03 281.26
  A 0.79 0.79 0.0 0 1 309.23 281.99
  L 305.20 281.93
  A 0.79 0.79 0.0 0 0 304.40 282.72
  Z"
/>
<rect x="282.04" y="277.23" width="5.24" height="21.10" rx="0.56"/>
<rect x="-0.54" y="-4.34" transform="translate(266.52,310.32) rotate(4.2)" width="1.08" height="8.68" rx="0.49"/>
<path d="
  M 173.94 310.49
  C 172.85 313.54 175.72 313.33 177.49 313.71
  Q 177.85 313.78 177.73 314.13
  L 177.63 314.42
  Q 177.53 314.72 177.21 314.75
  Q 172.17 315.25 172.65 310.94
  Q 173.03 307.43 177.39 308.19
  Q 177.78 308.26 177.69 308.64
  L 177.61 308.96
  Q 177.57 309.15 177.37 309.14
  C 176.09 309.11 174.47 309.00 173.94 310.49
  Z"
/>
<path d="
  M 191.0178 314.8514
  A 3.50 3.34 79.5 0 1 187.0959 312.0187
  A 3.50 3.34 79.5 0 1 189.7422 307.9686
  A 3.50 3.34 79.5 0 1 193.6641 310.8013
  A 3.50 3.34 79.5 0 1 191.0178 314.8514
  Z
  M 190.5674 313.6421
  A 2.24 1.86 85.2 0 0 192.2335 311.2544
  A 2.24 1.86 85.2 0 0 190.1926 309.1779
  A 2.24 1.86 85.2 0 0 188.5265 311.5656
  A 2.24 1.86 85.2 0 0 190.5674 313.6421
  Z"
/>
<path d="
  M 206.98 310.52
  Q 207.22 309.65 207.22 308.63
  Q 207.22 308.21 207.63 308.10
  L 208.00 308.01
  A 0.36 0.36 0.0 0 1 208.45 308.36
  L 208.53 314.04
  A 0.74 0.74 0.0 0 1 207.27 314.57
  Q 206.03 313.34 205.43 311.66
  A 0.38 0.38 0.0 0 0 204.75 311.58
  Q 204.21 312.44 204.30 313.50
  Q 204.32 313.79 204.16 314.01
  Q 202.78 315.91 202.87 313.53
  Q 202.96 310.96 203.02 308.50
  Q 203.04 307.46 203.84 308.13
  Q 204.93 309.03 205.72 310.64
  Q 206.52 312.25 206.98 310.52
  Z"
/>
<path d="
  M 218.06 309.22
  A 1.22 1.22 0.0 0 1 219.28 308.00
  L 220.76 308.01
  A 3.24 3.22 0.2 0 1 223.99 311.24
  L 223.99 311.60
  A 3.24 3.22 0.2 0 1 220.74 314.81
  L 219.26 314.80
  A 1.22 1.22 0.0 0 1 218.04 313.58
  L 218.06 309.22
  Z
  M 220.8285 313.7282
  A 2.28 1.67 92.3 0 0 222.5887 311.5170
  A 2.28 1.67 92.3 0 0 221.0115 309.1718
  A 2.28 1.67 92.3 0 0 219.2513 311.3830
  A 2.28 1.67 92.3 0 0 220.8285 313.7282
  Z"
/>
<path d="
  M 239.79 311.45
  A 3.41 3.41 0.0 0 1 236.38 314.86
  A 3.41 3.41 0.0 0 1 232.97 311.45
  A 3.41 3.41 0.0 0 1 236.38 308.04
  A 3.41 3.41 0.0 0 1 239.79 311.45
  Z
  M 236.6166 313.6522
  A 2.23 1.86 85.2 0 0 238.2835 311.2744
  A 2.23 1.86 85.2 0 0 236.2434 309.2078
  A 2.23 1.86 85.2 0 0 234.5765 311.5856
  A 2.23 1.86 85.2 0 0 236.6166 313.6522
  Z"
/>
<path d="
  M 254.15 312.47
  Q 253.96 312.95 253.86 313.46
  Q 253.76 313.94 253.37 314.24
  Q 252.74 314.71 252.09 314.41
  Q 251.53 314.16 251.52 313.54
  Q 251.52 312.48 251.13 311.47
  Q 250.88 310.82 250.57 311.44
  Q 250.01 312.59 249.96 313.82
  Q 249.94 314.43 249.33 314.45
  L 248.99 314.46
  Q 248.47 314.47 248.50 313.95
  L 248.80 308.91
  A 0.99 0.98 -86.5 0 1 249.84 307.98
  L 250.47 308.01
  A 0.71 0.70 90.0 0 1 251.14 308.69
  Q 251.21 310.06 251.84 311.34
  A 0.80 0.80 0.0 0 0 253.32 311.23
  L 254.24 308.41
  A 0.65 0.65 0.0 0 1 254.97 307.98
  L 255.25 308.02
  A 1.01 1.01 0.0 0 1 256.09 308.99
  L 256.21 314.25
  Q 256.22 314.45 256.04 314.55
  L 255.74 314.70
  Q 255.34 314.90 255.25 314.46
  L 254.86 312.54
  Q 254.61 311.37 254.15 312.47
  Z"
/>
<path d="
  M 278.62 311.33
  Q 277.84 312.54 277.60 314.58
  Q 277.58 314.69 277.48 314.72
  L 277.16 314.78
  A 0.52 0.52 0.0 0 1 276.54 314.28
  Q 276.50 311.60 276.70 308.80
  Q 276.73 308.36 277.09 308.12
  Q 277.35 307.94 277.64 308.01
  Q 278.12 308.13 278.33 308.57
  L 279.55 311.18
  Q 279.72 311.53 279.37 311.36
  L 279.08 311.21
  Q 278.80 311.07 278.62 311.33
  Z"
/>
<path d="
  M 280.05 312.34
  Q 280.94 310.53 281.10 308.54
  Q 281.13 308.12 281.54 308.12
  L 281.90 308.12
  A 0.40 0.40 0.0 0 1 282.30 308.52
  L 282.28 313.89
  Q 282.28 314.60 281.57 314.57
  Q 280.54 314.52 280.05 313.53
  A 1.37 1.35 45.5 0 1 280.05 312.34
  Z"
/>
<rect x="-0.67" y="-3.33" transform="translate(292.42,311.34) rotate(1.1)" width="1.34" height="6.66" rx="0.64"/>
<path d="
  M 309.10 311.43
  A 3.42 3.42 0.0 0 1 305.68 314.85
  A 3.42 3.42 0.0 0 1 302.26 311.43
  A 3.42 3.42 0.0 0 1 305.68 308.01
  A 3.42 3.42 0.0 0 1 309.10 311.43
  Z
  M 305.4497 313.7787
  A 2.36 1.84 95.6 0 0 307.5112 311.6096
  A 2.36 1.84 95.6 0 0 305.9103 309.0813
  A 2.36 1.84 95.6 0 0 303.8488 311.2504
  A 2.36 1.84 95.6 0 0 305.4497 313.7787
  Z"
/>
<path d="
  M 320.23 310.41
  C 324.76 312.15 321.71 316.39 318.33 314.56
  Q 318.05 314.40 318.07 314.07
  A 0.43 0.42 7.4 0 1 318.57 313.69
  Q 319.76 313.90 320.81 313.55
  Q 321.57 313.30 321.15 312.62
  Q 320.55 311.66 319.25 311.53
  Q 318.65 311.47 318.46 310.89
  Q 318.15 309.98 318.40 308.97
  A 1.05 1.04 0.9 0 1 319.18 308.22
  Q 320.50 307.92 321.86 308.03
  Q 322.18 308.06 322.26 308.37
  Q 322.32 308.62 321.92 308.76
  Q 321.68 308.84 321.43 308.88
  Q 320.56 309.01 320.03 309.63
  Q 319.57 310.16 320.23 310.41
  Z"
/>
</g>
<g fill="#a42d2f">
<path d="
  M 377.47 240.33
  A 127.49 127.49 0.0 0 1 249.98 367.82
  A 127.49 127.49 0.0 0 1 122.49 240.33
  A 127.49 127.49 0.0 0 1 249.98 112.84
  A 127.49 127.49 0.0 0 1 377.47 240.33
  Z
  M 191.71 186.56
  Q 188.59 197.32 189.66 209.63
  C 189.85 211.86 189.79 214.25 190.23 216.37
  Q 190.39 217.15 190.74 216.43
  C 191.86 214.10 192.21 211.61 193.12 209.25
  C 202.88 184.09 225.81 167.74 252.96 167.73
  C 262.46 167.72 270.72 170.95 277.66 177.18
  Q 278.56 177.98 279.40 177.13
  L 297.23 159.18
  A 0.64 0.64 0.0 0 0 297.22 158.27
  C 285.63 147.14 270.33 140.78 254.09 140.70
  Q 243.71 140.64 236.94 142.53
  C 215.26 148.59 198.06 164.61 191.71 186.56
  Z
  M 228.71 189.94
  Q 228.58 190.30 228.67 190.42
  Q 227.95 191.13 228.31 192.83
  L 228.33 193.85
  Q 227.10 193.63 227.26 195.25
  Q 227.34 196.04 228.26 196.74
  Q 228.42 197.14 228.42 197.41
  L 227.40 200.61
  Q 227.25 201.08 227.41 201.54
  Q 228.16 203.67 228.19 205.94
  Q 228.20 206.47 227.76 206.76
  Q 227.47 206.95 227.37 207.28
  Q 227.23 207.74 227.42 208.19
  Q 228.26 210.12 228.45 212.32
  Q 228.50 212.86 228.05 213.17
  Q 227.53 213.52 227.16 214.04
  Q 226.61 214.82 227.54 215.07
  Q 236.47 217.42 245.50 220.24
  Q 246.64 220.59 247.97 219.76
  L 248.48 220.75
  L 248.34 226.19
  A 0.32 0.32 0.0 0 0 248.78 226.49
  L 249.17 226.33
  A 0.52 0.50 -11.1 0 0 249.48 225.88
  L 249.60 222.26
  Q 249.64 221.65 250.34 221.68
  Q 250.68 221.70 250.87 221.42
  Q 251.31 220.78 253.01 221.63
  L 252.85 224.46
  Q 252.82 225.01 253.37 225.04
  Q 253.59 225.06 253.77 224.96
  Q 254.16 224.76 254.09 224.32
  L 254.01 223.80
  Q 259.37 223.90 264.55 221.98
  C 268.69 220.44 268.50 217.04 267.99 213.34
  Q 267.81 212.04 267.46 210.84
  Q 267.08 209.57 267.65 208.35
  A 3.39 3.35 46.6 0 0 267.71 205.63
  Q 266.48 202.64 267.61 199.16
  A 1.37 1.35 -46.7 0 0 267.59 198.31
  Q 267.11 196.95 267.52 195.56
  Q 267.65 195.13 267.37 194.77
  Q 267.03 194.33 267.10 193.73
  Q 267.33 191.68 267.04 187.81
  L 248.86 182.23
  A 5.40 5.36 45.2 0 0 245.78 182.21
  L 227.71 187.47
  A 0.87 0.87 0.0 0 0 227.21 188.76
  Q 227.68 189.53 228.71 189.94
  Z
  M 277.75 230.86
  C 258.46 247.93 230.32 241.32 219.43 218.65
  A 0.46 0.46 0.0 0 0 218.73 218.49
  Q 218.55 218.63 218.48 218.85
  C 212.93 237.30 220.17 255.68 237.47 264.10
  Q 244.85 267.69 254.99 267.43
  C 271.08 267.01 285.46 260.74 297.34 249.79
  A 0.55 0.55 0.0 0 0 297.36 248.99
  L 279.29 230.90
  Q 278.54 230.16 277.75 230.86
  Z
  M 175.20 292.29
  Q 168.35 295.92 165.02 291.86
  Q 162.98 289.36 164.06 285.60
  C 165.29 281.33 170.55 280.53 174.53 282.64
  Q 175.59 283.21 175.58 282.00
  L 175.56 279.00
  Q 175.55 277.88 174.48 277.53
  C 166.12 274.85 157.81 278.77 158.38 288.47
  C 158.92 297.76 167.46 300.61 175.18 297.58
  Q 175.34 297.52 175.36 297.36
  Q 175.72 295.05 175.45 292.43
  A 0.17 0.17 0.0 0 0 175.20 292.29
  Z
  M 192.7891 298.9399
  A 11.20 10.66 89.8 0 0 203.4099 287.7028
  A 11.20 10.66 89.8 0 0 192.7109 276.5401
  A 11.20 10.66 89.8 0 0 182.0901 287.7772
  A 11.20 10.66 89.8 0 0 192.7891 298.9399
  Z
  M 252.16 292.64
  C 240.28 298.57 237.30 282.25 246.95 281.65
  Q 249.80 281.47 252.94 282.89
  Q 253.03 282.93 253.04 282.82
  Q 253.25 280.53 253.17 278.41
  A 0.44 0.43 11.0 0 0 252.91 278.03
  C 243.35 273.69 233.57 280.40 236.37 291.26
  C 238.19 298.35 245.91 299.99 252.14 297.81
  Q 253.23 297.43 253.20 296.28
  L 253.13 293.22
  Q 253.11 292.16 252.16 292.64
  Z
  M 326.5467 298.9392
  A 11.19 10.63 89.3 0 0 337.0392 287.6201
  A 11.19 10.63 89.3 0 0 326.2733 276.5608
  A 11.19 10.63 89.3 0 0 315.7808 287.8799
  A 11.19 10.63 89.3 0 0 326.5467 298.9392
  Z
  M 215.57 288.50
  Q 215.51 286.66 216.58 288.16
  L 223.23 297.47
  A 1.54 1.53 -10.1 0 0 224.13 298.09
  Q 226.03 298.57 228.15 298.25
  Q 228.77 298.15 228.77 297.53
  L 228.77 278.28
  Q 228.77 277.29 227.78 277.24
  L 224.73 277.11
  A 1.14 1.14 0.0 0 0 223.54 278.27
  L 223.67 286.94
  Q 223.70 288.98 222.51 287.32
  L 215.93 278.06
  Q 215.63 277.64 215.14 277.46
  Q 213.01 276.70 210.96 277.10
  A 0.67 0.66 -5.9 0 0 210.42 277.75
  L 210.41 297.61
  Q 210.41 298.57 211.36 298.51
  L 214.80 298.31
  A 1.08 1.08 0.0 0 0 215.82 297.20
  L 215.57 288.50
  Z
  M 265.88 282.58
  A 0.68 0.68 0.0 0 1 266.57 281.90
  L 274.28 282.02
  A 0.68 0.68 0.0 0 0 274.97 281.37
  L 275.10 277.92
  A 0.68 0.68 0.0 0 0 274.43 277.22
  L 261.18 277.14
  A 0.68 0.68 0.0 0 0 260.50 277.82
  L 260.51 297.64
  A 0.68 0.68 0.0 0 0 261.19 298.32
  L 274.54 298.26
  A 0.68 0.68 0.0 0 0 275.22 297.54
  L 275.03 294.23
  A 0.68 0.68 0.0 0 0 274.34 293.59
  L 266.63 293.71
  A 0.68 0.68 0.0 0 1 265.94 293.03
  L 265.94 290.66
  A 0.68 0.68 0.0 0 1 266.63 289.98
  L 273.78 290.07
  A 0.68 0.68 0.0 0 0 274.47 289.39
  L 274.44 286.06
  A 0.68 0.68 0.0 0 0 273.76 285.38
  L 266.58 285.42
  A 0.68 0.68 0.0 0 1 265.90 284.74
  L 265.88 282.58
  Z
  M 304.40 282.72
  A 0.79 0.79 0.0 0 1 305.20 281.93
  L 309.23 281.99
  A 0.79 0.79 0.0 0 0 310.03 281.26
  L 310.27 278.03
  A 0.79 0.79 0.0 0 0 309.49 277.18
  L 294.36 277.11
  A 0.79 0.79 0.0 0 0 293.57 277.90
  L 293.55 281.22
  A 0.79 0.79 0.0 0 0 294.34 282.01
  L 298.45 282.04
  A 0.79 0.79 0.0 0 1 299.24 282.83
  L 299.18 297.50
  A 0.79 0.79 0.0 0 0 299.97 298.29
  L 303.57 298.31
  A 0.79 0.79 0.0 0 0 304.36 297.52
  L 304.40 282.72
  Z
  M 287.28 277.79
  A 0.56 0.56 0.0 0 0 286.72 277.23
  L 282.60 277.23
  A 0.56 0.56 0.0 0 0 282.04 277.79
  L 282.04 297.77
  A 0.56 0.56 0.0 0 0 282.60 298.33
  L 286.72 298.33
  A 0.56 0.56 0.0 0 0 287.28 297.77
  L 287.28 277.79
  Z
  M 267.3405 306.5199
  A 0.49 0.49 0.0 0 0 266.8877 305.9953
  L 266.7880 305.9880
  A 0.49 0.49 0.0 0 0 266.2634 306.4408
  L 265.6995 314.1201
  A 0.49 0.49 0.0 0 0 266.1523 314.6447
  L 266.2520 314.6520
  A 0.49 0.49 0.0 0 0 266.7766 314.1992
  L 267.3405 306.5199
  Z
  M 177.49 313.71
  C 175.72 313.33 172.85 313.54 173.94 310.49
  C 174.47 309.00 176.09 309.11 177.37 309.14
  Q 177.57 309.15 177.61 308.96
  L 177.69 308.64
  Q 177.78 308.26 177.39 308.19
  Q 173.03 307.43 172.65 310.94
  Q 172.17 315.25 177.21 314.75
  Q 177.53 314.72 177.63 314.42
  L 177.73 314.13
  Q 177.85 313.78 177.49 313.71
  Z
  M 191.0178 314.8514
  A 3.50 3.34 79.5 0 0 193.6641 310.8013
  A 3.50 3.34 79.5 0 0 189.7422 307.9686
  A 3.50 3.34 79.5 0 0 187.0959 312.0187
  A 3.50 3.34 79.5 0 0 191.0178 314.8514
  Z
  M 206.98 310.52
  Q 206.52 312.25 205.72 310.64
  Q 204.93 309.03 203.84 308.13
  Q 203.04 307.46 203.02 308.50
  Q 202.96 310.96 202.87 313.53
  Q 202.78 315.91 204.16 314.01
  Q 204.32 313.79 204.30 313.50
  Q 204.21 312.44 204.75 311.58
  A 0.38 0.38 0.0 0 1 205.43 311.66
  Q 206.03 313.34 207.27 314.57
  A 0.74 0.74 0.0 0 0 208.53 314.04
  L 208.45 308.36
  A 0.36 0.36 0.0 0 0 208.00 308.01
  L 207.63 308.10
  Q 207.22 308.21 207.22 308.63
  Q 207.22 309.65 206.98 310.52
  Z
  M 218.06 309.22
  L 218.04 313.58
  A 1.22 1.22 0.0 0 0 219.26 314.80
  L 220.74 314.81
  A 3.24 3.22 0.2 0 0 223.99 311.60
  L 223.99 311.24
  A 3.24 3.22 0.2 0 0 220.76 308.01
  L 219.28 308.00
  A 1.22 1.22 0.0 0 0 218.06 309.22
  Z
  M 239.79 311.45
  A 3.41 3.41 0.0 0 0 236.38 308.04
  A 3.41 3.41 0.0 0 0 232.97 311.45
  A 3.41 3.41 0.0 0 0 236.38 314.86
  A 3.41 3.41 0.0 0 0 239.79 311.45
  Z
  M 254.86 312.54
  L 255.25 314.46
  Q 255.34 314.90 255.74 314.70
  L 256.04 314.55
  Q 256.22 314.45 256.21 314.25
  L 256.09 308.99
  A 1.01 1.01 0.0 0 0 255.25 308.02
  L 254.97 307.98
  A 0.65 0.65 0.0 0 0 254.24 308.41
  L 253.32 311.23
  A 0.80 0.80 0.0 0 1 251.84 311.34
  Q 251.21 310.06 251.14 308.69
  A 0.71 0.70 90.0 0 0 250.47 308.01
  L 249.84 307.98
  A 0.99 0.98 -86.5 0 0 248.80 308.91
  L 248.50 313.95
  Q 248.47 314.47 248.99 314.46
  L 249.33 314.45
  Q 249.94 314.43 249.96 313.82
  Q 250.01 312.59 250.57 311.44
  Q 250.88 310.82 251.13 311.47
  Q 251.52 312.48 251.52 313.54
  Q 251.53 314.16 252.09 314.41
  Q 252.74 314.71 253.37 314.24
  Q 253.76 313.94 253.86 313.46
  Q 253.96 312.95 254.15 312.47
  Q 254.61 311.37 254.86 312.54
  Z
  M 279.08 311.21
  L 279.37 311.36
  Q 279.72 311.53 279.55 311.18
  L 278.33 308.57
  Q 278.12 308.13 277.64 308.01
  Q 277.35 307.94 277.09 308.12
  Q 276.73 308.36 276.70 308.80
  Q 276.50 311.60 276.54 314.28
  A 0.52 0.52 0.0 0 0 277.16 314.78
  L 277.48 314.72
  Q 277.58 314.69 277.60 314.58
  Q 277.84 312.54 278.62 311.33
  Q 278.80 311.07 279.08 311.21
  Z
  M 280.05 313.53
  Q 280.54 314.52 281.57 314.57
  Q 282.28 314.60 282.28 313.89
  L 282.30 308.52
  A 0.40 0.40 0.0 0 0 281.90 308.12
  L 281.54 308.12
  Q 281.13 308.12 281.10 308.54
  Q 280.94 310.53 280.05 312.34
  A 1.37 1.35 45.5 0 0 280.05 313.53
  Z
  M 293.1415 308.6634
  A 0.64 0.64 0.0 0 0 292.5139 308.0112
  L 292.4539 308.0100
  A 0.64 0.64 0.0 0 0 291.8018 308.6376
  L 291.6985 314.0166
  A 0.64 0.64 0.0 0 0 292.3261 314.6688
  L 292.3861 314.6700
  A 0.64 0.64 0.0 0 0 293.0382 314.0424
  L 293.1415 308.6634
  Z
  M 309.10 311.43
  A 3.42 3.42 0.0 0 0 305.68 308.01
  A 3.42 3.42 0.0 0 0 302.26 311.43
  A 3.42 3.42 0.0 0 0 305.68 314.85
  A 3.42 3.42 0.0 0 0 309.10 311.43
  Z
  M 320.03 309.63
  Q 320.56 309.01 321.43 308.88
  Q 321.68 308.84 321.92 308.76
  Q 322.32 308.62 322.26 308.37
  Q 322.18 308.06 321.86 308.03
  Q 320.50 307.92 319.18 308.22
  A 1.05 1.04 0.9 0 0 318.40 308.97
  Q 318.15 309.98 318.46 310.89
  Q 318.65 311.47 319.25 311.53
  Q 320.55 311.66 321.15 312.62
  Q 321.57 313.30 320.81 313.55
  Q 319.76 313.90 318.57 313.69
  A 0.43 0.42 7.4 0 0 318.07 314.07
  Q 318.05 314.40 318.33 314.56
  C 321.71 316.39 324.76 312.15 320.23 310.41
  Q 319.57 310.16 320.03 309.63
  Z"
/>
<rect x="-4.90" y="-5.99" transform="translate(192.81,287.78) rotate(0.3)" width="9.80" height="11.98" rx="4.50"/>
<rect x="-4.97" y="-6.01" transform="translate(326.44,287.77) rotate(0.5)" width="9.94" height="12.02" rx="4.58"/>
<ellipse cx="0.00" cy="0.00" transform="translate(305.68,311.43) rotate(95.6)" rx="2.36" ry="1.84"/>
<ellipse cx="0.00" cy="0.00" transform="translate(190.38,311.41) rotate(85.2)" rx="2.24" ry="1.86"/>
<ellipse cx="0.00" cy="0.00" transform="translate(220.92,311.45) rotate(92.3)" rx="2.28" ry="1.67"/>
<ellipse cx="0.00" cy="0.00" transform="translate(236.43,311.43) rotate(85.2)" rx="2.23" ry="1.86"/>
</g>
<g fill="#5f5552">
<path d="
  M 267.04 187.81
  Q 267.33 191.68 267.10 193.73
  Q 267.03 194.33 267.37 194.77
  Q 267.65 195.13 267.52 195.56
  Q 267.11 196.95 267.59 198.31
  A 1.37 1.35 -46.7 0 1 267.61 199.16
  Q 266.48 202.64 267.71 205.63
  A 3.39 3.35 46.6 0 1 267.65 208.35
  Q 267.08 209.57 267.46 210.84
  Q 267.81 212.04 267.99 213.34
  C 268.50 217.04 268.69 220.44 264.55 221.98
  Q 259.37 223.90 254.01 223.80
  L 253.53 219.47
  Q 253.47 218.86 253.07 219.33
  Q 252.58 219.92 253.01 221.63
  Q 251.31 220.78 250.87 221.42
  Q 250.68 221.70 250.34 221.68
  Q 249.64 221.65 249.60 222.26
  Q 249.64 221.68 249.48 221.16
  Q 249.38 220.82 249.12 220.73
  Q 248.83 220.62 248.48 220.75
  L 247.97 219.76
  L 248.71 219.10
  Q 249.18 218.68 249.19 218.05
  L 249.24 214.65
  Q 249.26 213.98 248.65 214.27
  L 248.20 214.49
  Q 248.01 214.58 248.03 214.79
  L 248.31 217.22
  A 0.60 0.60 0.0 0 1 247.51 217.86
  C 244.93 216.98 241.28 215.51 238.67 216.66
  A 0.95 0.94 77.6 0 1 237.35 215.81
  L 237.28 212.18
  A 0.65 0.65 0.0 0 1 238.10 211.55
  L 246.11 213.83
  Q 246.78 214.02 247.36 213.62
  Q 250.16 211.65 249.02 208.07
  Q 248.65 206.90 248.37 208.10
  Q 248.10 209.26 248.23 210.45
  A 0.79 0.79 0.0 0 1 247.19 211.28
  C 244.35 210.30 241.27 209.01 238.28 210.16
  A 0.91 0.90 -8.8 0 1 237.05 209.26
  L 237.28 205.70
  A 0.70 0.70 0.0 0 1 238.17 205.07
  Q 241.76 206.06 245.41 207.15
  Q 247.69 207.83 248.97 205.93
  C 249.70 204.86 249.47 203.40 249.43 202.17
  Q 249.41 201.40 248.69 201.13
  Q 248.22 200.95 248.10 201.45
  Q 247.78 202.75 248.22 204.17
  A 0.50 0.50 0.0 0 1 247.60 204.80
  C 244.93 204.05 240.80 202.30 238.31 203.92
  A 0.60 0.60 0.0 0 1 237.39 203.46
  L 237.12 199.61
  A 0.85 0.85 0.0 0 1 238.18 198.73
  L 246.37 200.86
  A 1.88 1.88 0.0 0 0 248.72 198.99
  L 248.61 195.59
  A 1.08 1.08 0.0 0 0 248.07 194.69
  L 247.64 194.44
  Q 246.52 193.81 247.76 193.45
  L 267.04 187.81
  Z
  M 264.4037 194.0586
  A 1.52 0.88 92.5 0 0 265.3492 192.5784
  A 1.52 0.88 92.5 0 0 264.5363 191.0214
  A 1.52 0.88 92.5 0 0 263.5908 192.5016
  A 1.52 0.88 92.5 0 0 264.4037 194.0586
  Z
  M 260.5008 195.2995
  A 1.67 0.92 88.6 0 0 261.3797 193.6075
  A 1.67 0.92 88.6 0 0 260.4192 191.9605
  A 1.67 0.92 88.6 0 0 259.5403 193.6525
  A 1.67 0.92 88.6 0 0 260.5008 195.2995
  Z
  M 250.84 193.80
  A 0.75 0.75 0.0 0 0 250.29 194.53
  L 250.36 198.46
  A 0.75 0.75 0.0 0 0 251.37 199.15
  L 256.44 197.30
  A 0.75 0.75 0.0 0 0 256.93 196.59
  L 256.88 193.10
  A 0.75 0.75 0.0 0 0 255.93 192.39
  L 250.84 193.80
  Z
  M 265.0679 200.8463
  A 2.00 0.62 93.5 0 0 265.8088 198.8879
  A 2.00 0.62 93.5 0 0 265.3121 196.8537
  A 2.00 0.62 93.5 0 0 264.5712 198.8121
  A 2.00 0.62 93.5 0 0 265.0679 200.8463
  Z
  M 258.8777 198.1633
  A 0.27 0.27 0.0 0 0 258.6092 197.8919
  L 257.9492 197.8884
  A 0.27 0.27 0.0 0 0 257.6778 198.1570
  L 257.5823 216.3967
  A 0.27 0.27 0.0 0 0 257.8508 216.6681
  L 258.5108 216.6716
  A 0.27 0.27 0.0 0 0 258.7822 216.4030
  L 258.8777 198.1633
  Z
  M 253.13 201.06
  L 252.09 201.04
  A 0.33 0.32 -34.3 0 0 251.97 201.67
  Q 252.75 201.97 253.28 201.49
  A 0.25 0.24 -64.9 0 0 253.13 201.06
  Z
  M 255.5316 203.4098
  A 0.88 0.52 91.2 0 0 256.0699 202.5409
  A 0.88 0.52 91.2 0 0 255.5684 201.6502
  A 0.88 0.52 91.2 0 0 255.0301 202.5191
  A 0.88 0.52 91.2 0 0 255.5316 203.4098
  Z
  M 262.92 205.85
  Q 262.93 205.41 262.67 205.05
  Q 262.41 204.70 262.31 205.13
  Q 262.22 205.50 262.39 205.82
  Q 262.61 206.25 262.38 206.66
  L 261.83 207.63
  Q 261.61 208.02 262.01 207.81
  Q 262.51 207.55 262.92 207.20
  A 0.93 0.92 -61.5 0 1 263.66 206.98
  Q 264.49 207.10 265.28 206.92
  A 0.68 0.67 -5.7 0 0 265.80 206.29
  Q 265.83 205.41 265.90 204.59
  Q 265.93 204.24 265.73 203.95
  Q 265.55 203.69 265.06 203.87
  A 0.56 0.52 89.6 0 0 264.74 204.22
  Q 264.62 204.64 264.74 205.02
  Q 264.93 205.61 264.46 206.00
  Q 264.07 206.34 263.55 206.41
  Q 262.89 206.51 262.92 205.85
  Z
  M 262.48 213.01
  A 1.02 1.02 0.0 0 1 264.41 212.72
  Q 264.70 213.32 265.20 213.53
  Q 265.88 213.82 265.88 213.09
  L 265.88 210.72
  Q 265.88 210.12 265.29 210.26
  Q 264.67 210.40 264.30 210.96
  Q 263.30 212.49 261.95 211.47
  Q 261.53 211.15 261.60 211.67
  Q 261.77 213.04 261.05 214.12
  Q 260.73 214.60 261.28 214.42
  Q 262.32 214.09 262.48 213.01
  Z
  M 255.5895 216.5800
  A 1.81 0.69 89.7 0 0 256.2700 214.7664
  A 1.81 0.69 89.7 0 0 255.5705 212.9600
  A 1.81 0.69 89.7 0 0 254.8900 214.7736
  A 1.81 0.69 89.7 0 0 255.5895 216.5800
  Z"
/>
<path d="
  M 228.71 189.94
  Q 232.53 190.08 235.72 191.55
  Q 236.79 192.04 235.64 192.29
  L 228.33 193.85
  L 228.31 192.83
  Q 229.73 192.64 229.58 191.25
  Q 229.53 190.77 228.67 190.42
  Q 228.58 190.30 228.71 189.94
  Z"
/>
<ellipse cx="0.00" cy="0.00" transform="translate(238.53,194.23) rotate(97.3)" rx="2.48" ry="0.61"/>
<path d="
  M 228.42 197.41
  Q 228.42 197.14 228.26 196.74
  Q 231.41 196.00 235.60 197.99
  Q 236.61 198.47 236.54 199.59
  L 236.51 200.05
  Q 236.42 201.35 235.14 201.09
  L 229.69 199.95
  Q 229.24 199.85 229.09 199.42
  L 228.42 197.41
  Z"
/>
<path d="
  M 229.23 203.44
  A 0.66 0.66 0.0 0 1 230.03 202.95
  L 234.61 204.07
  A 2.34 1.18 13.7 0 1 236.61 205.77
  L 236.31 206.98
  A 2.34 1.18 13.7 0 1 233.76 207.57
  L 229.17 206.45
  A 0.66 0.66 0.0 0 1 228.69 205.65
  L 229.23 203.44
  Z"
/>
<path d="
  M 235.40 214.16
  L 229.68 213.21
  A 1.04 1.04 0.0 0 1 228.82 212.11
  L 228.96 210.15
  A 1.04 1.04 0.0 0 1 230.31 209.23
  L 235.49 210.90
  A 1.04 1.04 0.0 0 1 236.16 211.57
  L 236.56 212.82
  A 1.04 1.04 0.0 0 1 235.40 214.16
  Z"
/>
</g>
</svg>
