<?xml version="1.0" encoding="UTF-8" standalone="no"?>
<!DOCTYPE svg PUBLIC "-//W3C//DTD SVG 1.1//EN" "http://www.w3.org/Graphics/SVG/1.1/DTD/svg11.dtd">
<svg xmlns="http://www.w3.org/2000/svg" version="1.1" viewBox="0.00 0.00 1280.00 559.00">
<g stroke-width="2.00" fill="none" stroke-linecap="butt">
<path stroke="#b32b27" vector-effect="non-scaling-stroke" d="
  M 667.17 59.57
  C 661.85 58.56 656.68 57.54 651.44 57.09
  C 642.66 56.33 633.90 54.96 624.87 54.81
  Q 606.41 54.50 592.47 55.92
  Q 576.43 57.56 560.91 61.60
  Q 543.75 66.07 533.73 70.09
  Q 518.12 76.36 507.45 81.98
  Q 500.89 85.43 492.58 91.13
  Q 485.89 95.72 479.35 100.02
  Q 471.77 105.00 465.51 110.95
  Q 455.70 120.25 445.83 130.04
  C 441.69 134.14 438.59 138.82 435.10 143.17
  Q 424.76 156.03 418.97 167.02
  C 415.20 174.18 410.97 181.41 407.85 188.51
  Q 401.66 202.57 398.34 213.70
  Q 395.26 224.07 392.17 237.70
  Q 391.41 241.07 390.98 244.16
  Q 387.30 270.71 389.10 297.26
  C 389.72 306.40 391.68 315.23 393.18 324.24
  Q 394.81 334.13 397.86 343.35
  Q 404.29 362.82 412.00 377.99
  Q 420.39 394.52 431.69 409.79
  C 434.99 414.24 437.73 419.01 441.42 423.09
  Q 449.55 432.07 456.54 439.16
  Q 463.49 446.21 473.30 453.00
  C 478.05 456.28 482.36 460.14 486.95 463.24
  Q 497.12 470.13 509.02 476.60
  C 513.52 479.04 518.34 480.96 522.91 483.30
  C 525.84 484.80 528.95 485.75 531.98 487.00
  C 537.76 489.39 543.52 490.98 549.54 492.91
  Q 555.07 494.69 559.88 495.84
  Q 565.19 497.12 570.47 498.67
  Q 572.00 499.12 573.55 499.37
  C 576.22 499.81 578.74 500.46 581.51 500.74
  Q 604.88 503.14 619.17 503.06
  Q 635.48 502.97 655.18 499.99
  C 663.27 498.76 671.84 497.08 679.53 494.69
  Q 687.05 492.35 695.64 489.52
  C 712.51 483.96 728.70 475.73 743.28 465.79
  C 749.47 461.56 755.93 458.20 761.46 453.55
  Q 775.42 441.80 791.46 424.55
  C 796.23 419.42 800.74 413.80 804.53 408.11
  Q 807.94 403.00 811.30 397.54
  C 814.05 393.06 817.41 388.80 819.64 384.16
  C 824.02 375.07 828.72 366.13 831.94 356.56
  C 833.16 352.92 835.08 349.92 836.07 346.13
  Q 838.95 334.98 841.94 322.94
  C 843.20 317.90 843.32 312.44 843.99 307.28
  Q 844.67 301.91 844.85 296.93
  Q 845.38 281.95 845.21 265.00
  C 845.17 259.98 844.36 255.16 844.03 250.41
  Q 843.29 239.96 841.83 234.22
  Q 839.37 224.52 836.25 213.00
  Q 834.63 207.02 832.51 202.09
  Q 827.03 189.32 820.15 175.16
  C 817.26 169.21 813.76 163.66 810.39 157.95
  Q 804.12 147.30 792.08 134.43
  C 790.72 132.98 789.64 131.28 788.25 129.88
  C 781.36 122.96 774.46 115.55 767.14 109.36
  Q 747.21 92.50 726.51 81.51
  Q 719.88 77.99 710.40 73.64
  Q 702.80 70.15 693.82 67.31
  Q 683.93 64.18 675.58 61.62
  Q 671.64 60.41 667.17 59.57"
/>
<path stroke="#d29697" vector-effect="non-scaling-stroke" d="
  M 631.00 145.87
  C 647.41 146.26 662.96 152.83 674.85 164.19
  A 0.96 0.95 -45.4 0 0 676.19 164.17
  L 709.86 130.41
  Q 710.92 129.34 709.81 128.31
  Q 671.93 93.10 620.07 96.33
  C 561.88 99.96 514.47 147.70 511.81 205.82
  Q 511.09 221.50 513.37 235.50
  Q 513.42 235.83 513.64 236.10
  A 0.46 0.46 0.0 0 0 514.45 235.92
  C 526.98 182.13 576.05 144.59 631.00 145.87"
/>
<path stroke="#804142" vector-effect="non-scaling-stroke" d="
  M 584.45 193.49
  Q 584.21 193.93 584.98 194.40"
/>
<path stroke="#d29697" vector-effect="non-scaling-stroke" d="
  M 584.98 194.40
  Q 583.39 194.62 581.75 194.53
  Q 581.20 194.50 580.77 194.77
  Q 580.24 195.11 580.40 195.71
  Q 580.55 196.25 581.04 196.55
  L 582.79 197.60
  A 1.06 1.06 0.0 0 1 583.30 198.45
  Q 583.50 201.98 582.42 205.47
  Q 582.22 206.12 581.62 206.44
  L 580.70 206.92
  A 0.75 0.75 0.0 0 0 580.82 208.31
  Q 582.92 208.98 582.91 211.04
  Q 582.91 213.99 583.31 217.33
  Q 583.39 217.98 582.76 218.12
  L 581.60 218.38
  Q 578.70 219.04 581.31 220.46
  L 582.25 220.97
  A 1.34 1.31 6.8 0 1 582.90 221.78
  Q 583.71 224.83 582.79 227.52
  Q 582.44 228.54 583.51 228.77"
/>
<path stroke="#804142" vector-effect="non-scaling-stroke" d="
  M 583.51 228.77
  Q 583.63 229.75 583.99 229.84"
/>
<path stroke="#d29697" vector-effect="non-scaling-stroke" d="
  M 583.99 229.84
  Q 582.13 230.09 580.67 230.93
  A 0.75 0.74 40.8 0 0 580.77 232.27
  L 583.46 233.32"
/>
<path stroke="#804142" vector-effect="non-scaling-stroke" d="
  M 583.46 233.32
  Q 583.52 234.65 582.99 234.71
  A 0.99 0.96 74.0 0 0 582.25 236.11
  Q 583.14 238.02 583.22 240.19
  C 583.38 244.37 588.67 245.02 591.56 246.33
  C 595.70 248.21 600.79 247.85 605.29 247.45
  C 607.99 247.21 609.56 245.42 612.11 244.94
  A 1.23 1.18 -75.5 0 0 612.86 244.48
  Q 613.17 244.08 613.67 243.96
  Q 614.21 243.84 614.27 243.28
  Q 614.35 242.52 615.08 242.32"
/>
<path stroke="#d29697" vector-effect="non-scaling-stroke" d="
  M 615.08 242.32
  Q 615.75 242.76 616.44 242.89
  Q 616.94 242.99 617.30 242.63
  L 618.95 241.00"
/>
<path stroke="#804142" vector-effect="non-scaling-stroke" d="
  M 618.95 241.00
  Q 620.41 242.53 620.00 242.80"
/>
<path stroke="#d29697" vector-effect="non-scaling-stroke" d="
  M 620.00 242.80
  L 620.01 253.60
  Q 620.01 254.23 620.62 254.10
  L 620.98 254.03
  Q 621.87 253.85 621.93 252.94
  L 622.30 246.69"
/>
<path stroke="#804142" vector-effect="non-scaling-stroke" d="
  M 622.30 246.69
  L 625.29 248.68
  Q 625.71 248.96 626.16 248.73
  Q 626.48 248.56 626.70 248.21
  Q 626.95 247.78 627.44 247.90
  Q 627.98 248.03 628.48 248.47"
/>
<path stroke="#d29697" vector-effect="non-scaling-stroke" d="
  M 628.48 248.47
  L 628.38 250.56
  A 0.89 0.88 -12.9 0 0 629.69 251.38
  Q 630.36 251.01 630.47 250.42"
/>
<path stroke="#804142" vector-effect="non-scaling-stroke" d="
  M 630.47 250.42
  Q 640.47 248.80 649.97 246.17
  C 653.74 245.13 656.06 243.84 656.09 239.70
  Q 656.12 233.36 655.97 226.68
  Q 655.93 224.79 655.57 222.90
  Q 655.14 220.67 655.52 217.81
  Q 655.99 214.35 655.40 210.80
  C 654.97 208.23 656.08 205.99 656.05 203.50
  Q 655.94 194.59 656.11 185.25
  Q 656.14 183.58 654.83 183.21"
/>
<path stroke="#d29697" vector-effect="non-scaling-stroke" d="
  M 654.83 183.21
  Q 654.74 182.33 652.75 181.75
  Q 636.40 176.97 620.72 172.61
  Q 617.99 171.86 615.48 172.55
  Q 599.52 176.98 582.87 182.05
  Q 581.57 182.44 580.56 183.27
  A 0.83 0.83 0.0 0 0 580.96 184.73
  Q 582.53 185.00 583.45 185.91
  Q 583.72 186.17 583.69 186.55
  L 583.16 192.67
  A 0.75 0.75 0.0 0 0 583.47 193.35
  Q 583.89 193.66 584.45 193.49"
/>
<path stroke="#adaaaa" vector-effect="non-scaling-stroke" d="
  M 654.83 183.21
  Q 651.45 183.84 648.25 184.76
  Q 635.04 188.51 621.84 192.27
  Q 619.98 192.80 617.97 193.93
  Q 617.51 194.19 617.44 194.70
  A 0.50 0.50 0.0 0 0 617.96 195.27
  L 619.69 195.19
  Q 620.83 195.14 620.77 196.28
  Q 620.55 199.99 621.03 203.81
  Q 621.16 204.80 620.17 204.85
  Q 618.98 204.92 617.97 206.47
  Q 617.44 207.28 616.51 207.01
  L 600.72 202.46
  Q 599.93 202.23 599.90 203.05
  L 599.64 211.38
  Q 599.62 212.00 600.23 212.02
  C 602.99 212.13 604.98 210.09 607.85 210.85
  Q 613.19 212.27 619.01 214.18
  A 0.78 0.77 -2.1 0 0 619.97 213.15
  Q 618.87 210.53 619.58 207.87
  C 619.82 206.99 620.93 206.59 621.69 206.93
  Q 622.17 207.14 622.17 207.65
  L 622.25 214.91
  A 1.66 1.65 -9.2 0 1 621.09 216.51
  Q 619.16 217.12 617.92 218.69
  A 0.91 0.90 26.7 0 1 616.97 219.00
  L 600.27 214.30
  A 0.54 0.54 0.0 0 0 599.58 214.85
  Q 599.81 219.19 599.39 223.72
  A 0.62 0.62 0.0 0 0 600.21 224.36
  C 602.96 223.42 605.76 222.50 608.71 223.26
  Q 613.80 224.56 618.50 226.08
  Q 620.23 226.64 619.97 224.84
  Q 619.63 222.51 619.76 220.20
  Q 619.82 219.25 620.72 218.98
  Q 621.00 218.90 621.30 218.93
  Q 621.83 218.99 621.84 219.52
  L 621.99 226.38
  A 1.56 1.55 -15.4 0 1 621.18 227.79
  L 619.13 228.92
  Q 618.52 229.25 618.26 229.88
  Q 618.01 230.48 617.55 230.91
  Q 617.16 231.27 616.66 231.11
  L 600.28 226.19
  Q 599.66 226.01 599.74 226.64
  Q 600.39 232.14 599.62 235.74
  Q 599.47 236.44 600.18 236.40
  C 600.75 236.36 601.37 236.25 601.87 235.97
  Q 605.15 234.16 607.73 234.89
  Q 612.87 236.34 618.79 238.22
  A 1.09 1.09 0.0 0 0 620.20 237.02
  L 619.55 232.72
  Q 619.39 231.63 620.33 231.05
  Q 620.45 230.98 620.57 230.93
  A 0.80 0.80 0.0 0 1 621.67 231.66
  L 621.76 238.77
  A 1.01 0.98 74.8 0 1 621.27 239.65
  L 618.95 241.00"
/>
<path stroke="#adaaaa" vector-effect="non-scaling-stroke" d="
  M 615.08 242.32
  L 583.46 233.32"
/>
<path stroke="#adaaaa" vector-effect="non-scaling-stroke" d="
  M 583.99 229.84
  Q 589.89 229.16 596.28 231.75
  A 1.25 1.25 0.0 0 0 598.00 230.60
  L 598.01 227.23
  Q 598.02 225.63 596.49 225.17
  L 585.80 221.98
  A 0.77 0.76 8.8 0 0 584.82 222.69
  C 584.78 224.27 585.26 227.88 583.51 228.77"
/>
<path stroke="#adaaaa" vector-effect="non-scaling-stroke" d="
  M 584.98 194.40
  L 597.68 190.63
  Q 599.51 190.09 597.68 189.58
  L 586.20 186.36
  A 0.70 0.70 0.0 0 0 585.31 187.03
  L 585.28 192.22
  Q 585.27 192.71 584.92 193.05
  L 584.45 193.49"
/>
<path stroke="#adaaaa" vector-effect="non-scaling-stroke" d="
  M 630.47 250.42
  L 630.04 240.57
  A 0.44 0.43 -87.6 0 0 629.67 240.16
  L 629.28 240.11
  A 0.63 0.62 -85.2 0 0 628.56 240.72
  L 628.48 248.47"
/>
<path stroke="#adaaaa" vector-effect="non-scaling-stroke" d="
  M 622.30 246.69
  Q 622.31 243.96 621.85 243.17
  Q 621.54 242.63 620.00 242.80"
/>
<path stroke="#d29697" vector-effect="non-scaling-stroke" d="
  M 572.55 299.31
  C 581.95 313.47 597.10 324.56 613.95 327.91
  Q 629.55 331.02 649.12 327.67
  Q 683.39 321.82 710.14 296.78
  Q 710.90 296.07 710.17 295.34
  L 675.78 260.93
  A 0.45 0.45 0.0 0 0 675.15 260.92
  C 650.15 284.62 611.25 286.09 584.94 263.47
  Q 573.04 253.24 566.91 239.46
  Q 566.13 237.71 565.52 239.53
  C 558.63 259.89 560.74 281.50 572.55 299.31"
/>
<path stroke="#d29697" vector-effect="non-scaling-stroke" d="
  M 464.79 370.40
  C 462.66 361.36 468.01 353.85 477.76 355.34
  Q 481.05 355.84 484.93 357.46
  Q 486.11 357.96 486.13 356.68
  L 486.22 349.84
  A 1.64 1.63 -79.1 0 0 485.18 348.30
  Q 476.42 344.87 467.99 347.35
  C 457.06 350.57 453.18 360.59 454.95 371.03
  Q 456.90 382.56 468.01 385.88
  Q 476.66 388.47 485.82 384.39
  Q 486.02 384.31 486.02 384.09
  L 486.08 375.33
  A 0.22 0.22 0.0 0 0 485.78 375.13
  Q 481.26 376.98 477.83 377.73
  C 472.28 378.94 466.19 376.31 464.79 370.40"
/>
<path stroke="#d29697" vector-effect="non-scaling-stroke" d="
  M 536.82 363.90
  A 17.38 17.38 0.0 0 0 519.44 346.52
  L 516.16 346.52
  A 17.38 17.38 0.0 0 0 498.78 363.90
  L 498.78 369.36
  A 17.38 17.38 0.0 0 0 516.16 386.74
  L 519.44 386.74
  A 17.38 17.38 0.0 0 0 536.82 369.36
  L 536.82 363.90"
/>
<path stroke="#d29697" vector-effect="non-scaling-stroke" d="
  M 612.99 356.28
  C 618.04 354.11 623.27 355.70 628.35 357.49
  A 0.48 0.47 9.9 0 0 628.98 357.05
  Q 629.01 353.81 629.02 350.17
  C 629.02 348.83 628.19 348.35 627.07 347.98
  C 615.47 344.13 601.97 346.98 598.17 359.81
  C 595.99 367.17 597.02 375.41 602.52 380.98
  C 609.02 387.57 618.87 388.10 627.17 384.98
  Q 629.00 384.29 629.01 382.32
  L 629.03 376.69
  Q 629.03 374.81 627.32 375.58
  C 622.48 377.76 615.89 379.30 611.38 376.07
  Q 607.82 373.51 607.30 368.84
  C 606.73 363.66 607.90 358.46 612.99 356.28"
/>
<path stroke="#d29697" vector-effect="non-scaling-stroke" d="
  M 782.6795 363.9263
  A 17.36 17.36 0.0 0 0 765.3802 346.5058
  L 762.1202 346.4944
  A 17.36 17.36 0.0 0 0 744.6997 363.7937
  L 744.6805 369.3137
  A 17.36 17.36 0.0 0 0 761.9798 386.7342
  L 765.2398 386.7456
  A 17.36 17.36 0.0 0 0 782.6603 369.4463
  L 782.6795 363.9263"
/>
<path stroke="#d29697" vector-effect="non-scaling-stroke" d="
  M 574.03 367.46
  Q 573.78 367.50 573.62 367.28
  Q 566.82 357.73 559.94 348.12
  A 2.31 2.29 -17.0 0 0 558.10 347.15
  L 551.13 347.04
  A 0.85 0.85 0.0 0 0 550.26 347.89
  L 550.27 385.51
  Q 550.27 386.25 551.01 386.23
  L 559.51 386.04
  Q 560.03 386.03 560.02 385.52
  Q 559.91 376.76 559.55 366.81
  Q 559.53 366.30 560.03 366.02
  A 0.58 0.58 0.0 0 1 560.79 366.19
  L 574.50 385.46
  Q 574.93 386.06 575.65 386.06
  L 583.52 386.09
  Q 584.14 386.09 584.14 385.48
  L 584.05 347.52
  Q 584.05 347.24 583.77 347.24
  L 574.92 347.14
  A 0.45 0.45 0.0 0 0 574.47 347.59
  L 574.42 367.01
  A 0.45 0.45 0.0 0 1 574.03 367.46"
/>
<path stroke="#d29697" vector-effect="non-scaling-stroke" d="
  M 652.91 362.23
  A 0.61 0.61 0.0 0 1 652.30 361.63
  L 652.24 356.51
  A 0.61 0.61 0.0 0 1 652.85 355.89
  L 668.38 355.91
  A 0.61 0.61 0.0 0 0 668.99 355.31
  L 669.13 347.80
  A 0.61 0.61 0.0 0 0 668.52 347.18
  L 643.14 347.20
  A 0.61 0.61 0.0 0 0 642.53 347.81
  L 642.51 385.42
  A 0.61 0.61 0.0 0 0 643.12 386.03
  L 668.52 386.08
  A 0.61 0.61 0.0 0 0 669.13 385.46
  L 669.06 377.93
  A 0.61 0.61 0.0 0 0 668.44 377.33
  L 652.95 377.57
  A 0.61 0.61 0.0 0 1 652.33 376.97
  L 652.22 371.37
  A 0.61 0.61 0.0 0 1 652.84 370.74
  L 667.38 370.83
  A 0.61 0.61 0.0 0 0 667.99 370.22
  L 668.02 362.90
  A 0.61 0.61 0.0 0 0 667.41 362.29
  L 652.91 362.23"
/>
<path stroke="#d29697" vector-effect="non-scaling-stroke" d="
  M 723.25 356.63
  A 0.68 0.68 0.0 0 1 723.93 355.96
  L 732.84 356.02
  A 0.68 0.68 0.0 0 0 733.52 355.34
  L 733.47 347.85
  A 0.68 0.68 0.0 0 0 732.79 347.18
  L 703.75 347.09
  A 0.68 0.68 0.0 0 0 703.07 347.79
  L 703.24 355.34
  A 0.68 0.68 0.0 0 0 703.93 356.01
  L 712.85 355.97
  A 0.68 0.68 0.0 0 1 713.53 356.65
  L 713.50 385.44
  A 0.68 0.68 0.0 0 0 714.19 386.12
  L 722.54 386.05
  A 0.68 0.68 0.0 0 0 723.21 385.37
  L 723.25 356.63"
/>
<path stroke="#d29697" vector-effect="non-scaling-stroke" d="
  M 691.7225 348.0485
  A 0.80 0.80 0.0 0 0 690.9239 347.2471
  L 682.8239 347.2330
  A 0.80 0.80 0.0 0 0 682.0225 348.0316
  L 681.9575 385.2715
  A 0.80 0.80 0.0 0 0 682.7561 386.0729
  L 690.8561 386.0870
  A 0.80 0.80 0.0 0 0 691.6575 385.2884
  L 691.7225 348.0485"
/>
<path stroke="#d29697" vector-effect="non-scaling-stroke" d="
  M 655.5231 400.4901
  A 1.65 0.96 -29.0 0 0 653.6146 400.4504
  A 1.65 0.96 -29.0 0 0 652.6369 402.0899
  A 1.65 0.96 -29.0 0 0 654.5454 402.1296
  A 1.65 0.96 -29.0 0 0 655.5231 400.4901"
/>
<path stroke="#d29697" vector-effect="non-scaling-stroke" d="
  M 519.3808 409.7620
  A 5.44 5.44 0.0 0 0 514.3640 403.9295
  L 513.2472 403.8455
  A 5.44 5.44 0.0 0 0 507.4146 408.8623
  L 507.2992 410.3980
  A 5.44 5.44 0.0 0 0 512.3160 416.2305
  L 513.4328 416.3145
  A 5.44 5.44 0.0 0 0 519.2654 411.2977
  L 519.3808 409.7620"
/>
<path stroke="#d29697" vector-effect="non-scaling-stroke" d="
  M 544.23 409.88
  Q 544.12 412.11 543.02 410.16
  Q 541.03 406.63 538.41 404.15
  A 1.13 1.13 0.0 0 0 536.50 404.97
  L 536.48 415.38
  Q 536.48 416.27 537.38 416.25
  L 537.89 416.23
  Q 538.73 416.21 538.75 415.36
  L 538.86 410.22
  Q 538.91 408.20 540.03 409.88
  Q 541.47 412.01 542.84 414.48
  Q 544.02 416.61 546.32 416.13
  Q 546.90 416.01 546.89 415.42
  L 546.73 405.05
  Q 546.72 404.14 545.82 403.98
  Q 545.15 403.85 544.58 404.51
  A 1.16 1.15 -25.2 0 0 544.29 405.30
  Q 544.34 407.72 544.23 409.88"
/>
<path stroke="#d29697" vector-effect="non-scaling-stroke" d="
  M 603.9369 409.4235
  A 5.39 5.39 0.0 0 0 598.6610 403.9218
  L 597.6612 403.9009
  A 5.39 5.39 0.0 0 0 592.1595 409.1768
  L 592.1231 410.9165
  A 5.39 5.39 0.0 0 0 597.3990 416.4182
  L 598.3988 416.4391
  A 5.39 5.39 0.0 0 0 603.9005 411.1632
  L 603.9369 409.4235"
/>
<path stroke="#d29697" vector-effect="non-scaling-stroke" d="
  M 654.2314 404.6819
  A 0.92 0.92 0.0 0 0 653.3309 403.7428
  L 653.1909 403.7399
  A 0.92 0.92 0.0 0 0 652.2518 404.6404
  L 652.0286 415.2981
  A 0.92 0.92 0.0 0 0 652.9291 416.2372
  L 653.0691 416.2401
  A 0.92 0.92 0.0 0 0 654.0082 415.3396
  L 654.2314 404.6819"
/>
<path stroke="#d29697" vector-effect="non-scaling-stroke" d="
  M 702.5357 405.1470
  A 1.29 1.29 0.0 0 0 701.2525 403.8503
  L 701.1725 403.8499
  A 1.29 1.29 0.0 0 0 699.8758 405.1331
  L 699.8243 414.9730
  A 1.29 1.29 0.0 0 0 701.1075 416.2697
  L 701.1875 416.2701
  A 1.29 1.29 0.0 0 0 702.4842 414.9869
  L 702.5357 405.1470"
/>
<path stroke="#d29697" vector-effect="non-scaling-stroke" d="
  M 731.71 410.16
  A 6.25 6.25 0.0 0 0 725.46 403.91
  A 6.25 6.25 0.0 0 0 719.21 410.16
  A 6.25 6.25 0.0 0 0 725.46 416.41
  A 6.25 6.25 0.0 0 0 731.71 410.16"
/>
<path stroke="#d29697" vector-effect="non-scaling-stroke" d="
  M 489.97 413.93
  C 486.05 414.84 482.38 413.88 482.99 409.56
  Q 483.69 404.63 489.76 406.40
  Q 490.56 406.63 490.45 405.80
  Q 490.34 404.98 489.68 404.47
  Q 489.26 404.14 488.73 404.09
  Q 479.53 403.25 480.83 411.90
  C 481.50 416.36 486.16 417.05 489.70 415.83
  Q 490.60 415.52 490.48 414.58
  L 490.45 414.27
  A 0.40 0.40 0.0 0 0 489.97 413.93"
/>
<path stroke="#d29697" vector-effect="non-scaling-stroke" d="
  M 564.54 404.93
  L 564.54 415.25
  A 1.00 1.00 0.0 0 0 565.54 416.25
  L 569.16 416.25
  A 5.88 5.77 0.0 0 0 575.04 410.48
  L 575.04 409.70
  A 5.88 5.77 -0.0 0 0 569.16 403.93
  L 565.54 403.93
  A 1.00 1.00 0.0 0 0 564.54 404.93"
/>
<path stroke="#d29697" vector-effect="non-scaling-stroke" d="
  M 632.53 408.56
  Q 632.70 408.60 632.68 408.76
  L 632.07 415.37
  Q 631.99 416.24 632.87 416.22
  L 633.79 416.21
  Q 634.52 416.20 634.52 415.46
  L 634.47 404.98
  Q 634.47 404.27 633.78 404.12
  Q 632.49 403.84 631.26 404.13
  A 0.97 0.97 0.0 0 0 630.58 404.76
  Q 629.40 408.26 628.39 411.69
  Q 628.33 411.90 628.12 411.97
  Q 627.51 412.19 627.29 411.57
  L 624.94 404.73
  Q 624.70 404.03 623.95 404.01
  L 621.41 403.94
  A 0.66 0.65 0.4 0 0 620.74 404.59
  L 620.79 415.41
  A 0.84 0.84 0.0 0 0 621.66 416.25
  L 622.24 416.23
  A 0.88 0.88 0.0 0 0 623.08 415.34
  Q 623.02 412.20 623.53 409.17
  Q 623.73 407.94 624.13 409.13
  L 626.28 415.50
  Q 626.45 416.00 626.94 416.17
  C 627.97 416.52 629.24 416.18 629.56 415.02
  Q 630.49 411.72 631.72 408.78
  A 0.48 0.47 17.2 0 1 632.27 408.50
  L 632.53 408.56"
/>
<path stroke="#d29697" vector-effect="non-scaling-stroke" d="
  M 680.24 410.53
  Q 680.25 412.37 679.20 410.87
  Q 677.17 407.99 675.35 405.38
  Q 674.32 403.91 672.80 404.01
  A 0.75 0.75 0.0 0 0 672.10 404.75
  L 671.99 415.35
  Q 671.98 416.23 672.85 416.22
  L 673.23 416.21
  A 1.18 1.18 0.0 0 0 674.40 415.01
  L 674.34 410.74
  Q 674.31 408.39 675.78 410.23
  Q 677.52 412.42 678.95 414.85
  C 679.56 415.89 680.85 416.53 682.04 416.13
  A 0.72 0.71 -10.1 0 0 682.53 415.44
  L 682.49 405.06
  Q 682.49 403.77 681.21 403.91
  Q 681.00 403.94 680.85 404.06
  Q 679.75 404.94 679.96 406.48
  Q 680.23 408.51 680.24 410.53"
/>
<path stroke="#d29697" vector-effect="non-scaling-stroke" d="
  M 753.37 414.32
  Q 751.19 414.50 749.02 413.72
  A 0.92 0.91 21.0 0 0 747.86 414.23
  L 747.74 414.52
  A 0.71 0.70 -66.6 0 0 748.10 415.44
  C 750.58 416.58 756.08 417.44 756.31 413.30
  C 756.53 409.47 753.62 409.23 751.04 407.74
  A 1.01 1.01 0.0 0 1 750.96 406.04
  Q 751.60 405.58 752.48 405.75
  Q 754.01 406.05 755.50 406.49
  A 0.35 0.35 0.0 0 0 755.94 406.23
  Q 756.34 404.49 753.32 403.97
  Q 753.05 403.93 752.79 403.91
  C 749.40 403.68 747.30 405.74 748.75 409.08
  Q 749.05 409.77 749.73 410.06
  C 751.17 410.67 754.58 411.61 754.14 413.66
  Q 754.00 414.28 753.37 414.32"
/>
<path stroke="#adaaaa" vector-effect="non-scaling-stroke" d="
  M 600.97 191.57
  C 601.04 193.50 601.51 196.68 599.91 198.04
  Q 599.24 198.62 600.12 198.66
  Q 602.09 198.74 602.77 197.71
  C 604.08 195.70 601.91 192.68 604.19 190.95
  Q 605.00 190.33 603.99 190.47
  L 601.61 190.80
  Q 600.94 190.90 600.97 191.57"
/>
<path stroke="#adaaaa" vector-effect="non-scaling-stroke" d="
  M 615.5452 192.3697
  A 1.91 0.39 -26.1 0 0 613.6584 192.8598
  A 1.91 0.39 -26.1 0 0 612.1148 194.0503
  A 1.91 0.39 -26.1 0 0 614.0016 193.5602
  A 1.91 0.39 -26.1 0 0 615.5452 192.3697"
/>
<path stroke="#adaaaa" vector-effect="non-scaling-stroke" d="
  M 597.44 201.71
  L 585.81 198.00
  A 0.53 0.53 0.0 0 0 585.12 198.46
  L 584.55 205.45
  Q 584.51 206.04 585.08 205.92
  C 589.47 205.02 593.19 206.59 597.20 208.00
  A 0.55 0.54 11.0 0 0 597.93 207.51
  L 598.13 202.70
  Q 598.17 201.94 597.44 201.71"
/>
<path stroke="#adaaaa" vector-effect="non-scaling-stroke" d="
  M 597.75 219.76
  A 0.33 0.33 0.0 0 0 598.14 219.41
  L 597.78 213.85
  A 0.33 0.33 0.0 0 0 597.54 213.56
  L 585.76 210.10
  A 0.33 0.33 0.0 0 0 585.34 210.37
  L 584.49 216.78
  A 0.33 0.33 0.0 0 0 584.75 217.15
  L 597.75 219.76"
/>
<path stroke="#adaaaa" vector-effect="non-scaling-stroke" d="
  M 592.3625 233.3562
  A 3.06 0.57 14.5 0 0 589.5427 232.0382
  A 3.06 0.57 14.5 0 0 586.4375 231.8238
  A 3.06 0.57 14.5 0 0 589.2573 233.1418
  A 3.06 0.57 14.5 0 0 592.3625 233.3562"
/>
<path stroke="#adaaaa" vector-effect="non-scaling-stroke" d="
  M 650.74 189.04
  A 0.85 0.85 0.0 0 0 649.42 188.37
  L 648.78 188.79
  A 0.85 0.85 0.0 0 0 648.40 189.46
  L 648.16 193.79
  A 0.85 0.85 0.0 0 0 649.46 194.55
  L 650.50 193.90
  A 0.85 0.85 0.0 0 0 650.89 193.15
  L 650.74 189.04"
/>
<path stroke="#adaaaa" vector-effect="non-scaling-stroke" d="
  M 644.03 191.42
  A 1.11 1.11 0.0 0 0 642.41 190.38
  L 641.52 190.84
  A 1.11 1.11 0.0 0 0 640.91 191.78
  L 640.76 195.41
  A 1.11 1.11 0.0 0 0 642.19 196.52
  L 643.04 196.27
  A 1.11 1.11 0.0 0 0 643.84 195.26
  L 644.03 191.42"
/>
<path stroke="#adaaaa" vector-effect="non-scaling-stroke" d="
  M 623.95 194.01
  A 0.48 0.48 0.0 0 0 623.61 194.48
  L 623.73 203.36
  A 0.48 0.48 0.0 0 0 624.35 203.81
  L 635.42 200.33
  A 0.48 0.48 0.0 0 0 635.76 199.87
  L 635.70 191.29
  A 0.48 0.48 0.0 0 0 635.09 190.83
  L 623.95 194.01"
/>
<path stroke="#adaaaa" vector-effect="non-scaling-stroke" d="
  M 651.04 201.95
  Q 651.61 203.93 650.54 205.04
  Q 649.15 206.50 648.81 204.52
  L 648.46 202.46
  Q 648.31 201.60 648.01 202.42
  C 647.40 204.07 647.86 206.53 650.01 206.68
  A 1.20 1.18 -65.5 0 0 650.95 206.32
  Q 652.66 204.56 652.25 201.51
  A 1.64 1.63 -0.4 0 0 650.82 200.11
  Q 648.54 199.83 648.24 201.05
  Q 648.01 201.94 648.77 201.41
  Q 649.47 200.93 650.26 201.16
  A 1.15 1.14 0.5 0 1 651.04 201.95"
/>
<path stroke="#adaaaa" vector-effect="non-scaling-stroke" d="
  M 640.49 201.41
  Q 640.76 201.04 640.31 201.12
  C 638.85 201.38 637.00 202.40 637.00 204.11
  Q 636.98 219.95 637.00 234.90
  Q 637.00 236.00 638.10 236.02
  Q 638.29 236.02 638.48 235.96
  Q 639.07 235.78 639.07 235.17
  Q 639.06 220.47 639.02 206.02
  Q 639.01 203.47 640.49 201.41"
/>
<path stroke="#adaaaa" vector-effect="non-scaling-stroke" d="
  M 645.7638 201.8312
  A 0.99 0.58 -19.4 0 0 644.6373 201.6129
  A 0.99 0.58 -19.4 0 0 643.8962 202.4888
  A 0.99 0.58 -19.4 0 0 645.0227 202.7071
  A 0.99 0.58 -19.4 0 0 645.7638 201.8312"
/>
<path stroke="#adaaaa" vector-effect="non-scaling-stroke" d="
  M 634.4182 205.5718
  A 1.29 0.89 -33.3 0 0 632.8514 205.5361
  A 1.29 0.89 -33.3 0 0 632.2618 206.9882
  A 1.29 0.89 -33.3 0 0 633.8286 207.0239
  A 1.29 0.89 -33.3 0 0 634.4182 205.5718"
/>
<path stroke="#adaaaa" vector-effect="non-scaling-stroke" d="
  M 628.67 208.33
  A 0.76 0.75 -1.4 0 0 629.21 207.77
  Q 629.36 207.09 628.80 206.78
  Q 628.49 206.60 628.14 206.73
  Q 626.74 207.22 625.92 208.41
  Q 625.42 209.16 626.29 208.93
  L 628.67 208.33"
/>
<path stroke="#adaaaa" vector-effect="non-scaling-stroke" d="
  M 645.8266 207.4225
  A 1.14 0.51 -4.4 0 0 644.6509 207.0015
  A 1.14 0.51 -4.4 0 0 643.5534 207.5975
  A 1.14 0.51 -4.4 0 0 644.7291 208.0185
  A 1.14 0.51 -4.4 0 0 645.8266 207.4225"
/>
<path stroke="#adaaaa" vector-effect="non-scaling-stroke" d="
  M 632.6313 211.1940
  A 1.32 1.19 110.8 0 0 634.2124 210.3826
  A 1.32 1.19 110.8 0 0 633.5687 208.7260
  A 1.32 1.19 110.8 0 0 631.9876 209.5374
  A 1.32 1.19 110.8 0 0 632.6313 211.1940"
/>
<path stroke="#adaaaa" vector-effect="non-scaling-stroke" d="
  M 629.4412 210.9606
  A 1.87 0.71 -33.4 0 0 627.4892 211.3973
  A 1.87 0.71 -33.4 0 0 626.3188 213.0194
  A 1.87 0.71 -33.4 0 0 628.2708 212.5827
  A 1.87 0.71 -33.4 0 0 629.4412 210.9606"
/>
<path stroke="#adaaaa" vector-effect="non-scaling-stroke" d="
  M 647.96 217.44
  A 1.15 1.15 0.0 0 0 649.35 218.49
  L 651.03 218.12
  A 1.15 1.15 0.0 0 0 651.94 217.08
  L 652.18 213.27
  A 1.15 1.15 0.0 0 0 650.73 212.08
  L 648.59 212.68
  A 1.15 1.15 0.0 0 0 647.75 213.86
  L 647.96 217.44"
/>
<path stroke="#adaaaa" vector-effect="non-scaling-stroke" d="
  M 644.08 214.84
  A 0.68 0.68 0.0 0 1 645.18 215.21
  Q 645.55 216.88 645.11 218.18
  Q 644.92 218.75 644.32 218.75
  L 643.06 218.76
  Q 642.82 218.76 642.86 219.00
  L 642.94 219.44
  A 0.46 0.46 0.0 0 0 643.30 219.80
  C 645.41 220.17 647.12 218.83 646.34 216.64
  Q 645.94 215.55 645.90 214.45
  Q 645.87 213.84 645.26 213.80
  Q 644.24 213.74 643.35 214.15
  A 0.46 0.46 0.0 0 0 643.49 215.02
  Q 643.81 215.07 644.08 214.84"
/>
<path stroke="#adaaaa" vector-effect="non-scaling-stroke" d="
  M 626.04 220.72
  L 628.51 220.33
  Q 629.05 220.24 629.15 219.71
  Q 629.24 219.16 628.83 218.77
  Q 628.55 218.52 628.19 218.61
  Q 626.60 219.00 625.72 220.20
  Q 625.25 220.84 626.04 220.72"
/>
<path stroke="#adaaaa" vector-effect="non-scaling-stroke" d="
  M 634.3093 222.2551
  A 1.28 0.74 -7.4 0 0 632.9447 221.6862
  A 1.28 0.74 -7.4 0 0 631.7707 222.5849
  A 1.28 0.74 -7.4 0 0 633.1353 223.1538
  A 1.28 0.74 -7.4 0 0 634.3093 222.2551"
/>
<path stroke="#adaaaa" vector-effect="non-scaling-stroke" d="
  M 629.05 223.30
  L 625.51 222.99
  A 0.14 0.14 0.0 0 0 625.35 223.12
  L 625.35 223.19
  A 1.76 1.41 4.9 0 0 626.98 224.74
  L 627.30 224.77
  A 1.76 1.41 4.9 0 0 629.17 223.52
  L 629.18 223.45
  A 0.14 0.14 0.0 0 0 629.05 223.30"
/>
<path stroke="#adaaaa" vector-effect="non-scaling-stroke" d="
  M 652.19 225.40
  A 1.12 1.12 0.0 0 0 650.80 224.23
  L 648.56 224.80
  A 1.12 1.12 0.0 0 0 647.73 226.03
  L 648.10 228.90
  A 1.12 1.12 0.0 0 0 649.18 229.88
  L 650.77 229.92
  A 1.12 1.12 0.0 0 0 651.92 228.89
  L 652.19 225.40"
/>
<path stroke="#adaaaa" vector-effect="non-scaling-stroke" d="
  M 643.68 227.09
  L 644.95 227.78
  Q 645.46 228.05 645.68 227.51
  Q 645.86 227.06 645.85 226.61
  A 0.93 0.93 0.0 0 0 644.88 225.71
  Q 644.26 225.74 643.72 225.97
  A 0.62 0.62 0.0 0 0 643.68 227.09"
/>
<path stroke="#adaaaa" vector-effect="non-scaling-stroke" d="
  M 634.6003 230.0101
  A 1.10 1.10 0.0 0 0 633.5797 228.8361
  L 633.3602 228.8207
  A 1.10 1.10 0.0 0 0 632.1862 229.8413
  L 631.8597 234.5099
  A 1.10 1.10 0.0 0 0 632.8803 235.6839
  L 633.0998 235.6993
  A 1.10 1.10 0.0 0 0 634.2738 234.6787
  L 634.6003 230.0101"
/>
<path stroke="#adaaaa" vector-effect="non-scaling-stroke" d="
  M 644.28 230.23
  Q 643.98 230.25 643.67 230.26
  Q 642.81 230.27 643.03 231.10
  Q 643.07 231.23 643.14 231.34
  Q 643.43 231.76 643.93 231.68
  Q 645.15 231.50 645.95 230.74
  Q 646.53 230.19 645.77 229.96
  Q 645.18 229.77 644.74 230.08
  Q 644.53 230.22 644.28 230.23"
/>
<path stroke="#adaaaa" vector-effect="non-scaling-stroke" d="
  M 629.5182 231.0053
  A 2.06 0.69 -16.2 0 0 627.3475 230.9174
  A 2.06 0.69 -16.2 0 0 625.5618 232.1547
  A 2.06 0.69 -16.2 0 0 627.7325 232.2426
  A 2.06 0.69 -16.2 0 0 629.5182 231.0053"
/>
<path stroke="#adaaaa" vector-effect="non-scaling-stroke" d="
  M 629.0785 235.5595
  A 1.71 0.77 -9.1 0 0 627.2682 235.0697
  A 1.71 0.77 -9.1 0 0 625.7015 236.1005
  A 1.71 0.77 -9.1 0 0 627.5118 236.5903
  A 1.71 0.77 -9.1 0 0 629.0785 235.5595"
/>
<path stroke="#adaaaa" vector-effect="non-scaling-stroke" d="
  M 648.58 214.28
  L 649.24 216.48
  A 0.43 0.43 0.0 0 0 649.78 216.77
  L 649.96 216.71
  A 1.88 1.43 -16.6 0 0 651.35 214.81
  L 651.27 214.52
  A 1.88 1.43 -16.6 0 0 649.05 213.69
  L 648.87 213.74
  A 0.43 0.43 0.0 0 0 648.58 214.28"
/>
<path stroke="#adaaaa" vector-effect="non-scaling-stroke" d="
  M 650.2474 228.5779
  A 1.62 1.24 83.0 0 0 651.2808 226.8189
  A 1.62 1.24 83.0 0 0 649.8526 225.3621
  A 1.62 1.24 83.0 0 0 648.8192 227.1211
  A 1.62 1.24 83.0 0 0 650.2474 228.5779"
/>
<path stroke="#d29697" vector-effect="non-scaling-stroke" d="
  M 526.9907 364.1033
  A 8.38 8.38 0.0 0 0 518.7433 355.5927
  L 517.3035 355.5701
  A 8.38 8.38 0.0 0 0 508.7929 363.8174
  L 508.7093 369.1367
  A 8.38 8.38 0.0 0 0 516.9567 377.6473
  L 518.3965 377.6699
  A 8.38 8.38 0.0 0 0 526.9071 369.4226
  L 526.9907 364.1033"
/>
<path stroke="#d29697" vector-effect="non-scaling-stroke" d="
  M 772.8118 363.9960
  A 8.44 8.44 0.0 0 0 764.3131 355.6151
  L 762.8332 355.6254
  A 8.44 8.44 0.0 0 0 754.4523 364.1242
  L 754.4882 369.2640
  A 8.44 8.44 0.0 0 0 762.9869 377.6449
  L 764.4668 377.6346
  A 8.44 8.44 0.0 0 0 772.8477 369.1358
  L 772.8118 363.9960"
/>
<path stroke="#d29697" vector-effect="non-scaling-stroke" d="
  M 513.5987 414.1619
  A 4.12 3.56 86.4 0 0 516.8930 409.8265
  A 4.12 3.56 86.4 0 0 513.0813 405.9381
  A 4.12 3.56 86.4 0 0 509.7870 410.2735
  A 4.12 3.56 86.4 0 0 513.5987 414.1619"
/>
<path stroke="#d29697" vector-effect="non-scaling-stroke" d="
  M 598.5164 414.2235
  A 4.12 3.70 83.5 0 0 601.7262 409.7111
  A 4.12 3.70 83.5 0 0 597.5836 406.0365
  A 4.12 3.70 83.5 0 0 594.3738 410.5489
  A 4.12 3.70 83.5 0 0 598.5164 414.2235"
/>
<path stroke="#d29697" vector-effect="non-scaling-stroke" d="
  M 725.6583 414.3074
  A 4.25 3.53 88.0 0 0 729.0378 409.9368
  A 4.25 3.53 88.0 0 0 725.3617 405.8126
  A 4.25 3.53 88.0 0 0 721.9822 410.1832
  A 4.25 3.53 88.0 0 0 725.6583 414.3074"
/>
<path stroke="#d29697" vector-effect="non-scaling-stroke" d="
  M 566.86 407.29
  L 566.72 412.83
  A 1.22 1.22 0.0 0 0 567.91 414.08
  L 568.94 414.10
  A 3.72 3.69 -88.6 0 0 572.72 410.47
  L 572.74 409.93
  A 3.72 3.69 -88.6 0 0 569.14 406.12
  L 568.11 406.10
  A 1.22 1.22 0.0 0 0 566.86 407.29"
/>
</g>
<path fill="#c1291e" d="
  M 0.00 0.00
  L 1280.00 0.00
  L 1280.00 559.00
  L 0.00 559.00
  L 0.00 0.00
  Z
  M 667.17 59.57
  C 661.85 58.56 656.68 57.54 651.44 57.09
  C 642.66 56.33 633.90 54.96 624.87 54.81
  Q 606.41 54.50 592.47 55.92
  Q 576.43 57.56 560.91 61.60
  Q 543.75 66.07 533.73 70.09
  Q 518.12 76.36 507.45 81.98
  Q 500.89 85.43 492.58 91.13
  Q 485.89 95.72 479.35 100.02
  Q 471.77 105.00 465.51 110.95
  Q 455.70 120.25 445.83 130.04
  C 441.69 134.14 438.59 138.82 435.10 143.17
  Q 424.76 156.03 418.97 167.02
  C 415.20 174.18 410.97 181.41 407.85 188.51
  Q 401.66 202.57 398.34 213.70
  Q 395.26 224.07 392.17 237.70
  Q 391.41 241.07 390.98 244.16
  Q 387.30 270.71 389.10 297.26
  C 389.72 306.40 391.68 315.23 393.18 324.24
  Q 394.81 334.13 397.86 343.35
  Q 404.29 362.82 412.00 377.99
  Q 420.39 394.52 431.69 409.79
  C 434.99 414.24 437.73 419.01 441.42 423.09
  Q 449.55 432.07 456.54 439.16
  Q 463.49 446.21 473.30 453.00
  C 478.05 456.28 482.36 460.14 486.95 463.24
  Q 497.12 470.13 509.02 476.60
  C 513.52 479.04 518.34 480.96 522.91 483.30
  C 525.84 484.80 528.95 485.75 531.98 487.00
  C 537.76 489.39 543.52 490.98 549.54 492.91
  Q 555.07 494.69 559.88 495.84
  Q 565.19 497.12 570.47 498.67
  Q 572.00 499.12 573.55 499.37
  C 576.22 499.81 578.74 500.46 581.51 500.74
  Q 604.88 503.14 619.17 503.06
  Q 635.48 502.97 655.18 499.99
  C 663.27 498.76 671.84 497.08 679.53 494.69
  Q 687.05 492.35 695.64 489.52
  C 712.51 483.96 728.70 475.73 743.28 465.79
  C 749.47 461.56 755.93 458.20 761.46 453.55
  Q 775.42 441.80 791.46 424.55
  C 796.23 419.42 800.74 413.80 804.53 408.11
  Q 807.94 403.00 811.30 397.54
  C 814.05 393.06 817.41 388.80 819.64 384.16
  C 824.02 375.07 828.72 366.13 831.94 356.56
  C 833.16 352.92 835.08 349.92 836.07 346.13
  Q 838.95 334.98 841.94 322.94
  C 843.20 317.90 843.32 312.44 843.99 307.28
  Q 844.67 301.91 844.85 296.93
  Q 845.38 281.95 845.21 265.00
  C 845.17 259.98 844.36 255.16 844.03 250.41
  Q 843.29 239.96 841.83 234.22
  Q 839.37 224.52 836.25 213.00
  Q 834.63 207.02 832.51 202.09
  Q 827.03 189.32 820.15 175.16
  C 817.26 169.21 813.76 163.66 810.39 157.95
  Q 804.12 147.30 792.08 134.43
  C 790.72 132.98 789.64 131.28 788.25 129.88
  C 781.36 122.96 774.46 115.55 767.14 109.36
  Q 747.21 92.50 726.51 81.51
  Q 719.88 77.99 710.40 73.64
  Q 702.80 70.15 693.82 67.31
  Q 683.93 64.18 675.58 61.62
  Q 671.64 60.41 667.17 59.57
  Z"
/>
<g fill="#ffffff">
<path d="
  M 674.85 164.19
  C 662.96 152.83 647.41 146.26 631.00 145.87
  C 576.05 144.59 526.98 182.13 514.45 235.92
  A 0.46 0.46 0.0 0 1 513.64 236.10
  Q 513.42 235.83 513.37 235.50
  Q 511.09 221.50 511.81 205.82
  C 514.47 147.70 561.88 99.96 620.07 96.33
  Q 671.93 93.10 709.81 128.31
  Q 710.92 129.34 709.86 130.41
  L 676.19 164.17
  A 0.96 0.95 -45.4 0 1 674.85 164.19
  Z"
/>
<path d="
  M 654.83 183.21
  Q 651.45 183.84 648.25 184.76
  Q 635.04 188.51 621.84 192.27
  Q 619.98 192.80 617.97 193.93
  Q 617.51 194.19 617.44 194.70
  A 0.50 0.50 0.0 0 0 617.96 195.27
  L 619.69 195.19
  Q 620.83 195.14 620.77 196.28
  Q 620.55 199.99 621.03 203.81
  Q 621.16 204.80 620.17 204.85
  Q 618.98 204.92 617.97 206.47
  Q 617.44 207.28 616.51 207.01
  L 600.72 202.46
  Q 599.93 202.23 599.90 203.05
  L 599.64 211.38
  Q 599.62 212.00 600.23 212.02
  C 602.99 212.13 604.98 210.09 607.85 210.85
  Q 613.19 212.27 619.01 214.18
  A 0.78 0.77 -2.1 0 0 619.97 213.15
  Q 618.87 210.53 619.58 207.87
  C 619.82 206.99 620.93 206.59 621.69 206.93
  Q 622.17 207.14 622.17 207.65
  L 622.25 214.91
  A 1.66 1.65 -9.2 0 1 621.09 216.51
  Q 619.16 217.12 617.92 218.69
  A 0.91 0.90 26.7 0 1 616.97 219.00
  L 600.27 214.30
  A 0.54 0.54 0.0 0 0 599.58 214.85
  Q 599.81 219.19 599.39 223.72
  A 0.62 0.62 0.0 0 0 600.21 224.36
  C 602.96 223.42 605.76 222.50 608.71 223.26
  Q 613.80 224.56 618.50 226.08
  Q 620.23 226.64 619.97 224.84
  Q 619.63 222.51 619.76 220.20
  Q 619.82 219.25 620.72 218.98
  Q 621.00 218.90 621.30 218.93
  Q 621.83 218.99 621.84 219.52
  L 621.99 226.38
  A 1.56 1.55 -15.4 0 1 621.18 227.79
  L 619.13 228.92
  Q 618.52 229.25 618.26 229.88
  Q 618.01 230.48 617.55 230.91
  Q 617.16 231.27 616.66 231.11
  L 600.28 226.19
  Q 599.66 226.01 599.74 226.64
  Q 600.39 232.14 599.62 235.74
  Q 599.47 236.44 600.18 236.40
  C 600.75 236.36 601.37 236.25 601.87 235.97
  Q 605.15 234.16 607.73 234.89
  Q 612.87 236.34 618.79 238.22
  A 1.09 1.09 0.0 0 0 620.20 237.02
  L 619.55 232.72
  Q 619.39 231.63 620.33 231.05
  Q 620.45 230.98 620.57 230.93
  A 0.80 0.80 0.0 0 1 621.67 231.66
  L 621.76 238.77
  A 1.01 0.98 74.8 0 1 621.27 239.65
  L 618.95 241.00
  L 617.30 242.63
  Q 616.94 242.99 616.44 242.89
  Q 615.75 242.76 615.08 242.32
  L 583.46 233.32
  L 580.77 232.27
  A 0.75 0.74 40.8 0 1 580.67 230.93
  Q 582.13 230.09 583.99 229.84
  Q 589.89 229.16 596.28 231.75
  A 1.25 1.25 0.0 0 0 598.00 230.60
  L 598.01 227.23
  Q 598.02 225.63 596.49 225.17
  L 585.80 221.98
  A 0.77 0.76 8.8 0 0 584.82 222.69
  C 584.78 224.27 585.26 227.88 583.51 228.77
  Q 582.44 228.54 582.79 227.52
  Q 583.71 224.83 582.90 221.78
  A 1.34 1.31 6.8 0 0 582.25 220.97
  L 581.31 220.46
  Q 578.70 219.04 581.60 218.38
  L 582.76 218.12
  Q 583.39 217.98 583.31 217.33
  Q 582.91 213.99 582.91 211.04
  Q 582.92 208.98 580.82 208.31
  A 0.75 0.75 0.0 0 1 580.70 206.92
  L 581.62 206.44
  Q 582.22 206.12 582.42 205.47
  Q 583.50 201.98 583.30 198.45
  A 1.06 1.06 0.0 0 0 582.79 197.60
  L 581.04 196.55
  Q 580.55 196.25 580.40 195.71
  Q 580.24 195.11 580.77 194.77
  Q 581.20 194.50 581.75 194.53
  Q 583.39 194.62 584.98 194.40
  L 597.68 190.63
  Q 599.51 190.09 597.68 189.58
  L 586.20 186.36
  A 0.70 0.70 0.0 0 0 585.31 187.03
  L 585.28 192.22
  Q 585.27 192.71 584.92 193.05
  L 584.45 193.49
  Q 583.89 193.66 583.47 193.35
  A 0.75 0.75 0.0 0 1 583.16 192.67
  L 583.69 186.55
  Q 583.72 186.17 583.45 185.91
  Q 582.53 185.00 580.96 184.73
  A 0.83 0.83 0.0 0 1 580.56 183.27
  Q 581.57 182.44 582.87 182.05
  Q 599.52 176.98 615.48 172.55
  Q 617.99 171.86 620.72 172.61
  Q 636.40 176.97 652.75 181.75
  Q 654.74 182.33 654.83 183.21
  Z
  M 600.97 191.57
  C 601.04 193.50 601.51 196.68 599.91 198.04
  Q 599.24 198.62 600.12 198.66
  Q 602.09 198.74 602.77 197.71
  C 604.08 195.70 601.91 192.68 604.19 190.95
  Q 605.00 190.33 603.99 190.47
  L 601.61 190.80
  Q 600.94 190.90 600.97 191.57
  Z
  M 615.5452 192.3697
  A 1.91 0.39 -26.1 0 0 613.6584 192.8598
  A 1.91 0.39 -26.1 0 0 612.1148 194.0503
  A 1.91 0.39 -26.1 0 0 614.0016 193.5602
  A 1.91 0.39 -26.1 0 0 615.5452 192.3697
  Z
  M 597.44 201.71
  L 585.81 198.00
  A 0.53 0.53 0.0 0 0 585.12 198.46
  L 584.55 205.45
  Q 584.51 206.04 585.08 205.92
  C 589.47 205.02 593.19 206.59 597.20 208.00
  A 0.55 0.54 11.0 0 0 597.93 207.51
  L 598.13 202.70
  Q 598.17 201.94 597.44 201.71
  Z
  M 597.75 219.76
  A 0.33 0.33 0.0 0 0 598.14 219.41
  L 597.78 213.85
  A 0.33 0.33 0.0 0 0 597.54 213.56
  L 585.76 210.10
  A 0.33 0.33 0.0 0 0 585.34 210.37
  L 584.49 216.78
  A 0.33 0.33 0.0 0 0 584.75 217.15
  L 597.75 219.76
  Z
  M 592.3625 233.3562
  A 3.06 0.57 14.5 0 0 589.5427 232.0382
  A 3.06 0.57 14.5 0 0 586.4375 231.8238
  A 3.06 0.57 14.5 0 0 589.2573 233.1418
  A 3.06 0.57 14.5 0 0 592.3625 233.3562
  Z"
/>
<path d="
  M 650.74 189.04
  L 650.89 193.15
  A 0.85 0.85 0.0 0 1 650.50 193.90
  L 649.46 194.55
  A 0.85 0.85 0.0 0 1 648.16 193.79
  L 648.40 189.46
  A 0.85 0.85 0.0 0 1 648.78 188.79
  L 649.42 188.37
  A 0.85 0.85 0.0 0 1 650.74 189.04
  Z"
/>
<path d="
  M 644.03 191.42
  L 643.84 195.26
  A 1.11 1.11 0.0 0 1 643.04 196.27
  L 642.19 196.52
  A 1.11 1.11 0.0 0 1 640.76 195.41
  L 640.91 191.78
  A 1.11 1.11 0.0 0 1 641.52 190.84
  L 642.41 190.38
  A 1.11 1.11 0.0 0 1 644.03 191.42
  Z"
/>
<path d="
  M 623.95 194.01
  L 635.09 190.83
  A 0.48 0.48 0.0 0 1 635.70 191.29
  L 635.76 199.87
  A 0.48 0.48 0.0 0 1 635.42 200.33
  L 624.35 203.81
  A 0.48 0.48 0.0 0 1 623.73 203.36
  L 623.61 194.48
  A 0.48 0.48 0.0 0 1 623.95 194.01
  Z"
/>
<path d="
  M 650.26 201.16
  Q 649.47 200.93 648.77 201.41
  Q 648.01 201.94 648.24 201.05
  Q 648.54 199.83 650.82 200.11
  A 1.64 1.63 -0.4 0 1 652.25 201.51
  Q 652.66 204.56 650.95 206.32
  A 1.20 1.18 -65.5 0 1 650.01 206.68
  C 647.86 206.53 647.40 204.07 648.01 202.42
  Q 648.31 201.60 648.46 202.46
  L 648.81 204.52
  Q 649.15 206.50 650.54 205.04
  Q 651.61 203.93 651.04 201.95
  A 1.15 1.14 0.5 0 0 650.26 201.16
  Z"
/>
<path d="
  M 640.49 201.41
  Q 639.01 203.47 639.02 206.02
  Q 639.06 220.47 639.07 235.17
  Q 639.07 235.78 638.48 235.96
  Q 638.29 236.02 638.10 236.02
  Q 637.00 236.00 637.00 234.90
  Q 636.98 219.95 637.00 204.11
  C 637.00 202.40 638.85 201.38 640.31 201.12
  Q 640.76 201.04 640.49 201.41
  Z"
/>
<ellipse cx="0.00" cy="0.00" transform="translate(644.83,202.16) rotate(-19.4)" rx="0.99" ry="0.58"/>
<ellipse cx="0.00" cy="0.00" transform="translate(633.34,206.28) rotate(-33.3)" rx="1.29" ry="0.89"/>
<path d="
  M 628.67 208.33
  L 626.29 208.93
  Q 625.42 209.16 625.92 208.41
  Q 626.74 207.22 628.14 206.73
  Q 628.49 206.60 628.80 206.78
  Q 629.36 207.09 629.21 207.77
  A 0.76 0.75 -1.4 0 1 628.67 208.33
  Z"
/>
<ellipse cx="0.00" cy="0.00" transform="translate(644.69,207.51) rotate(-4.4)" rx="1.14" ry="0.51"/>
<ellipse cx="0.00" cy="0.00" transform="translate(633.10,209.96) rotate(110.8)" rx="1.32" ry="1.19"/>
<ellipse cx="0.00" cy="0.00" transform="translate(627.88,211.99) rotate(-33.4)" rx="1.87" ry="0.71"/>
<path d="
  M 647.96 217.44
  L 647.75 213.86
  A 1.15 1.15 0.0 0 1 648.59 212.68
  L 650.73 212.08
  A 1.15 1.15 0.0 0 1 652.18 213.27
  L 651.94 217.08
  A 1.15 1.15 0.0 0 1 651.03 218.12
  L 649.35 218.49
  A 1.15 1.15 0.0 0 1 647.96 217.44
  Z
  M 648.58 214.28
  L 649.24 216.48
  A 0.43 0.43 0.0 0 0 649.78 216.77
  L 649.96 216.71
  A 1.88 1.43 -16.6 0 0 651.35 214.81
  L 651.27 214.52
  A 1.88 1.43 -16.6 0 0 649.05 213.69
  L 648.87 213.74
  A 0.43 0.43 0.0 0 0 648.58 214.28
  Z"
/>
<path d="
  M 644.08 214.84
  Q 643.81 215.07 643.49 215.02
  A 0.46 0.46 0.0 0 1 643.35 214.15
  Q 644.24 213.74 645.26 213.80
  Q 645.87 213.84 645.90 214.45
  Q 645.94 215.55 646.34 216.64
  C 647.12 218.83 645.41 220.17 643.30 219.80
  A 0.46 0.46 0.0 0 1 642.94 219.44
  L 642.86 219.00
  Q 642.82 218.76 643.06 218.76
  L 644.32 218.75
  Q 644.92 218.75 645.11 218.18
  Q 645.55 216.88 645.18 215.21
  A 0.68 0.68 0.0 0 0 644.08 214.84
  Z"
/>
<path d="
  M 628.51 220.33
  L 626.04 220.72
  Q 625.25 220.84 625.72 220.20
  Q 626.60 219.00 628.19 218.61
  Q 628.55 218.52 628.83 218.77
  Q 629.24 219.16 629.15 219.71
  Q 629.05 220.24 628.51 220.33
  Z"
/>
<ellipse cx="0.00" cy="0.00" transform="translate(633.04,222.42) rotate(-7.4)" rx="1.28" ry="0.74"/>
<path d="
  M 629.05 223.30
  A 0.14 0.14 0.0 0 1 629.18 223.45
  L 629.17 223.52
  A 1.76 1.41 4.9 0 1 627.30 224.77
  L 626.98 224.74
  A 1.76 1.41 4.9 0 1 625.35 223.19
  L 625.35 223.12
  A 0.14 0.14 0.0 0 1 625.51 222.99
  L 629.05 223.30
  Z"
/>
<path d="
  M 652.19 225.40
  L 651.92 228.89
  A 1.12 1.12 0.0 0 1 650.77 229.92
  L 649.18 229.88
  A 1.12 1.12 0.0 0 1 648.10 228.90
  L 647.73 226.03
  A 1.12 1.12 0.0 0 1 648.56 224.80
  L 650.80 224.23
  A 1.12 1.12 0.0 0 1 652.19 225.40
  Z
  M 650.2474 228.5779
  A 1.62 1.24 83.0 0 0 651.2808 226.8189
  A 1.62 1.24 83.0 0 0 649.8526 225.3621
  A 1.62 1.24 83.0 0 0 648.8192 227.1211
  A 1.62 1.24 83.0 0 0 650.2474 228.5779
  Z"
/>
<path d="
  M 643.68 227.09
  A 0.62 0.62 0.0 0 1 643.72 225.97
  Q 644.26 225.74 644.88 225.71
  A 0.93 0.93 0.0 0 1 645.85 226.61
  Q 645.86 227.06 645.68 227.51
  Q 645.46 228.05 644.95 227.78
  L 643.68 227.09
  Z"
/>
<rect x="-1.21" y="-3.44" transform="translate(633.23,232.26) rotate(4.0)" width="2.42" height="6.88" rx="1.10"/>
<path d="
  M 644.74 230.08
  Q 645.18 229.77 645.77 229.96
  Q 646.53 230.19 645.95 230.74
  Q 645.15 231.50 643.93 231.68
  Q 643.43 231.76 643.14 231.34
  Q 643.07 231.23 643.03 231.10
  Q 642.81 230.27 643.67 230.26
  Q 643.98 230.25 644.28 230.23
  Q 644.53 230.22 644.74 230.08
  Z"
/>
<ellipse cx="0.00" cy="0.00" transform="translate(627.54,231.58) rotate(-16.2)" rx="2.06" ry="0.69"/>
<ellipse cx="0.00" cy="0.00" transform="translate(627.39,235.83) rotate(-9.1)" rx="1.71" ry="0.77"/>
<path d="
  M 613.95 327.91
  C 597.10 324.56 581.95 313.47 572.55 299.31
  C 560.74 281.50 558.63 259.89 565.52 239.53
  Q 566.13 237.71 566.91 239.46
  Q 573.04 253.24 584.94 263.47
  C 611.25 286.09 650.15 284.62 675.15 260.92
  A 0.45 0.45 0.0 0 1 675.78 260.93
  L 710.17 295.34
  Q 710.90 296.07 710.14 296.78
  Q 683.39 321.82 649.12 327.67
  Q 629.55 331.02 613.95 327.91
  Z"
/>
<path d="
  M 630.47 250.42
  Q 630.36 251.01 629.69 251.38
  A 0.89 0.88 -12.9 0 1 628.38 250.56
  L 628.48 248.47
  L 628.56 240.72
  A 0.63 0.62 -85.2 0 1 629.28 240.11
  L 629.67 240.16
  A 0.44 0.43 -87.6 0 1 630.04 240.57
  L 630.47 250.42
  Z"
/>
<path d="
  M 620.00 242.80
  Q 621.54 242.63 621.85 243.17
  Q 622.31 243.96 622.30 246.69
  L 621.93 252.94
  Q 621.87 253.85 620.98 254.03
  L 620.62 254.10
  Q 620.01 254.23 620.01 253.60
  L 620.00 242.80
  Z"
/>
<path d="
  M 477.76 355.34
  C 468.01 353.85 462.66 361.36 464.79 370.40
  C 466.19 376.31 472.28 378.94 477.83 377.73
  Q 481.26 376.98 485.78 375.13
  A 0.22 0.22 0.0 0 1 486.08 375.33
  L 486.02 384.09
  Q 486.02 384.31 485.82 384.39
  Q 476.66 388.47 468.01 385.88
  Q 456.90 382.56 454.95 371.03
  C 453.18 360.59 457.06 350.57 467.99 347.35
  Q 476.42 344.87 485.18 348.30
  A 1.64 1.63 -79.1 0 1 486.22 349.84
  L 486.13 356.68
  Q 486.11 357.96 484.93 357.46
  Q 481.05 355.84 477.76 355.34
  Z"
/>
<path d="
  M 536.82 369.36
  A 17.38 17.38 0.0 0 1 519.44 386.74
  L 516.16 386.74
  A 17.38 17.38 0.0 0 1 498.78 369.36
  L 498.78 363.90
  A 17.38 17.38 0.0 0 1 516.16 346.52
  L 519.44 346.52
  A 17.38 17.38 0.0 0 1 536.82 363.90
  L 536.82 369.36
  Z
  M 526.9907 364.1033
  A 8.38 8.38 0.0 0 0 518.7433 355.5927
  L 517.3035 355.5701
  A 8.38 8.38 0.0 0 0 508.7929 363.8174
  L 508.7093 369.1367
  A 8.38 8.38 0.0 0 0 516.9567 377.6473
  L 518.3965 377.6699
  A 8.38 8.38 0.0 0 0 526.9071 369.4226
  L 526.9907 364.1033
  Z"
/>
<path d="
  M 612.99 356.28
  C 607.90 358.46 606.73 363.66 607.30 368.84
  Q 607.82 373.51 611.38 376.07
  C 615.89 379.30 622.48 377.76 627.32 375.58
  Q 629.03 374.81 629.03 376.69
  L 629.01 382.32
  Q 629.00 384.29 627.17 384.98
  C 618.87 388.10 609.02 387.57 602.52 380.98
  C 597.02 375.41 595.99 367.17 598.17 359.81
  C 601.97 346.98 615.47 344.13 627.07 347.98
  C 628.19 348.35 629.02 348.83 629.02 350.17
  Q 629.01 353.81 628.98 357.05
  A 0.48 0.47 9.9 0 1 628.35 357.49
  C 623.27 355.70 618.04 354.11 612.99 356.28
  Z"
/>
<path d="
  M 782.6603 369.4463
  A 17.36 17.36 0.0 0 1 765.2398 386.7456
  L 761.9798 386.7342
  A 17.36 17.36 0.0 0 1 744.6805 369.3137
  L 744.6997 363.7937
  A 17.36 17.36 0.0 0 1 762.1202 346.4944
  L 765.3802 346.5058
  A 17.36 17.36 0.0 0 1 782.6795 363.9263
  L 782.6603 369.4463
  Z
  M 772.8118 363.9960
  A 8.44 8.44 0.0 0 0 764.3131 355.6151
  L 762.8332 355.6254
  A 8.44 8.44 0.0 0 0 754.4523 364.1242
  L 754.4882 369.2640
  A 8.44 8.44 0.0 0 0 762.9869 377.6449
  L 764.4668 377.6346
  A 8.44 8.44 0.0 0 0 772.8477 369.1358
  L 772.8118 363.9960
  Z"
/>
<path d="
  M 574.03 367.46
  A 0.45 0.45 0.0 0 0 574.42 367.01
  L 574.47 347.59
  A 0.45 0.45 0.0 0 1 574.92 347.14
  L 583.77 347.24
  Q 584.05 347.24 584.05 347.52
  L 584.14 385.48
  Q 584.14 386.09 583.52 386.09
  L 575.65 386.06
  Q 574.93 386.06 574.50 385.46
  L 560.79 366.19
  A 0.58 0.58 0.0 0 0 560.03 366.02
  Q 559.53 366.30 559.55 366.81
  Q 559.91 376.76 560.02 385.52
  Q 560.03 386.03 559.51 386.04
  L 551.01 386.23
  Q 550.27 386.25 550.27 385.51
  L 550.26 347.89
  A 0.85 0.85 0.0 0 1 551.13 347.04
  L 558.10 347.15
  A 2.31 2.29 -17.0 0 1 559.94 348.12
  Q 566.82 357.73 573.62 367.28
  Q 573.78 367.50 574.03 367.46
  Z"
/>
<path d="
  M 652.91 362.23
  L 667.41 362.29
  A 0.61 0.61 0.0 0 1 668.02 362.90
  L 667.99 370.22
  A 0.61 0.61 0.0 0 1 667.38 370.83
  L 652.84 370.74
  A 0.61 0.61 0.0 0 0 652.22 371.37
  L 652.33 376.97
  A 0.61 0.61 0.0 0 0 652.95 377.57
  L 668.44 377.33
  A 0.61 0.61 0.0 0 1 669.06 377.93
  L 669.13 385.46
  A 0.61 0.61 0.0 0 1 668.52 386.08
  L 643.12 386.03
  A 0.61 0.61 0.0 0 1 642.51 385.42
  L 642.53 347.81
  A 0.61 0.61 0.0 0 1 643.14 347.20
  L 668.52 347.18
  A 0.61 0.61 0.0 0 1 669.13 347.80
  L 668.99 355.31
  A 0.61 0.61 0.0 0 1 668.38 355.91
  L 652.85 355.89
  A 0.61 0.61 0.0 0 0 652.24 356.51
  L 652.30 361.63
  A 0.61 0.61 0.0 0 0 652.91 362.23
  Z"
/>
<path d="
  M 723.25 356.63
  L 723.21 385.37
  A 0.68 0.68 0.0 0 1 722.54 386.05
  L 714.19 386.12
  A 0.68 0.68 0.0 0 1 713.50 385.44
  L 713.53 356.65
  A 0.68 0.68 0.0 0 0 712.85 355.97
  L 703.93 356.01
  A 0.68 0.68 0.0 0 1 703.24 355.34
  L 703.07 347.79
  A 0.68 0.68 0.0 0 1 703.75 347.09
  L 732.79 347.18
  A 0.68 0.68 0.0 0 1 733.47 347.85
  L 733.52 355.34
  A 0.68 0.68 0.0 0 1 732.84 356.02
  L 723.93 355.96
  A 0.68 0.68 0.0 0 0 723.25 356.63
  Z"
/>
<rect x="-4.85" y="-19.42" transform="translate(686.84,366.66) rotate(0.1)" width="9.70" height="38.84" rx="0.80"/>
<ellipse cx="0.00" cy="0.00" transform="translate(654.08,401.29) rotate(-29.0)" rx="1.65" ry="0.96"/>
<path d="
  M 519.2654 411.2977
  A 5.44 5.44 0.0 0 1 513.4328 416.3145
  L 512.3160 416.2305
  A 5.44 5.44 0.0 0 1 507.2992 410.3980
  L 507.4146 408.8623
  A 5.44 5.44 0.0 0 1 513.2472 403.8455
  L 514.3640 403.9295
  A 5.44 5.44 0.0 0 1 519.3808 409.7620
  L 519.2654 411.2977
  Z
  M 513.5987 414.1619
  A 4.12 3.56 86.4 0 0 516.8930 409.8265
  A 4.12 3.56 86.4 0 0 513.0813 405.9381
  A 4.12 3.56 86.4 0 0 509.7870 410.2735
  A 4.12 3.56 86.4 0 0 513.5987 414.1619
  Z"
/>
<path d="
  M 544.23 409.88
  Q 544.34 407.72 544.29 405.30
  A 1.16 1.15 -25.2 0 1 544.58 404.51
  Q 545.15 403.85 545.82 403.98
  Q 546.72 404.14 546.73 405.05
  L 546.89 415.42
  Q 546.90 416.01 546.32 416.13
  Q 544.02 416.61 542.84 414.48
  Q 541.47 412.01 540.03 409.88
  Q 538.91 408.20 538.86 410.22
  L 538.75 415.36
  Q 538.73 416.21 537.89 416.23
  L 537.38 416.25
  Q 536.48 416.27 536.48 415.38
  L 536.50 404.97
  A 1.13 1.13 0.0 0 1 538.41 404.15
  Q 541.03 406.63 543.02 410.16
  Q 544.12 412.11 544.23 409.88
  Z"
/>
<path d="
  M 603.9005 411.1632
  A 5.39 5.39 0.0 0 1 598.3988 416.4391
  L 597.3990 416.4182
  A 5.39 5.39 0.0 0 1 592.1231 410.9165
  L 592.1595 409.1768
  A 5.39 5.39 0.0 0 1 597.6612 403.9009
  L 598.6610 403.9218
  A 5.39 5.39 0.0 0 1 603.9369 409.4235
  L 603.9005 411.1632
  Z
  M 598.5164 414.2235
  A 4.12 3.70 83.5 0 0 601.7262 409.7111
  A 4.12 3.70 83.5 0 0 597.5836 406.0365
  A 4.12 3.70 83.5 0 0 594.3738 410.5489
  A 4.12 3.70 83.5 0 0 598.5164 414.2235
  Z"
/>
<rect x="-0.99" y="-6.25" transform="translate(653.13,409.99) rotate(1.2)" width="1.98" height="12.50" rx="0.92"/>
<rect x="-1.33" y="-6.21" transform="translate(701.18,410.06) rotate(0.3)" width="2.66" height="12.42" rx="1.29"/>
<path d="
  M 731.71 410.16
  A 6.25 6.25 0.0 0 1 725.46 416.41
  A 6.25 6.25 0.0 0 1 719.21 410.16
  A 6.25 6.25 0.0 0 1 725.46 403.91
  A 6.25 6.25 0.0 0 1 731.71 410.16
  Z
  M 725.6583 414.3074
  A 4.25 3.53 88.0 0 0 729.0378 409.9368
  A 4.25 3.53 88.0 0 0 725.3617 405.8126
  A 4.25 3.53 88.0 0 0 721.9822 410.1832
  A 4.25 3.53 88.0 0 0 725.6583 414.3074
  Z"
/>
<path d="
  M 482.99 409.56
  C 482.38 413.88 486.05 414.84 489.97 413.93
  A 0.40 0.40 0.0 0 1 490.45 414.27
  L 490.48 414.58
  Q 490.60 415.52 489.70 415.83
  C 486.16 417.05 481.50 416.36 480.83 411.90
  Q 479.53 403.25 488.73 404.09
  Q 489.26 404.14 489.68 404.47
  Q 490.34 404.98 490.45 405.80
  Q 490.56 406.63 489.76 406.40
  Q 483.69 404.63 482.99 409.56
  Z"
/>
<path d="
  M 564.54 404.93
  A 1.00 1.00 0.0 0 1 565.54 403.93
  L 569.16 403.93
  A 5.88 5.77 0.0 0 1 575.04 409.70
  L 575.04 410.48
  A 5.88 5.77 0.0 0 1 569.16 416.25
  L 565.54 416.25
  A 1.00 1.00 0.0 0 1 564.54 415.25
  L 564.54 404.93
  Z
  M 566.86 407.29
  L 566.72 412.83
  A 1.22 1.22 0.0 0 0 567.91 414.08
  L 568.94 414.10
  A 3.72 3.69 -88.6 0 0 572.72 410.47
  L 572.74 409.93
  A 3.72 3.69 -88.6 0 0 569.14 406.12
  L 568.11 406.10
  A 1.22 1.22 0.0 0 0 566.86 407.29
  Z"
/>
<path d="
  M 632.53 408.56
  L 632.27 408.50
  A 0.48 0.47 17.2 0 0 631.72 408.78
  Q 630.49 411.72 629.56 415.02
  C 629.24 416.18 627.97 416.52 626.94 416.17
  Q 626.45 416.00 626.28 415.50
  L 624.13 409.13
  Q 623.73 407.94 623.53 409.17
  Q 623.02 412.20 623.08 415.34
  A 0.88 0.88 0.0 0 1 622.24 416.23
  L 621.66 416.25
  A 0.84 0.84 0.0 0 1 620.79 415.41
  L 620.74 404.59
  A 0.66 0.65 0.4 0 1 621.41 403.94
  L 623.95 404.01
  Q 624.70 404.03 624.94 404.73
  L 627.29 411.57
  Q 627.51 412.19 628.12 411.97
  Q 628.33 411.90 628.39 411.69
  Q 629.40 408.26 630.58 404.76
  A 0.97 0.97 0.0 0 1 631.26 404.13
  Q 632.49 403.84 633.78 404.12
  Q 634.47 404.27 634.47 404.98
  L 634.52 415.46
  Q 634.52 416.20 633.79 416.21
  L 632.87 416.22
  Q 631.99 416.24 632.07 415.37
  L 632.68 408.76
  Q 632.70 408.60 632.53 408.56
  Z"
/>
<path d="
  M 680.24 410.53
  Q 680.23 408.51 679.96 406.48
  Q 679.75 404.94 680.85 404.06
  Q 681.00 403.94 681.21 403.91
  Q 682.49 403.77 682.49 405.06
  L 682.53 415.44
  A 0.72 0.71 -10.1 0 1 682.04 416.13
  C 680.85 416.53 679.56 415.89 678.95 414.85
  Q 677.52 412.42 675.78 410.23
  Q 674.31 408.39 674.34 410.74
  L 674.40 415.01
  A 1.18 1.18 0.0 0 1 673.23 416.21
  L 672.85 416.22
  Q 671.98 416.23 671.99 415.35
  L 672.10 404.75
  A 0.75 0.75 0.0 0 1 672.80 404.01
  Q 674.32 403.91 675.35 405.38
  Q 677.17 407.99 679.20 410.87
  Q 680.25 412.37 680.24 410.53
  Z"
/>
<path d="
  M 754.14 413.66
  C 754.58 411.61 751.17 410.67 749.73 410.06
  Q 749.05 409.77 748.75 409.08
  C 747.30 405.74 749.40 403.68 752.79 403.91
  Q 753.05 403.93 753.32 403.97
  Q 756.34 404.49 755.94 406.23
  A 0.35 0.35 0.0 0 1 755.50 406.49
  Q 754.01 406.05 752.48 405.75
  Q 751.60 405.58 750.96 406.04
  A 1.01 1.01 0.0 0 0 751.04 407.74
  C 753.62 409.23 756.53 409.47 756.31 413.30
  C 756.08 417.44 750.58 416.58 748.10 415.44
  A 0.71 0.70 -66.6 0 1 747.74 414.52
  L 747.86 414.23
  A 0.92 0.91 21.0 0 1 749.02 413.72
  Q 751.19 414.50 753.37 414.32
  Q 754.00 414.28 754.14 413.66
  Z"
/>
</g>
<g fill="#a52d2f">
<path d="
  M 667.17 59.57
  Q 671.64 60.41 675.58 61.62
  Q 683.93 64.18 693.82 67.31
  Q 702.80 70.15 710.40 73.64
  Q 719.88 77.99 726.51 81.51
  Q 747.21 92.50 767.14 109.36
  C 774.46 115.55 781.36 122.96 788.25 129.88
  C 789.64 131.28 790.72 132.98 792.08 134.43
  Q 804.12 147.30 810.39 157.95
  C 813.76 163.66 817.26 169.21 820.15 175.16
  Q 827.03 189.32 832.51 202.09
  Q 834.63 207.02 836.25 213.00
  Q 839.37 224.52 841.83 234.22
  Q 843.29 239.96 844.03 250.41
  C 844.36 255.16 845.17 259.98 845.21 265.00
  Q 845.38 281.95 844.85 296.93
  Q 844.67 301.91 843.99 307.28
  C 843.32 312.44 843.20 317.90 841.94 322.94
  Q 838.95 334.98 836.07 346.13
  C 835.08 349.92 833.16 352.92 831.94 356.56
  C 828.72 366.13 824.02 375.07 819.64 384.16
  C 817.41 388.80 814.05 393.06 811.30 397.54
  Q 807.94 403.00 804.53 408.11
  C 800.74 413.80 796.23 419.42 791.46 424.55
  Q 775.42 441.80 761.46 453.55
  C 755.93 458.20 749.47 461.56 743.28 465.79
  C 728.70 475.73 712.51 483.96 695.64 489.52
  Q 687.05 492.35 679.53 494.69
  C 671.84 497.08 663.27 498.76 655.18 499.99
  Q 635.48 502.97 619.17 503.06
  Q 604.88 503.14 581.51 500.74
  C 578.74 500.46 576.22 499.81 573.55 499.37
  Q 572.00 499.12 570.47 498.67
  Q 565.19 497.12 559.88 495.84
  Q 555.07 494.69 549.54 492.91
  C 543.52 490.98 537.76 489.39 531.98 487.00
  C 528.95 485.75 525.84 484.80 522.91 483.30
  C 518.34 480.96 513.52 479.04 509.02 476.60
  Q 497.12 470.13 486.95 463.24
  C 482.36 460.14 478.05 456.28 473.30 453.00
  Q 463.49 446.21 456.54 439.16
  Q 449.55 432.07 441.42 423.09
  C 437.73 419.01 434.99 414.24 431.69 409.79
  Q 420.39 394.52 412.00 377.99
  Q 404.29 362.82 397.86 343.35
  Q 394.81 334.13 393.18 324.24
  C 391.68 315.23 389.72 306.40 389.10 297.26
  Q 387.30 270.71 390.98 244.16
  Q 391.41 241.07 392.17 237.70
  Q 395.26 224.07 398.34 213.70
  Q 401.66 202.57 407.85 188.51
  C 410.97 181.41 415.20 174.18 418.97 167.02
  Q 424.76 156.03 435.10 143.17
  C 438.59 138.82 441.69 134.14 445.83 130.04
  Q 455.70 120.25 465.51 110.95
  Q 471.77 105.00 479.35 100.02
  Q 485.89 95.72 492.58 91.13
  Q 500.89 85.43 507.45 81.98
  Q 518.12 76.36 533.73 70.09
  Q 543.75 66.07 560.91 61.60
  Q 576.43 57.56 592.47 55.92
  Q 606.41 54.50 624.87 54.81
  C 633.90 54.96 642.66 56.33 651.44 57.09
  C 656.68 57.54 661.85 58.56 667.17 59.57
  Z
  M 631.00 145.87
  C 647.41 146.26 662.96 152.83 674.85 164.19
  A 0.96 0.95 -45.4 0 0 676.19 164.17
  L 709.86 130.41
  Q 710.92 129.34 709.81 128.31
  Q 671.93 93.10 620.07 96.33
  C 561.88 99.96 514.47 147.70 511.81 205.82
  Q 511.09 221.50 513.37 235.50
  Q 513.42 235.83 513.64 236.10
  A 0.46 0.46 0.0 0 0 514.45 235.92
  C 526.98 182.13 576.05 144.59 631.00 145.87
  Z
  M 584.45 193.49
  Q 584.21 193.93 584.98 194.40
  Q 583.39 194.62 581.75 194.53
  Q 581.20 194.50 580.77 194.77
  Q 580.24 195.11 580.40 195.71
  Q 580.55 196.25 581.04 196.55
  L 582.79 197.60
  A 1.06 1.06 0.0 0 1 583.30 198.45
  Q 583.50 201.98 582.42 205.47
  Q 582.22 206.12 581.62 206.44
  L 580.70 206.92
  A 0.75 0.75 0.0 0 0 580.82 208.31
  Q 582.92 208.98 582.91 211.04
  Q 582.91 213.99 583.31 217.33
  Q 583.39 217.98 582.76 218.12
  L 581.60 218.38
  Q 578.70 219.04 581.31 220.46
  L 582.25 220.97
  A 1.34 1.31 6.8 0 1 582.90 221.78
  Q 583.71 224.83 582.79 227.52
  Q 582.44 228.54 583.51 228.77
  Q 583.63 229.75 583.99 229.84
  Q 582.13 230.09 580.67 230.93
  A 0.75 0.74 40.8 0 0 580.77 232.27
  L 583.46 233.32
  Q 583.52 234.65 582.99 234.71
  A 0.99 0.96 74.0 0 0 582.25 236.11
  Q 583.14 238.02 583.22 240.19
  C 583.38 244.37 588.67 245.02 591.56 246.33
  C 595.70 248.21 600.79 247.85 605.29 247.45
  C 607.99 247.21 609.56 245.42 612.11 244.94
  A 1.23 1.18 -75.5 0 0 612.86 244.48
  Q 613.17 244.08 613.67 243.96
  Q 614.21 243.84 614.27 243.28
  Q 614.35 242.52 615.08 242.32
  Q 615.75 242.76 616.44 242.89
  Q 616.94 242.99 617.30 242.63
  L 618.95 241.00
  Q 620.41 242.53 620.00 242.80
  L 620.01 253.60
  Q 620.01 254.23 620.62 254.10
  L 620.98 254.03
  Q 621.87 253.85 621.93 252.94
  L 622.30 246.69
  L 625.29 248.68
  Q 625.71 248.96 626.16 248.73
  Q 626.48 248.56 626.70 248.21
  Q 626.95 247.78 627.44 247.90
  Q 627.98 248.03 628.48 248.47
  L 628.38 250.56
  A 0.89 0.88 -12.9 0 0 629.69 251.38
  Q 630.36 251.01 630.47 250.42
  Q 640.47 248.80 649.97 246.17
  C 653.74 245.13 656.06 243.84 656.09 239.70
  Q 656.12 233.36 655.97 226.68
  Q 655.93 224.79 655.57 222.90
  Q 655.14 220.67 655.52 217.81
  Q 655.99 214.35 655.40 210.80
  C 654.97 208.23 656.08 205.99 656.05 203.50
  Q 655.94 194.59 656.11 185.25
  Q 656.14 183.58 654.83 183.21
  Q 654.74 182.33 652.75 181.75
  Q 636.40 176.97 620.72 172.61
  Q 617.99 171.86 615.48 172.55
  Q 599.52 176.98 582.87 182.05
  Q 581.57 182.44 580.56 183.27
  A 0.83 0.83 0.0 0 0 580.96 184.73
  Q 582.53 185.00 583.45 185.91
  Q 583.72 186.17 583.69 186.55
  L 583.16 192.67
  A 0.75 0.75 0.0 0 0 583.47 193.35
  Q 583.89 193.66 584.45 193.49
  Z
  M 572.55 299.31
  C 581.95 313.47 597.10 324.56 613.95 327.91
  Q 629.55 331.02 649.12 327.67
  Q 683.39 321.82 710.14 296.78
  Q 710.90 296.07 710.17 295.34
  L 675.78 260.93
  A 0.45 0.45 0.0 0 0 675.15 260.92
  C 650.15 284.62 611.25 286.09 584.94 263.47
  Q 573.04 253.24 566.91 239.46
  Q 566.13 237.71 565.52 239.53
  C 558.63 259.89 560.74 281.50 572.55 299.31
  Z
  M 464.79 370.40
  C 462.66 361.36 468.01 353.85 477.76 355.34
  Q 481.05 355.84 484.93 357.46
  Q 486.11 357.96 486.13 356.68
  L 486.22 349.84
  A 1.64 1.63 -79.1 0 0 485.18 348.30
  Q 476.42 344.87 467.99 347.35
  C 457.06 350.57 453.18 360.59 454.95 371.03
  Q 456.90 382.56 468.01 385.88
  Q 476.66 388.47 485.82 384.39
  Q 486.02 384.31 486.02 384.09
  L 486.08 375.33
  A 0.22 0.22 0.0 0 0 485.78 375.13
  Q 481.26 376.98 477.83 377.73
  C 472.28 378.94 466.19 376.31 464.79 370.40
  Z
  M 536.82 363.90
  A 17.38 17.38 0.0 0 0 519.44 346.52
  L 516.16 346.52
  A 17.38 17.38 0.0 0 0 498.78 363.90
  L 498.78 369.36
  A 17.38 17.38 0.0 0 0 516.16 386.74
  L 519.44 386.74
  A 17.38 17.38 0.0 0 0 536.82 369.36
  L 536.82 363.90
  Z
  M 612.99 356.28
  C 618.04 354.11 623.27 355.70 628.35 357.49
  A 0.48 0.47 9.9 0 0 628.98 357.05
  Q 629.01 353.81 629.02 350.17
  C 629.02 348.83 628.19 348.35 627.07 347.98
  C 615.47 344.13 601.97 346.98 598.17 359.81
  C 595.99 367.17 597.02 375.41 602.52 380.98
  C 609.02 387.57 618.87 388.10 627.17 384.98
  Q 629.00 384.29 629.01 382.32
  L 629.03 376.69
  Q 629.03 374.81 627.32 375.58
  C 622.48 377.76 615.89 379.30 611.38 376.07
  Q 607.82 373.51 607.30 368.84
  C 606.73 363.66 607.90 358.46 612.99 356.28
  Z
  M 782.6795 363.9263
  A 17.36 17.36 0.0 0 0 765.3802 346.5058
  L 762.1202 346.4944
  A 17.36 17.36 0.0 0 0 744.6997 363.7937
  L 744.6805 369.3137
  A 17.36 17.36 0.0 0 0 761.9798 386.7342
  L 765.2398 386.7456
  A 17.36 17.36 0.0 0 0 782.6603 369.4463
  L 782.6795 363.9263
  Z
  M 574.03 367.46
  Q 573.78 367.50 573.62 367.28
  Q 566.82 357.73 559.94 348.12
  A 2.31 2.29 -17.0 0 0 558.10 347.15
  L 551.13 347.04
  A 0.85 0.85 0.0 0 0 550.26 347.89
  L 550.27 385.51
  Q 550.27 386.25 551.01 386.23
  L 559.51 386.04
  Q 560.03 386.03 560.02 385.52
  Q 559.91 376.76 559.55 366.81
  Q 559.53 366.30 560.03 366.02
  A 0.58 0.58 0.0 0 1 560.79 366.19
  L 574.50 385.46
  Q 574.93 386.06 575.65 386.06
  L 583.52 386.09
  Q 584.14 386.09 584.14 385.48
  L 584.05 347.52
  Q 584.05 347.24 583.77 347.24
  L 574.92 347.14
  A 0.45 0.45 0.0 0 0 574.47 347.59
  L 574.42 367.01
  A 0.45 0.45 0.0 0 1 574.03 367.46
  Z
  M 652.91 362.23
  A 0.61 0.61 0.0 0 1 652.30 361.63
  L 652.24 356.51
  A 0.61 0.61 0.0 0 1 652.85 355.89
  L 668.38 355.91
  A 0.61 0.61 0.0 0 0 668.99 355.31
  L 669.13 347.80
  A 0.61 0.61 0.0 0 0 668.52 347.18
  L 643.14 347.20
  A 0.61 0.61 0.0 0 0 642.53 347.81
  L 642.51 385.42
  A 0.61 0.61 0.0 0 0 643.12 386.03
  L 668.52 386.08
  A 0.61 0.61 0.0 0 0 669.13 385.46
  L 669.06 377.93
  A 0.61 0.61 0.0 0 0 668.44 377.33
  L 652.95 377.57
  A 0.61 0.61 0.0 0 1 652.33 376.97
  L 652.22 371.37
  A 0.61 0.61 0.0 0 1 652.84 370.74
  L 667.38 370.83
  A 0.61 0.61 0.0 0 0 667.99 370.22
  L 668.02 362.90
  A 0.61 0.61 0.0 0 0 667.41 362.29
  L 652.91 362.23
  Z
  M 723.25 356.63
  A 0.68 0.68 0.0 0 1 723.93 355.96
  L 732.84 356.02
  A 0.68 0.68 0.0 0 0 733.52 355.34
  L 733.47 347.85
  A 0.68 0.68 0.0 0 0 732.79 347.18
  L 703.75 347.09
  A 0.68 0.68 0.0 0 0 703.07 347.79
  L 703.24 355.34
  A 0.68 0.68 0.0 0 0 703.93 356.01
  L 712.85 355.97
  A 0.68 0.68 0.0 0 1 713.53 356.65
  L 713.50 385.44
  A 0.68 0.68 0.0 0 0 714.19 386.12
  L 722.54 386.05
  A 0.68 0.68 0.0 0 0 723.21 385.37
  L 723.25 356.63
  Z
  M 691.7225 348.0485
  A 0.80 0.80 0.0 0 0 690.9239 347.2471
  L 682.8239 347.2330
  A 0.80 0.80 0.0 0 0 682.0225 348.0316
  L 681.9575 385.2715
  A 0.80 0.80 0.0 0 0 682.7561 386.0729
  L 690.8561 386.0870
  A 0.80 0.80 0.0 0 0 691.6575 385.2884
  L 691.7225 348.0485
  Z
  M 655.5231 400.4901
  A 1.65 0.96 -29.0 0 0 653.6146 400.4504
  A 1.65 0.96 -29.0 0 0 652.6369 402.0899
  A 1.65 0.96 -29.0 0 0 654.5454 402.1296
  A 1.65 0.96 -29.0 0 0 655.5231 400.4901
  Z
  M 519.3808 409.7620
  A 5.44 5.44 0.0 0 0 514.3640 403.9295
  L 513.2472 403.8455
  A 5.44 5.44 0.0 0 0 507.4146 408.8623
  L 507.2992 410.3980
  A 5.44 5.44 0.0 0 0 512.3160 416.2305
  L 513.4328 416.3145
  A 5.44 5.44 0.0 0 0 519.2654 411.2977
  L 519.3808 409.7620
  Z
  M 544.23 409.88
  Q 544.12 412.11 543.02 410.16
  Q 541.03 406.63 538.41 404.15
  A 1.13 1.13 0.0 0 0 536.50 404.97
  L 536.48 415.38
  Q 536.48 416.27 537.38 416.25
  L 537.89 416.23
  Q 538.73 416.21 538.75 415.36
  L 538.86 410.22
  Q 538.91 408.20 540.03 409.88
  Q 541.47 412.01 542.84 414.48
  Q 544.02 416.61 546.32 416.13
  Q 546.90 416.01 546.89 415.42
  L 546.73 405.05
  Q 546.72 404.14 545.82 403.98
  Q 545.15 403.85 544.58 404.51
  A 1.16 1.15 -25.2 0 0 544.29 405.30
  Q 544.34 407.72 544.23 409.88
  Z
  M 603.9369 409.4235
  A 5.39 5.39 0.0 0 0 598.6610 403.9218
  L 597.6612 403.9009
  A 5.39 5.39 0.0 0 0 592.1595 409.1768
  L 592.1231 410.9165
  A 5.39 5.39 0.0 0 0 597.3990 416.4182
  L 598.3988 416.4391
  A 5.39 5.39 0.0 0 0 603.9005 411.1632
  L 603.9369 409.4235
  Z
  M 654.2314 404.6819
  A 0.92 0.92 0.0 0 0 653.3309 403.7428
  L 653.1909 403.7399
  A 0.92 0.92 0.0 0 0 652.2518 404.6404
  L 652.0286 415.2981
  A 0.92 0.92 0.0 0 0 652.9291 416.2372
  L 653.0691 416.2401
  A 0.92 0.92 0.0 0 0 654.0082 415.3396
  L 654.2314 404.6819
  Z
  M 702.5357 405.1470
  A 1.29 1.29 0.0 0 0 701.2525 403.8503
  L 701.1725 403.8499
  A 1.29 1.29 0.0 0 0 699.8758 405.1331
  L 699.8243 414.9730
  A 1.29 1.29 0.0 0 0 701.1075 416.2697
  L 701.1875 416.2701
  A 1.29 1.29 0.0 0 0 702.4842 414.9869
  L 702.5357 405.1470
  Z
  M 731.71 410.16
  A 6.25 6.25 0.0 0 0 725.46 403.91
  A 6.25 6.25 0.0 0 0 719.21 410.16
  A 6.25 6.25 0.0 0 0 725.46 416.41
  A 6.25 6.25 0.0 0 0 731.71 410.16
  Z
  M 489.97 413.93
  C 486.05 414.84 482.38 413.88 482.99 409.56
  Q 483.69 404.63 489.76 406.40
  Q 490.56 406.63 490.45 405.80
  Q 490.34 404.98 489.68 404.47
  Q 489.26 404.14 488.73 404.09
  Q 479.53 403.25 480.83 411.90
  C 481.50 416.36 486.16 417.05 489.70 415.83
  Q 490.60 415.52 490.48 414.58
  L 490.45 414.27
  A 0.40 0.40 0.0 0 0 489.97 413.93
  Z
  M 564.54 404.93
  L 564.54 415.25
  A 1.00 1.00 0.0 0 0 565.54 416.25
  L 569.16 416.25
  A 5.88 5.77 0.0 0 0 575.04 410.48
  L 575.04 409.70
  A 5.88 5.77 -0.0 0 0 569.16 403.93
  L 565.54 403.93
  A 1.00 1.00 0.0 0 0 564.54 404.93
  Z
  M 632.53 408.56
  Q 632.70 408.60 632.68 408.76
  L 632.07 415.37
  Q 631.99 416.24 632.87 416.22
  L 633.79 416.21
  Q 634.52 416.20 634.52 415.46
  L 634.47 404.98
  Q 634.47 404.27 633.78 404.12
  Q 632.49 403.84 631.26 404.13
  A 0.97 0.97 0.0 0 0 630.58 404.76
  Q 629.40 408.26 628.39 411.69
  Q 628.33 411.90 628.12 411.97
  Q 627.51 412.19 627.29 411.57
  L 624.94 404.73
  Q 624.70 404.03 623.95 404.01
  L 621.41 403.94
  A 0.66 0.65 0.4 0 0 620.74 404.59
  L 620.79 415.41
  A 0.84 0.84 0.0 0 0 621.66 416.25
  L 622.24 416.23
  A 0.88 0.88 0.0 0 0 623.08 415.34
  Q 623.02 412.20 623.53 409.17
  Q 623.73 407.94 624.13 409.13
  L 626.28 415.50
  Q 626.45 416.00 626.94 416.17
  C 627.97 416.52 629.24 416.18 629.56 415.02
  Q 630.49 411.72 631.72 408.78
  A 0.48 0.47 17.2 0 1 632.27 408.50
  L 632.53 408.56
  Z
  M 680.24 410.53
  Q 680.25 412.37 679.20 410.87
  Q 677.17 407.99 675.35 405.38
  Q 674.32 403.91 672.80 404.01
  A 0.75 0.75 0.0 0 0 672.10 404.75
  L 671.99 415.35
  Q 671.98 416.23 672.85 416.22
  L 673.23 416.21
  A 1.18 1.18 0.0 0 0 674.40 415.01
  L 674.34 410.74
  Q 674.31 408.39 675.78 410.23
  Q 677.52 412.42 678.95 414.85
  C 679.56 415.89 680.85 416.53 682.04 416.13
  A 0.72 0.71 -10.1 0 0 682.53 415.44
  L 682.49 405.06
  Q 682.49 403.77 681.21 403.91
  Q 681.00 403.94 680.85 404.06
  Q 679.75 404.94 679.96 406.48
  Q 680.23 408.51 680.24 410.53
  Z
  M 753.37 414.32
  Q 751.19 414.50 749.02 413.72
  A 0.92 0.91 21.0 0 0 747.86 414.23
  L 747.74 414.52
  A 0.71 0.70 -66.6 0 0 748.10 415.44
  C 750.58 416.58 756.08 417.44 756.31 413.30
  C 756.53 409.47 753.62 409.23 751.04 407.74
  A 1.01 1.01 0.0 0 1 750.96 406.04
  Q 751.60 405.58 752.48 405.75
  Q 754.01 406.05 755.50 406.49
  A 0.35 0.35 0.0 0 0 755.94 406.23
  Q 756.34 404.49 753.32 403.97
  Q 753.05 403.93 752.79 403.91
  C 749.40 403.68 747.30 405.74 748.75 409.08
  Q 749.05 409.77 749.73 410.06
  C 751.17 410.67 754.58 411.61 754.14 413.66
  Q 754.00 414.28 753.37 414.32
  Z"
/>
<rect x="-9.10" y="-11.04" transform="translate(517.85,366.62) rotate(0.9)" width="18.20" height="22.08" rx="8.38"/>
<rect x="-9.18" y="-11.01" transform="translate(763.65,366.63) rotate(-0.4)" width="18.36" height="22.02" rx="8.44"/>
<ellipse cx="0.00" cy="0.00" transform="translate(725.51,410.06) rotate(88.0)" rx="4.25" ry="3.53"/>
<ellipse cx="0.00" cy="0.00" transform="translate(513.34,410.05) rotate(86.4)" rx="4.12" ry="3.56"/>
<path d="
  M 566.86 407.29
  A 1.22 1.22 0.0 0 1 568.11 406.10
  L 569.14 406.12
  A 3.72 3.69 -88.6 0 1 572.74 409.93
  L 572.72 410.47
  A 3.72 3.69 -88.6 0 1 568.94 414.10
  L 567.91 414.08
  A 1.22 1.22 0.0 0 1 566.72 412.83
  L 566.86 407.29
  Z"
/>
<ellipse cx="0.00" cy="0.00" transform="translate(598.05,410.13) rotate(83.5)" rx="4.12" ry="3.70"/>
</g>
<g fill="#5a5454">
<path d="
  M 654.83 183.21
  Q 656.14 183.58 656.11 185.25
  Q 655.94 194.59 656.05 203.50
  C 656.08 205.99 654.97 208.23 655.40 210.80
  Q 655.99 214.35 655.52 217.81
  Q 655.14 220.67 655.57 222.90
  Q 655.93 224.79 655.97 226.68
  Q 656.12 233.36 656.09 239.70
  C 656.06 243.84 653.74 245.13 649.97 246.17
  Q 640.47 248.80 630.47 250.42
  L 630.04 240.57
  A 0.44 0.43 -87.6 0 0 629.67 240.16
  L 629.28 240.11
  A 0.63 0.62 -85.2 0 0 628.56 240.72
  L 628.48 248.47
  Q 627.98 248.03 627.44 247.90
  Q 626.95 247.78 626.70 248.21
  Q 626.48 248.56 626.16 248.73
  Q 625.71 248.96 625.29 248.68
  L 622.30 246.69
  Q 622.31 243.96 621.85 243.17
  Q 621.54 242.63 620.00 242.80
  Q 620.41 242.53 618.95 241.00
  L 621.27 239.65
  A 1.01 0.98 74.8 0 0 621.76 238.77
  L 621.67 231.66
  A 0.80 0.80 0.0 0 0 620.57 230.93
  Q 620.45 230.98 620.33 231.05
  Q 619.39 231.63 619.55 232.72
  L 620.20 237.02
  A 1.09 1.09 0.0 0 1 618.79 238.22
  Q 612.87 236.34 607.73 234.89
  Q 605.15 234.16 601.87 235.97
  C 601.37 236.25 600.75 236.36 600.18 236.40
  Q 599.47 236.44 599.62 235.74
  Q 600.39 232.14 599.74 226.64
  Q 599.66 226.01 600.28 226.19
  L 616.66 231.11
  Q 617.16 231.27 617.55 230.91
  Q 618.01 230.48 618.26 229.88
  Q 618.52 229.25 619.13 228.92
  L 621.18 227.79
  A 1.56 1.55 -15.4 0 0 621.99 226.38
  L 621.84 219.52
  Q 621.83 218.99 621.30 218.93
  Q 621.00 218.90 620.72 218.98
  Q 619.82 219.25 619.76 220.20
  Q 619.63 222.51 619.97 224.84
  Q 620.23 226.64 618.50 226.08
  Q 613.80 224.56 608.71 223.26
  C 605.76 222.50 602.96 223.42 600.21 224.36
  A 0.62 0.62 0.0 0 1 599.39 223.72
  Q 599.81 219.19 599.58 214.85
  A 0.54 0.54 0.0 0 1 600.27 214.30
  L 616.97 219.00
  A 0.91 0.90 26.7 0 0 617.92 218.69
  Q 619.16 217.12 621.09 216.51
  A 1.66 1.65 -9.2 0 0 622.25 214.91
  L 622.17 207.65
  Q 622.17 207.14 621.69 206.93
  C 620.93 206.59 619.82 206.99 619.58 207.87
  Q 618.87 210.53 619.97 213.15
  A 0.78 0.77 -2.1 0 1 619.01 214.18
  Q 613.19 212.27 607.85 210.85
  C 604.98 210.09 602.99 212.13 600.23 212.02
  Q 599.62 212.00 599.64 211.38
  L 599.90 203.05
  Q 599.93 202.23 600.72 202.46
  L 616.51 207.01
  Q 617.44 207.28 617.97 206.47
  Q 618.98 204.92 620.17 204.85
  Q 621.16 204.80 621.03 203.81
  Q 620.55 199.99 620.77 196.28
  Q 620.83 195.14 619.69 195.19
  L 617.96 195.27
  A 0.50 0.50 0.0 0 1 617.44 194.70
  Q 617.51 194.19 617.97 193.93
  Q 619.98 192.80 621.84 192.27
  Q 635.04 188.51 648.25 184.76
  Q 651.45 183.84 654.83 183.21
  Z
  M 650.74 189.04
  A 0.85 0.85 0.0 0 0 649.42 188.37
  L 648.78 188.79
  A 0.85 0.85 0.0 0 0 648.40 189.46
  L 648.16 193.79
  A 0.85 0.85 0.0 0 0 649.46 194.55
  L 650.50 193.90
  A 0.85 0.85 0.0 0 0 650.89 193.15
  L 650.74 189.04
  Z
  M 644.03 191.42
  A 1.11 1.11 0.0 0 0 642.41 190.38
  L 641.52 190.84
  A 1.11 1.11 0.0 0 0 640.91 191.78
  L 640.76 195.41
  A 1.11 1.11 0.0 0 0 642.19 196.52
  L 643.04 196.27
  A 1.11 1.11 0.0 0 0 643.84 195.26
  L 644.03 191.42
  Z
  M 623.95 194.01
  A 0.48 0.48 0.0 0 0 623.61 194.48
  L 623.73 203.36
  A 0.48 0.48 0.0 0 0 624.35 203.81
  L 635.42 200.33
  A 0.48 0.48 0.0 0 0 635.76 199.87
  L 635.70 191.29
  A 0.48 0.48 0.0 0 0 635.09 190.83
  L 623.95 194.01
  Z
  M 651.04 201.95
  Q 651.61 203.93 650.54 205.04
  Q 649.15 206.50 648.81 204.52
  L 648.46 202.46
  Q 648.31 201.60 648.01 202.42
  C 647.40 204.07 647.86 206.53 650.01 206.68
  A 1.20 1.18 -65.5 0 0 650.95 206.32
  Q 652.66 204.56 652.25 201.51
  A 1.64 1.63 -0.4 0 0 650.82 200.11
  Q 648.54 199.83 648.24 201.05
  Q 648.01 201.94 648.77 201.41
  Q 649.47 200.93 650.26 201.16
  A 1.15 1.14 0.5 0 1 651.04 201.95
  Z
  M 640.49 201.41
  Q 640.76 201.04 640.31 201.12
  C 638.85 201.38 637.00 202.40 637.00 204.11
  Q 636.98 219.95 637.00 234.90
  Q 637.00 236.00 638.10 236.02
  Q 638.29 236.02 638.48 235.96
  Q 639.07 235.78 639.07 235.17
  Q 639.06 220.47 639.02 206.02
  Q 639.01 203.47 640.49 201.41
  Z
  M 645.7638 201.8312
  A 0.99 0.58 -19.4 0 0 644.6373 201.6129
  A 0.99 0.58 -19.4 0 0 643.8962 202.4888
  A 0.99 0.58 -19.4 0 0 645.0227 202.7071
  A 0.99 0.58 -19.4 0 0 645.7638 201.8312
  Z
  M 634.4182 205.5718
  A 1.29 0.89 -33.3 0 0 632.8514 205.5361
  A 1.29 0.89 -33.3 0 0 632.2618 206.9882
  A 1.29 0.89 -33.3 0 0 633.8286 207.0239
  A 1.29 0.89 -33.3 0 0 634.4182 205.5718
  Z
  M 628.67 208.33
  A 0.76 0.75 -1.4 0 0 629.21 207.77
  Q 629.36 207.09 628.80 206.78
  Q 628.49 206.60 628.14 206.73
  Q 626.74 207.22 625.92 208.41
  Q 625.42 209.16 626.29 208.93
  L 628.67 208.33
  Z
  M 645.8266 207.4225
  A 1.14 0.51 -4.4 0 0 644.6509 207.0015
  A 1.14 0.51 -4.4 0 0 643.5534 207.5975
  A 1.14 0.51 -4.4 0 0 644.7291 208.0185
  A 1.14 0.51 -4.4 0 0 645.8266 207.4225
  Z
  M 632.6313 211.1940
  A 1.32 1.19 110.8 0 0 634.2124 210.3826
  A 1.32 1.19 110.8 0 0 633.5687 208.7260
  A 1.32 1.19 110.8 0 0 631.9876 209.5374
  A 1.32 1.19 110.8 0 0 632.6313 211.1940
  Z
  M 629.4412 210.9606
  A 1.87 0.71 -33.4 0 0 627.4892 211.3973
  A 1.87 0.71 -33.4 0 0 626.3188 213.0194
  A 1.87 0.71 -33.4 0 0 628.2708 212.5827
  A 1.87 0.71 -33.4 0 0 629.4412 210.9606
  Z
  M 647.96 217.44
  A 1.15 1.15 0.0 0 0 649.35 218.49
  L 651.03 218.12
  A 1.15 1.15 0.0 0 0 651.94 217.08
  L 652.18 213.27
  A 1.15 1.15 0.0 0 0 650.73 212.08
  L 648.59 212.68
  A 1.15 1.15 0.0 0 0 647.75 213.86
  L 647.96 217.44
  Z
  M 644.08 214.84
  A 0.68 0.68 0.0 0 1 645.18 215.21
  Q 645.55 216.88 645.11 218.18
  Q 644.92 218.75 644.32 218.75
  L 643.06 218.76
  Q 642.82 218.76 642.86 219.00
  L 642.94 219.44
  A 0.46 0.46 0.0 0 0 643.30 219.80
  C 645.41 220.17 647.12 218.83 646.34 216.64
  Q 645.94 215.55 645.90 214.45
  Q 645.87 213.84 645.26 213.80
  Q 644.24 213.74 643.35 214.15
  A 0.46 0.46 0.0 0 0 643.49 215.02
  Q 643.81 215.07 644.08 214.84
  Z
  M 626.04 220.72
  L 628.51 220.33
  Q 629.05 220.24 629.15 219.71
  Q 629.24 219.16 628.83 218.77
  Q 628.55 218.52 628.19 218.61
  Q 626.60 219.00 625.72 220.20
  Q 625.25 220.84 626.04 220.72
  Z
  M 634.3093 222.2551
  A 1.28 0.74 -7.4 0 0 632.9447 221.6862
  A 1.28 0.74 -7.4 0 0 631.7707 222.5849
  A 1.28 0.74 -7.4 0 0 633.1353 223.1538
  A 1.28 0.74 -7.4 0 0 634.3093 222.2551
  Z
  M 629.05 223.30
  L 625.51 222.99
  A 0.14 0.14 0.0 0 0 625.35 223.12
  L 625.35 223.19
  A 1.76 1.41 4.9 0 0 626.98 224.74
  L 627.30 224.77
  A 1.76 1.41 4.9 0 0 629.17 223.52
  L 629.18 223.45
  A 0.14 0.14 0.0 0 0 629.05 223.30
  Z
  M 652.19 225.40
  A 1.12 1.12 0.0 0 0 650.80 224.23
  L 648.56 224.80
  A 1.12 1.12 0.0 0 0 647.73 226.03
  L 648.10 228.90
  A 1.12 1.12 0.0 0 0 649.18 229.88
  L 650.77 229.92
  A 1.12 1.12 0.0 0 0 651.92 228.89
  L 652.19 225.40
  Z
  M 643.68 227.09
  L 644.95 227.78
  Q 645.46 228.05 645.68 227.51
  Q 645.86 227.06 645.85 226.61
  A 0.93 0.93 0.0 0 0 644.88 225.71
  Q 644.26 225.74 643.72 225.97
  A 0.62 0.62 0.0 0 0 643.68 227.09
  Z
  M 634.6003 230.0101
  A 1.10 1.10 0.0 0 0 633.5797 228.8361
  L 633.3602 228.8207
  A 1.10 1.10 0.0 0 0 632.1862 229.8413
  L 631.8597 234.5099
  A 1.10 1.10 0.0 0 0 632.8803 235.6839
  L 633.0998 235.6993
  A 1.10 1.10 0.0 0 0 634.2738 234.6787
  L 634.6003 230.0101
  Z
  M 644.28 230.23
  Q 643.98 230.25 643.67 230.26
  Q 642.81 230.27 643.03 231.10
  Q 643.07 231.23 643.14 231.34
  Q 643.43 231.76 643.93 231.68
  Q 645.15 231.50 645.95 230.74
  Q 646.53 230.19 645.77 229.96
  Q 645.18 229.77 644.74 230.08
  Q 644.53 230.22 644.28 230.23
  Z
  M 629.5182 231.0053
  A 2.06 0.69 -16.2 0 0 627.3475 230.9174
  A 2.06 0.69 -16.2 0 0 625.5618 232.1547
  A 2.06 0.69 -16.2 0 0 627.7325 232.2426
  A 2.06 0.69 -16.2 0 0 629.5182 231.0053
  Z
  M 629.0785 235.5595
  A 1.71 0.77 -9.1 0 0 627.2682 235.0697
  A 1.71 0.77 -9.1 0 0 625.7015 236.1005
  A 1.71 0.77 -9.1 0 0 627.5118 236.5903
  A 1.71 0.77 -9.1 0 0 629.0785 235.5595
  Z"
/>
<path d="
  M 584.98 194.40
  Q 584.21 193.93 584.45 193.49
  L 584.92 193.05
  Q 585.27 192.71 585.28 192.22
  L 585.31 187.03
  A 0.70 0.70 0.0 0 1 586.20 186.36
  L 597.68 189.58
  Q 599.51 190.09 597.68 190.63
  L 584.98 194.40
  Z"
/>
<path d="
  M 599.91 198.04
  C 601.51 196.68 601.04 193.50 600.97 191.57
  Q 600.94 190.90 601.61 190.80
  L 603.99 190.47
  Q 605.00 190.33 604.19 190.95
  C 601.91 192.68 604.08 195.70 602.77 197.71
  Q 602.09 198.74 600.12 198.66
  Q 599.24 198.62 599.91 198.04
  Z"
/>
<ellipse cx="0.00" cy="0.00" transform="translate(613.83,193.21) rotate(-26.1)" rx="1.91" ry="0.39"/>
<path d="
  M 597.44 201.71
  Q 598.17 201.94 598.13 202.70
  L 597.93 207.51
  A 0.55 0.54 11.0 0 1 597.20 208.00
  C 593.19 206.59 589.47 205.02 585.08 205.92
  Q 584.51 206.04 584.55 205.45
  L 585.12 198.46
  A 0.53 0.53 0.0 0 1 585.81 198.00
  L 597.44 201.71
  Z"
/>
<path d="
  M 597.75 219.76
  L 584.75 217.15
  A 0.33 0.33 0.0 0 1 584.49 216.78
  L 585.34 210.37
  A 0.33 0.33 0.0 0 1 585.76 210.10
  L 597.54 213.56
  A 0.33 0.33 0.0 0 1 597.78 213.85
  L 598.14 219.41
  A 0.33 0.33 0.0 0 1 597.75 219.76
  Z"
/>
<path d="
  M 648.58 214.28
  A 0.43 0.43 0.0 0 1 648.87 213.74
  L 649.05 213.69
  A 1.88 1.43 -16.6 0 1 651.27 214.52
  L 651.35 214.81
  A 1.88 1.43 -16.6 0 1 649.96 216.71
  L 649.78 216.77
  A 0.43 0.43 0.0 0 1 649.24 216.48
  L 648.58 214.28
  Z"
/>
<path d="
  M 583.99 229.84
  Q 583.63 229.75 583.51 228.77
  C 585.26 227.88 584.78 224.27 584.82 222.69
  A 0.77 0.76 8.8 0 1 585.80 221.98
  L 596.49 225.17
  Q 598.02 225.63 598.01 227.23
  L 598.00 230.60
  A 1.25 1.25 0.0 0 1 596.28 231.75
  Q 589.89 229.16 583.99 229.84
  Z"
/>
<ellipse cx="0.00" cy="0.00" transform="translate(650.05,226.97) rotate(83.0)" rx="1.62" ry="1.24"/>
<ellipse cx="0.00" cy="0.00" transform="translate(589.40,232.59) rotate(14.5)" rx="3.06" ry="0.57"/>
<path d="
  M 583.46 233.32
  L 615.08 242.32
  Q 614.35 242.52 614.27 243.28
  Q 614.21 243.84 613.67 243.96
  Q 613.17 244.08 612.86 244.48
  A 1.23 1.18 -75.5 0 1 612.11 244.94
  C 609.56 245.42 607.99 247.21 605.29 247.45
  C 600.79 247.85 595.70 248.21 591.56 246.33
  C 588.67 245.02 583.38 244.37 583.22 240.19
  Q 583.14 238.02 582.25 236.11
  A 0.99 0.96 74.0 0 1 582.99 234.71
  Q 583.52 234.65 583.46 233.32
  Z"
/>
</g>
</svg>
